<svg xmlns="http://www.w3.org/2000/svg" viewBox="0 0 220.3 139.6" enable-background="new 0 0 220.3 139.6"><style type="text/css">.st0{fill:#FEFEFE;}</style><path class="st0" d="M91 63.2c1.5-.9 2.6-1.6 3.7-2.3 6-3.8 9.8-9.1 11.5-16 1.2-4.6 1.3-9.3.8-13.9-1-10-5.3-18.1-13.8-23.8-8-5.3-17.1-7-26.4-7.1-21.2-.2-42.7 0-64.1-.1-2.3 0-2.7.7-2.7 2.8.1 43.6.1 87.2 0 130.8 0 2.3.7 2.7 2.8 2.7l56.3-.1c6.2 0 12.5-.4 18.7-1.3 26.6-3.9 39.6-30.4 31.8-53.5-3.1-8.9-9.5-14.7-18.6-18.2zm92.6 30.2h34.3c1.3 0 2.4.2 2.4-1.8 0-7.2.1-14.4-1.5-21.4-3.8-16.2-12.5-28.2-28.5-34.1-9.2-3.4-18.7-4-28.3-2.7-18.9 2.7-32.1 12.7-38.3 31-4.5 13.4-4.4 27.2-1.2 40.9 2.4 10.3 7.9 18.6 16.8 24.6 7.6 5.1 15.9 8.5 25 9.3 14.7 1.3 28.7-.5 40.5-10.3 6.5-5.4 11.8-11.8 13.7-20.3.3-1.5.2-2.1-1.5-2.1-7.8.1-15.7.1-23.5 0-1.1 0-1.8.3-2.4 1.3-4.1 7.1-10.5 10-18.5 10.3-14.3.5-24.5-8.3-25.5-22.1-.2-2.1.3-2.7 2.5-2.7 11.3.1 22.7.1 34 .1zm-13.8-69.9h27.2c1.6 0 2.2-.5 2.1-2.1-.1-4.3-.1-8.7 0-13 0-1.4-.3-2.1-1.9-2.1-18.2.1-36.5 0-54.7 0-1.4 0-1.9.4-1.9 1.8.1 4.3.1 8.7 0 13-.1 1.9.6 2.4 2.4 2.3 8.9 0 17.8.1 26.8.1z"/><path d="M91 63.2c9.1 3.5 15.5 9.3 18.5 18.3 7.8 23.1-5.1 49.6-31.8 53.5-6.2.9-12.4 1.3-18.7 1.3l-56.3.1c-2.1 0-2.8-.4-2.8-2.7.2-43.7.2-87.3.1-130.9 0-2.1.4-2.8 2.7-2.8 21.4.1 42.9-.1 64.3.1 9.3.1 18.4 1.8 26.4 7.1 8.5 5.7 12.8 13.9 13.8 23.8.5 4.6.3 9.3-.8 13.9-1.7 6.9-5.5 12.2-11.5 16-1.3.7-2.4 1.4-3.9 2.3zm-44.8 49.3l17.2-.1c1.2 0 2.5-.3 3.7-.4 8.5-1 13.9-5.9 15.3-14.2.4-2.1.3-4.3.2-6.5-.3-5.7-2.9-9.9-8.2-12.5-3.4-1.6-7-2.3-10.6-2.3-11.6-.1-23.2-.1-34.7-.1-1.5 0-2 .5-2 2 .1 10.7.1 21.5 0 32.2 0 1.6.5 1.9 2 1.9 5.8-.1 11.4 0 17.1 0zm.6-58.9h15.5c.8 0 1.7-.1 2.5-.2 9.1-.7 14.2-4.7 15.2-12.6.8-6.9-1-14.3-11.1-15.9-2.5-.4-5.1-.9-7.7-.9l-32-.2c-1.5 0-2 .4-2 2 .1 8.6.1 17.2 0 25.7 0 1.6.5 2.2 2.1 2.1 5.8-.1 11.7 0 17.5 0zM183.6 93.4c-11.3 0-22.7.1-34-.1-2.2 0-2.6.6-2.5 2.7 1 13.8 11.2 22.6 25.5 22.1 8-.3 14.4-3.2 18.5-10.3.6-1 1.2-1.4 2.4-1.3 7.8 0 15.7.1 23.5 0 1.8 0 1.9.6 1.5 2.1-2 8.5-7.2 15-13.7 20.3-11.8 9.8-25.9 11.6-40.5 10.3-9.1-.8-17.4-4.2-25-9.3-8.9-6-14.4-14.3-16.8-24.6-3.2-13.7-3.3-27.5 1.2-40.9 6.2-18.3 19.4-28.3 38.3-31 9.6-1.4 19.2-.7 28.3 2.7 16 5.9 24.8 17.9 28.4 34.1 1.6 7 1.5 14.2 1.5 21.4 0 2-1.1 1.8-2.4 1.8h-34.2zm-13.6-17.5c6.8 0 13.7-.1 20.5 0 2 0 2.3-.6 2-2.5-2-11.6-9.5-18.4-21.4-18.8-7.8-.3-14.7 2-19.2 9-1.9 2.9-3 6.1-3.9 9.4-.6 2.2-.3 2.9 2.2 2.9 6.6-.1 13.2 0 19.8 0zM169.8 23.5c-8.9 0-17.8-.1-26.7 0-1.8 0-2.5-.4-2.4-2.3.1-4.3.1-8.7 0-13 0-1.4.5-1.8 1.9-1.8h54.7c1.6 0 1.9.6 1.9 2.1-.1 4.3-.1 8.7 0 13 0 1.6-.5 2.1-2.1 2.1-9.2-.2-18.3-.1-27.3-.1z"/></svg>