<svg xmlns="http://www.w3.org/2000/svg" viewBox="0 0 960 559" enable-background="new 0 0 960 559"><style type="text/css">.st0{fill:#F2F2F2;}</style><path d="M0 0h960v559h-960z"/><path class="st0" d="M572.7 422.6l.9-.6c1.5-1.1 2.1-2.3 1.9-4.3-.6-4.7-.1-9.3 1.8-13.8 1.8-4.2 4.9-7.2 8.9-9.1 9.5-4.5 19.5-6.1 30-5.8l6 .4c.8.1 1.2-.2 1.4-1 .2-1.7.8-3.3 1.6-4.8.3-.6.4-1.2.2-1.8-1.1-5.9-2-11.9-3.2-17.8-1.7-8-4.3-15.8-7.1-23.5-2-5.4-3.7-10.9-5.3-16.3-.7-2.3-1.5-4.2-3.5-5.6-.7-.5-1.2-1-.4-1.9.6-.7-.2-1-.5-1.3l-7.9-6.7c-.8-.7-1.6-1.4-2.3-2.1-1.1-1.2-1.1-2 .5-2.5 1.7-.6 1.3-1.2.5-2.2-4-4.7-7-10-9.6-15.7-.8-1.8-1.6-3.6-2.8-5.1-1.2-1.6-1.7-3.4-.9-5.4.7-1.7.4-3.5.4-5.3 0-3 .6-5.9 2.3-8.4 1.3-1.9 3.2-3.4 5.6-3.9.8-.2 1.6-.2 2.5.2-.8.9-1.7.8-2.6.8-2.2 0-3.6 1-4.5 3-1.5 3.5-1.2 7.1-.8 10.7.8 6.1 3.6 11.3 7.4 16 2.6 3.2 5.9 5.9 9.2 8.4 7.6 6 15.6 11.5 23 17.8 7.4 6.3 15.4 11.8 23.7 16.7 2.1 1.2 4 2.6 6.2 3.7-1.4-1.7-3.1-3-4.8-4.4l-18-15.1-.6-.5c-.5-.6-1.5-1.2-.9-2.1.6-.9 1.7-.5 2.5-.1 1.7.7 3.4 1.7 4.4 3.1 2.5 3.7 6.4 5.6 9.6 8.4 6.3 5.5 12.7 10.8 19.1 16.2 2.1 1.8 4.1 3.7 6.2 5.3 2.7 2.1 5.6 3.9 8.8 5.4l-7.5-7.1.1-.2c1 .7 2.1 1.4 3 2.1 5.3 4.2 11 8 16.6 12 1 .7 2.2 1.2 3.2 1.8.9.5 1.3.4 1.2-.8-.4-3.7.3-7.2 1.6-10.6.5-1.3 1.3-2.5 2.1-3.6s1-2-.1-2.9c-.3-.3-.5-.6-.5-1.1 1.6.9 4 .7 5.7-.5.4-.3.5-.8.6-1.2 1.4-6.8 5-12.3 10.4-16.6 1.9-1.5 4.2-2.2 6.7-2.6.8-.1 1.5-.6 2.7-.5-1.7 1.2-3.1 2.2-4.6 3.2-5.3 3.9-9.4 8.8-11.4 15.2-.4 1.4 0 1.6 1.3 1.5 3-.2 5.8.8 8.6 1.7.3.1.5.4 1.1.8-3.1-.9-5.9-1.5-8.7-1.6-2.4 0-2.5-.4-2.8 2.4-.2 1.8-.3 3.6.1 5.4.3 1.3 1.4 1.3 2.2 1.7.5.2.9-.5.8-1-.2-.9-.1-1.9-.7-2.6-.5-.6-.5-1.3-.5-2h.4c.8.8 1.1 1.9 2.3 2.4 1.4.5 1.8-1.1 2.8-1.3.9-.2 1.8-.7 2.7-1.1.2-.1.4-.1.6-.1-1.5 1-3 1.9-4.2 3.3-.4.4-.8.8-.3 1.5.4.6.8.8 1.5.7 2.9-.2 5.7-.7 8.6-.3 1 .1 1.1-.6 1.4-1.2 2.7-6.3 7.3-11.1 12.7-15.1 2.8-2 5.9-2.8 9.3-2.1h.6c.3 0 .6-.1 1-.2-2.1-3-4.4-5.6-6.9-8.1-.8-.8-1.7-1.7-2.6-2.4-.6-.5-.8-1.2-.5-1.8.4-.7 1.1-.3 1.6-.1 1.2.5 2.1 1.3 3 2.2 8.3 8.4 15.2 17.8 19.6 28.9l.1.3c.1 3 2 3.8 4.5 3.8.6 0 1.2.2 1.8.3 1.1.3 2.3.8 3.1-.7.5.7-.4 1.6.7 1.8.6.1 1.4.7 1.9.4.6-.4.3-1.2.2-1.9-.3-4.1-1.1-8.1-2.7-11.9-.8-2-1.8-3.9-1.4-6.1 1 .2 1.1.3 1.9 1.7 2.8 4.8 4.2 10 5.1 15.4l.1.5c-.5 3.1 1.2 4.7 4 5.5 1.8.6 3.4 1.7 4.7 3.1.4.4.9.6 1.4.4.5-.2.7-.5.7-1.1.4-2.6.6-5.1.4-7.7-.2-3.4-.8-6.7-1.3-10.1-.7-4.8-2.8-8.9-4.7-13.2-.5-1.1-.3-2.4-1-3.9 1.5.9 2.2 2 2.8 3 3 5.2 5.7 10.6 6.7 16.6.7 4.6 1.1 9.1.6 13.7-.2 1.3.1 1.7 1.5 1.7 2.4 0 3.7 1.6 4.7 3.7.4.8.2 2.4 1.6 2.3 1.2-.1.8-1.6 1.1-2.5 2.9-8.8 3.4-17.8 1.5-26.8-.9-4.1-2.7-7.9-5-11.4-.7-1-1-2.1-1.7-3.2.8-.1 1 .5 1.3.7 5.3 4.5 8 10.4 9.2 17.1 1.3 7.5.5 14.9-1.1 22.3-.1.6-.2 1.2-.4 1.8.7 0 .9-.5 1.2-.9 2.8-3.1 4.6-6.8 6.7-10.4 1.2-2.2 2.6-4.2 4.9-5.4 1.2-.6 1.6-2.1 2.4-3.2 4.9-7.1 8.6-14.7 12.1-22.6.7-1.6 1.4-3.1 3.7-2.7.8.2 1.1-.8 1.4-1.5 1-2.6 1.9-5.1 2.8-7.7.5-1.4 1-2.8 2.8-2.8.6 0 .8-.4.7-1 0-1.1.2-2.2-.1-3.2-.2-.7-.1-1.4.4-1.9.3-.3.4-1 .9-.9.5.1.5.7.6 1.1.2.7.4.8 1 .2 1.1-1.2 2.1-2.4 2.5-4 .5-1.9 1.5-3.6 2.2-5.4.5-1.4 1.8-.9 2.6-.3.7.4.9.3 1.3-.2 1.9-2.3 4.1-4.3 5.8-6.8 1.2-1.8 3-2 4.6-1 .6.4.8.7.2 1.4-2.2 2.6-4.2 5.4-5.7 8.5-.4.8-.6 1.4.3 2.1.8.6 1.1 1.5-.1 2.2-1.1.7-1 1.5.2 2 1.4.6 1.5 1.3.8 2.6-.9 1.6-1.6 3.2-2.2 5-.7 2.1 0 4.3 0 6.4 0 8.4 2.3 16.5 4.1 24.7 2.1 9.2 3 18.5 3.7 27.9.5 6.5.6 13.1.9 19.6.1 1.6 0 3.3-.1 4.9-.1 1.4.2 2.4 1.7 3.1 3.6 1.5 6.1 4.3 8.7 7.1 3.5 3.6 6.1 7.8 9.1 11.9 2.9 3.9 5.2 8.1 7.7 12.2 1.4 2.3 2.4 4.8 3.4 7.3.3.8.7 1.6 1.1 2.4 1.2 2.8 1.8 5.7 3 8.4 1.3 3 1.2 6.4 2.2 9.6 1.3 4 1.1 8.2 1.9 12.3.3 1.6 1.5 2.9 2.1 4.5.2.4 1.3.8-.2.9-.4 0 .1.7.4.9 1.7 1.2 2.3 2.8 2.3 4.8 0 .4-.3 1.6 1 1.3.5-.1.4.6.3 1-.2 1-.6 1.9 1 2.1.5 0 .6.9.5 1.5-.1.2-.3.7-.3.7.9.6 1.3 1.3 1.6 2.5.2.9 1.3 1.5.8 2.7-.3.7.8 1.3 0 2.2-2-5.4-4.4-10.5-7.3-15.4-.2 2.2 0 4.3.6 6.4 1 3.4.7 7 1 10.5.5 5.9 2.3 11.3 4.5 16.7 1.1 2.8 1.7 5.8 2.9 8.6.8 1.9 1.1 4 1.9 6 2.4 5.7 5.7 11.1 7.2 17.1.7 2.8 1.6 5.8.4 8.8-.2.5-.3 1-.9 1.2-.6-.7.2-1.5-.1-2.2-.6-2-1.2-4-1.6-6l-2-5.1c-.1-.6-.6-.7-1-.2-.2.2-.5.3-.6 0-.1-.2-.1-.4-.1-.6.4-1.7-.2-3-1-4.6-.9-1.9-1.5-3.9-2.6-5.7-1.2-1.9-2.4-3.8-3.8-5.6-.9-1.2-1.4-2.6-2.4-3.7-2-2.3-4.1-4.7-6.1-7.1-.1-.1-.3-.2-.6-.4-.4 2.3-1 4.5-1.1 6.8-.1 1.5 1.1 2.7 1.8 4 4.4 7.7 7.7 15.9 10.1 24.5.6 2.2 1.4 4.4 1.5 6.7 0 .3.6.8-.3.7-.4 0-.3.8 0 .7 1.3-.1 1 1 1.1 1.6l.8 3.6h-2.2c-.4-3.2-1.3-6.3-2.4-9.3-.3-.9-.8-1.6-.8-2.7 0-.5-.2-1.1-.5-1.6-.8-1.2-1.2-2.5-1.7-3.8-1.7-4.4-3.3-8.9-5.5-13-1.2-2.2-2.7-4.3-3.8-6.5-.9-1.7-2.3-3.1-3.1-5-.2-.4-.4-.8-.9-.6-.5.3-.1.6 0 .9.9 2 1.7 4.1 2.9 5.8 1.3 1.9 2.1 4 2.7 6 .7 2.2 2.1 4.2 2.7 6.5 1.1 4.2 2.9 8.2 4 12.5.7 2.7.8 5.7 2.3 8.3.2.4.8 1.5.2 2.3h-1.5c-.5-2-.5-4.1-1.5-6.1-1.4-2.6-1.9-5.7-2.9-8.6-2.2-6.5-4.9-12.8-7.6-19-.9-2-1.9-3.9-3.3-5.7.2 2.4.6 4.7 1 7.1.1.5.4 1 0 1.3-.5.5-.6.5-.2 1.1.1.2.3.3.4.4.7 1.4.6 2.8.8 4.6-.9-.8-.4-1.8-1.3-2.3-.2 1.7.3 3.2.6 4.6 0 .1.2.4.2.3 1.4-.2.3 1 .7 1.3-1.2 1-.4 2.2-.3 3.3.2 1.8.5 3.7.6 5.5.1 1.3.4 2.6.2 4.1-.6-.4.1-1.3-.9-1.4.2.7.2 1.4.1 2.1-.1.3.1 1 .4.9 1.2-.5.6.4.7.7l.6 5.7h-5.9c-.3-3-1.2-5.9-2.8-8.4-3.5-5.7-7.8-10.8-11.8-16-.4-.5-.8-.9-1.5-1.1 0 .5-.2.9 0 1.4.5 1-.2 2.3.9 3.2-1.1 2.3 1.3 4 1 6.3-.1 1.1.6 2.5.9 3.7.3 1.2-.1 2.7.7 3.8v.3c-.4 3.2 2 6.1 5.7 6.3.9.1 1.9-.1 2.7.6h-229.6c.3-.4.9 0 1.2-.5-.1-.1-.1-.2-.2-.2-3-.8-6-.4-9-.5-.6 0-.9.6-.9 1.2h-3.7c.5-.9.5-1.4-.8-1.3-1.7.1-3.5.1-5.3 0-1.3-.1-2.2.4-3 1.3h-5c.2-.3.8-.5.6-.9-.2-.5-.7-.2-1.1-.2l-2.9.1c-.8 0-1.4.2-1.6 1.1h-7.4c-.1-.9-.8-.7-1.3-.7-2.2 0-4.4.1-6.6.2-.5 0-1 0-1.4.5h-32.5c-.1-.2-.2-.4-.2-.6-.9-2.2-.7-2.8 1.6-3.2l6.7-1.1c.4-.1 1.1 0 1.2-.5.1-.6-.5-.7-.9-.9-1.1-.6-1.1-1.3-.1-2 .6-.4.9-.9.9-1.7-.2-3.3-.1-6.6.3-9.9.2-1.5-.4-1.7-1.7-1.7-3.3.1-6.7.1-10-.2l-7.2-.9v-3.7l1.5.2c5.3 1.2 10.7 1.8 16.1 1.7 1.3 0 1.8-.4 1.8-1.7 0-.9 0-1.8-.3-2.7-.3-1-.7-2.1-.9-3.1-1.5-8.2-2.7-16.4-3.7-24.6 0-.4.2-1-.5-1.2-1.2 3.5-1.3 7.1-1.4 10.8-1.5-1-.5-2.2-.6-3.3-.4-3.4.2-6.7 1.2-9.9.8-2.6 1.4-5.2 1.4-7.9 0-4.3.7-8.5 1.7-12.7 1.2-4.8 3-9.3 4.7-13.9.4-1 .8-1.8-.9-1.6-.4.1-.7-.1-.9-.5-.2-.4.1-.7.4-.9.4-.3.8-.8 1.2-.9 1.9-.3 2.8-1.7 3.5-3.2 3.7-7.2 7.4-14.3 12.1-20.8 1.2-1.7 2.4-3.4 3.6-5.2-.6-.3-1 0-1.4.3-2.3 1.7-4.5 3.5-6.6 5.4-4.1 3.8-7.6 8.1-10.9 12.6-4.2 5.8-8.4 11.5-11.3 18.1-5.2 12.1-6.1 24.4-1.7 36.9.4 1.2 1.2 2.3 1.3 3.8-.8-.4-1.1-.9-1.4-1.4-1.1-2-1.9-4.1-2.7-6.2-2.2-5.5-2.7-11.3-2.5-17.2.3-8.3 3.4-15.8 7.4-22.9 2.5-4.4 5.4-8.6 8.3-12.7.6-.8.8-1.5-.3-2-1.2-.6-2.2-1.6-3.2-2.4-.9-.7-1.5-.7-2.2.1l-1.2 1.2c-4.1 4.4-8.1 8.9-12 13.6v-4.3l2.7-3 8.8-9.8c.3-.4.9-.7.3-1.3-.5-.4-1-.1-1.4.2l-2.1 1.8c-3.2 2.8-5.8 6.1-8.2 9.6v-5.9c2.6-3.1 5.4-6 8.5-8.5.7-.5.6-1 .2-1.7-1-1.7-1.8-3.4-2.7-5-.7-1.4-1.1-1.5-2.1-.3-1.4 1.6-2.6 3.2-3.9 4.8v-5c1.4-1.2 2.3-2.8 3.6-4.1.3-.3.4-.7.1-1.1-.3-.4-.8-.3-1.1 0-.9.6-1.8 1.2-2.6 1.8.4-.9.4-2.2.4-3.6zm190.8-65.7c1.2 0 .7-1 .7-1.5-.1-.8-.8-.6-1.2-.4-.5.2-1.6-.3-1.1.9-1.9-.7-7.9.6-9.1 2.2.3 0 .6-.1.8-.1 3.3-.4 6.5-1.1 9.8 0 .2.1.5.2.7-.1.1-.5-.3-.7-.6-1zm44.4 41c-1 .2-1.3 1.1-1.7 1.8l-4.7 6.9c-.3.5-.7 1-1.4.8-.6-.2-1-.7-1.1-1.4 0-.2.2-.5-.2-.7-1.8 1.6-3.5 3.5-5.8 4.5 1.7-.2 3.3-.9 5-.9 2.4 0 4.2-.7 5.4-3.1 1.3-2.8 3.2-5.2 4.5-7.9 1.7-1.8 2.8-4 4-6.1-.6.5-1.2 1-1.5 1.7-.7 1.5-2.3 2.5-2.5 4.4zm-87 14.5c-.5.8-1.5 1.2-1.5 2.6.8-.6 1.4-1 2-1.5.3-.3 1.1-.5.8-1.1-.3-.5-.9 0-1.3 0 .1-.2.2-.5-.2-.7-.8-.4-1.7-.7-2.7-.7-3.2.2-6.4.4-9.6.5-.8 0-1.1.3-.9 1.2.5 1.6.9 3.3.9 5 0 .8.3 1 1.1.5 1.7-1 3.4-2 5.1-2.9 2-1.2 3.8-2.7 6.3-2.9zm34.9-59c-2.8-.7-5.6-.9-8.4-.8-2.3.1-2.3.1-2.1 2.4.3 2.9.6 3 3.1 1.5.7-.4.7-1 .6-1.6-.1-.9.5-1.4 1.2-1.5.7-.2.7.6.9 1 .3.8.7 1 1.5.7.9-.3 1.9-.6 2.8-.8.4-.1 1-.2.9-.8 1.9.7 3.8-.3 5.6-.4 2.2-.1 2.2-.2 1.6-2.3-2-6.9-6.2-12.7-10.2-18.4-.3-.4-.7-.6-1.2-.4-1.8.6-3.7 1.3-5.6 1.9-.9.3-1.2.9-.9 1.7.4 1.1.1 2.1 0 3.2-.4 3.6-.9 7.3-.7 10.9.1 2.2.2 2.3 2.4 2.4 2.9 0 5.8 0 8.5 1.3zm-127.3 79.4l.2-3.1.4-4.8c0-.5.1-1.1-.6-1.2-.7-.1-.5.6-.7.9-.5 1.1-.6 2.3-.8 3.6-.4 2.8-.7 5.6-1.2 8.4-.2.9.1 1.4 1 1.6 1 .2.6-.7.8-1.1.4-1.4.1-3 .9-4.3-.1 1.5-.2 3.1-.5 4.7-.2 1.1.2 1.6 1.1 2.1 2.4 1.3 4.9 2.5 7.4 3.6 1.1.5 1.4.2 1.1-1-.5-1.8-.4-3.6.6-5.5.2.7.3 1 .4 1.4.4 2 1.3 3.7 2.6 5.2.8 1 1.6 1.4 2.9.6 1.3-.9 2.9-1.4 4.4-1.9.5-.2 1.1-.3 1.7-.3.4 0 .7.1.9.5.1.3 0 .6-.3.8-1.6 1.3-.4 2.6.2 3.7.8 1.3 1.9.4 2.7 0 5-2.3 7-6.6 7.8-11.7.3-2.2.2-4.4.3-6.6.1-.7-.4-.8-.8-.9-1.6-.4-3-1.1-4.5-2 1.8-.7 3.7-.7 5.4-.8.9-.1 1.5-.2 1.1-1.4-.3-.7-.5-1.5.3-1.9.7-.3 1.5-.3 2.2.4l1.8 1.7c.5.4 1 .4 1.4.1.5-.3 0-.7-.2-1l-.4-1c-.1-.2-.4-.4-.3-.6.2-.3.5-.2.8-.1l3.7 1.1c.9.3 1.9 1 2.8-.1 1.6-1.8 3.1-3.6 3.9-6l-.3-.1-1.1.2c-8 2.1-16.2 3.2-24.5 3-3-.1-6.1-.2-9-1.2-2.3-.8-4.5-1.8-6.6-3-1.1-.6-1.5-.3-1.5.9 0 1 .1 2.1 0 3.1-.3 2 .6 4.1-.6 6-.1.1.1.4.1.6l.3 5.7c.1.9-.3 1.3-1.1 1.4-.9.1-1-.6-1.1-1.2-.1-.4 0-.7 0-1.1l.4-5.2c0-.5.2-1.2-.4-1.6-1.4-1-3.6-.1-3.9 1.6-.5 2.5-.4 5.2-1.2 7.8zm8.7-43.2c0 .5.1.9 0 1.4 0 .7-.1 1.9.1 2.1 1.6 1.7 1.5 3.6 1 5.6-.2.7-.5 1.5-1.5 1.1-1-.4-1 .3-1 .8.5 2.9.2 5.9.4 8.8 0 .7.3 1.2.8 1.6 3.5 2.1 7 4.2 11.2 4.6 5.2.6 10.4.6 15.6-.1 6.2-.7 12.3-1.7 18.1-3.8 3.1-1.1 5.8-3.2 9.2-3.7.7-.1.6-.5.2-1-1.3-1.7-2.1-3.5-2.7-5.6.5-.1.8.2 1.1.3 2.3 1.3 4.3 2.8 6.2 4.7.6.6 1.1.7 1.9.7 2.4-.2 4.8-.4 7.2-.2 7.2.4 14.3 1.2 21.4 3 .4.1.9.3 1.2 0 .4-.4 0-.9-.1-1.3-1-2.7-2-5.4-3.1-8.1-.2-.6-.6-.9-1-1.3-2.4-1.9-4.5-4-7.2-5.6-3.4-2-5.9-5.2-9.4-7.2-1.2-.7-2.3-1.5-3.4-2.2-3.6-2.5-7.4-4.7-11.2-6.9-.3-.2-.6-.5-1-.3-.4.3 0 .7 0 1 .1 1.7.4 3.5.1 5.2-1.2 6.4-4.4 11.4-10.2 14.5-4.7 2.5-9.8 2.7-14.9 2.5-4.3-.2-7.5-2.2-9.8-5.7-4.9-7.2-.8-15.5 7.8-16.2l1.1-.1c3.3-.3 6 1.4 8.8 2.6.5.2.6.7-.1.8-1 .2-2 .7-3.1.5-1.8-.3-3.6-.5-5.4-.9-3.9-.8-7.8 2.3-8.2 6.3-.3 4.2 3.8 9.3 8 9.8 3.5.4 7 .3 10.4-.7 6.4-1.8 10.8-5.9 12.3-12.5.9-4.3.1-8.9-4.5-11.3-1.8-.9-3.6-1.9-5.5-2.5-8.7-2.7-17.5-2.6-26.3-1.2-5.1.8-9.8 2.3-14.2 5-.9.5-1.1 1.1-1 2.2.4 2.7.4 5.4.9 8 .5 1.9-.6 3.6-.2 5.3-1.2-.8-1.1-2.2-1.2-3.4-.2-1.2-.4-2.3-.9-3.4-.2 3 0 5.9.5 8.8.1.4.2.7.7.7.5 0 .4-.5.4-.8 0-.7-.4-1.5.5-1.9zm179.7 5.9c.1.6-.1.8-.2 1l-7.8 10.1c-.5.6-1.5 1.1-1.2 1.8.3.7 1.4.4 2.1.4 4.4.1 8.7 1.9 13.2.8.3-.1.8-.1.7.3-.1 1.2.8 1 1.4 1.2 1.2.3 2.5.6 3.7 1 6 1.5 11.6 3.9 17.3 6.2 3.5 1.5 7.1 2.4 11 1.6 1.1-.2 1.6-.6 1.9-1.7 1.9-7 2.4-14.2 2.9-21.4 0-.7-.2-1.3-.7-1.8-5-5.7-14.3-5.6-19.6-2-1.8 1.2-2.1 2.6-1.4 4.6.8 2.4 2.7 3.9 4.7 5.2 3.8 2.4 7.1 1.7 9.9-1.8.7-.9.8-1.8.1-2.6-1.9-2.1-3-4.6-4.2-7.1 1.2-.2 1.7.9 2.4 1.4 1.8 1.4 3.7 2.8 4.9 4.9.5 1 1.2 2 .5 3.1-.8 1.4-1.7 2.8-2.8 3.9-2.7 2.5-5.7 4-9.4 2.6-3-1.1-5.5-3.1-7.3-5.8-3.2-4.8-2-9.7 3.1-12 6.2-2.8 12.4-3.1 18.5.5 1.6.9 1.6 1 1.7-.8.3-7.1-.3-14.1-1-21.1-1-10.4-2.9-20.6-5.2-30.8-.1-.6 0-1.3-.8-1.8-1 2.2-1.7 4.4-2.7 6.5-3 6.8-7.1 13-11.2 19.1-5.2 7.6-11.2 14.6-17.3 21.6-6.6 7.5-12.3 15.7-17.8 24.1-.3.4-.7.9-.4 1.7 3.9-4 7.4-8.3 11-12.9zm-32 153.3c-1-.9-.2-1.9-.4-2.8-.6-3.7-1.2-7.5-1.6-11.2-.6-5.1-1.1-10.3-2-15.3-.4-2.2.7-3.8 2.8-4.6.9-.3 1.3-.3 1.3.8 0 1.3.1 2.6.3 3.8 1.4 10.3 2.4 20.6 3.3 30.9.2 2.1.3 2.3 2.4 2.3 3.7 0 7.4.1 11.1.3 4.5.2 8.9-.1 13.4.4 1 .1 1-.4.5-1-.6-.9-1.3-1.7-2-2.6-3.6-4.7-8.3-8.3-12.3-12.7-2.8-3.1-5.9-6.1-7.6-10.1-.8-1.8-.8-3.7-.1-5.6.2-.6.8-.8 1.3-.9.3-.1.4.3.4.5.6 2.4 2.1 4.2 3.7 6 4 4.6 8.3 8.9 12.7 13 3.5 3.3 6.6 7.1 9 11.4.5.9.8.9 1.6.2 2.3-2.1 4.7-4.2 6.9-6.3 1.2-1.1 2.4-2.2 2.5-4.1.1-.8.5-1.6 1.1-2.2 1.3-1.2 1.2-2.4.4-3.7-.4-.8-1-1.4-1.6-2.1-2.9-3.6-7-5.6-11-7.7-6.1-3.3-12.4-6.4-18.7-9.5-5.5-2.7-10-6.4-13.5-11.5-.2-.3-.2-.7-.8-.6.2 4.6 1.1 9.2 1.5 13.8.7 6.9 2 13.8 1.3 20.8.6-1.4-1-1.6-1.2-2.6-.6-2.6-.5-5.2-1.5-7.7-.7-1.9-.8-4.1-1.6-6.1-.7-1.8-.8-3.8-1-5.7-.3-2.3-.4-4.7-1.3-6.9-.2-.4-.3-.9.1-1.2.9-.6.9-1.7 1.5-2.4s.4-1.6-.3-2.1c-.7-.4-1.7-.3-2.2.5-.5.7-1.1.7-1.8.8-1.7.1-3.6-.7-5.1.9-.1.1-.3.1-.4.1-1.7-.5-2.8 0-4.3 1.1-3.1 2.1-5.2 4.6-6.2 8.1-.6 1.9-1.1 3.9-1.9 5.7-.6 1.3-.7 2.6-.7 3.9l.1.4c.4-.2.3-.9 1-1 .1 4.4-.4 8.6-.7 12.9-.1 1.3-.1 2.6-.7 3.8-1.5 3.1-1.5 6.6-2.4 9.9-.2.9.2 1.3 1.1 1.2 1.3 0 2.6-.2 3.9-.1 5.1.6 10.2.3 15.3.4.7 0 1.7-1.3 1.3-1.8-1-1.3-.7-2.8-1-4.3-.2-1 .6-1.5 1.5-1.8 1.1-.3 1.3.6 1.4 1.3l.3 2.4c.1 1.1.3 2.2.5 3.3h.3c.1-.5.1-1 .2-1.6.4.6 0 1.4.8 2-.1-1.5-.2-2.8-.2-4.1h.2c.1.5.1 1 .2 1.4.7-2.5-1.1-4.6-1.1-6.9-.6 2.2.4 4.2 0 6.5zm-49.3-55.1c-.8 1-.7 2-.5 2.9.3 1.6.6 3.1.6 4.8 0 1.1-.6 1.8-1.5 1.8-1.1 0-1.1.5-1.1 1.3.1 2 .2 3.9-.2 5.9-.4 2.2-2 3.1-4 2.3-.8-.3-.8.2-.9.6-.4 1.4-.8 2.9-1.1 4.3-2.5 10.1-3.9 20.3-5.7 30.5-.2 1.4.3 1.7 1.5 1.8.9 0 1.9-.3 2.6.2 1.4 1.3 3.3 1.1 4.7 1.1 4 0 8 0 11.9.2l14 .4c.8 0 1.2-.3 1.5-1 .6-1.5.6-3 .9-4.5 1.1-6.2 1.8-12.4 1.6-18.8-.1-2.2.1-4.4-1.5-6.3-1-1.2-1.3-2.8-1.5-4.3-.7-4.3-3.4-7.8-5.4-11.5-1-1.9-2.9-3.5-5.4-3.7-1.8-.1-3.6-.3-5.4-.5-.9-.1-1.3 0-1 1 .2.7.2 1.6-.8 1.7-.9 0-.7-.9-.7-1.4-.7-3-1.4-5.9-2.6-8.8zm-103.1-29.1c1.6.9 3.3.8 4.9 1.3 3.5 1.1 7.1 1.5 10.7 1.7 3.3.2 6.7.1 10-.1 2.8-.2 5.6-.3 8.4-.8 8.6-1.3 16.7-4.3 24.7-7.6 5-2.1 9.9-4.2 14.7-6.4 6.1-2.9 12.4-5.2 19-6.7 1.6-.4 3.2-.7 4.8-1 .5-.1 1.1-.1.8-1-.4-1.3-.9-2.6-1.2-3.9-.1-.5-.3-.7-.8-.5l-4.2 1.4c-3.4 1.2-6.2 3.5-10.1 3.6-2.8 0-5.4 2-8.3 2.4-1.7.2-3.4.8-4.8 1.9-1.8 1.3-3.9 1.6-6.1 1.2-1-.2-1.9-.2-2.7.1-2.8 1-5.7 1.3-8.6 1.7-5.9.9-11.9 1.6-17.9 1.4-3.7-.2-7.4-1.1-11.1-.8-1 .1-2-.4-2.7-1-1-.9-2.2-1.2-3.4-1.2-1.9-.1-3.8-.5-5.5-1.3-.8-.4-1.5-.3-2.2.2l-4.2 2.9c-4.1 2.8-8 5.8-11.9 8.9-.3.3-1.1.5-.4 1.2 1.3 1.2 3.2 1.1 4.5-.3 1.4-1.5 2.9-3 4.5-4.2 2.3-1.7 4.7-2.6 7.6-1-2 1.3-4.5 1.7-6.2 3.9.9-.2 1.5-.3 2.2-.4 4.7-.9 9.2-2.2 14-2.6 1.9-.1 3.4.5 4.7 1.9.3.4.7.8.1 1.1-1.1.4-2.1 1.3-3.5.6-1.6-.8-3.3-.8-5-.4l-10.8 2.7c-1.3.3-2.6.5-4 1.1zm34.4 21.5c2 2 4 3.6 5.6 5.5 2.6 3.2 5.2 6.4 7.4 9.9.7 1.1 1.5 1.2 2.7.7 9.5-3.9 17.6-9.9 24.7-17.2l10.6-11.9c3.9-4 8.4-4.9 13.6-3 1.1.4 1.2.2 1.2-.9-.2-2.5-.4-4.9-.3-7.4.1-1.4-.5-1.8-1.5-2.2-5.3-2-10.1-.7-14.7 2.2-5.3 3.4-9.8 7.9-14.9 11.6-7.8 5.8-16.2 10.4-25.9 11.7-2.8.4-5.5.6-8.5 1zm25.4 32.7c.3-.2.4-.5.3-.8-.9-2.7-1.8-5.3-2.8-8-.1-.4-.3-.8 0-1.1.8-1 2-1.3 3.2-1.3 1.2 0 2.1.5 2.7 1.6 1.1 2.2 2 4.4 3.3 6.4 1.7 2.6 1 2.6 3.7.8.4-.3.7-.6 1.1-.8 2.2-1.2 2.9-2.9 2.1-5.3-.3-1.2-.4-2.5.7-3.4 1.2-1 2.8-1.2 4.1-.4 1.6 1 2.1.2 2.8-.9.5-.8.8-1.6.7-2.6-.1-.8.2-1.5.8-1.9 1.5-.9 2-2.3 2.4-3.8.5-1.5.8-3.1 1.1-4.7 1.2-7.3 4.7-9.7 11.8-8.1 1.1.2 1.1-.5 1.2-1.1.3-2.8.9-5.6.8-8.4-.1-1.6-.6-2.2-1.9-2.6-4.2-1.2-7.9-.4-10.9 2.7s-5.4 6.7-8.4 9.9c-5.1 5.6-10.6 10.7-17.1 14.7-3.2 2-6.4 3.7-9.9 5.1-1 .4-1.5.6-.6 1.8 1.9 2.5 3.5 5.2 5.4 7.8 1.2 1.5 2 3.1 3.4 4.4zm-5.3-147.6l.2-.3c-1.8-1.1-3.6-2.3-5.4-3.2-3.8-1.9-7.6-4-11.2-6.2-5.2-3.1-10.1-6.7-15.1-10.2-8.3-5.8-17-10.9-25.5-16.4-.4-.3-.9-.9-1.3-.6-.5.4-.1 1 0 1.6 1.8 7.1 3.5 14.1 4.9 21.3.9 4.4 1.5 8.9 2.2 13.4.2 1.1.5 1.3 1.5.7 1.1-.6 2.1-1.3 3.3-1.8 8.1-3.6 16.7-4.4 25.4-3.9 1.4.1 2.9.3 4.4 0 0-.7-.9-.6-.9-1.4 5.9 2.2 12 3.9 17.5 7zm212 175.2c.2-2.5-.2-4.9-.5-7.3-.8-5.9-1.9-11.7-3.3-17.5-.5-2.2-1.5-4.3-2.1-6.4-.7-2.3-1.4-4.6-2-7-1.1-4.2-2.9-8.1-6.2-11-4.5-4-9.6-7.3-15.4-9.2-2.3-.7-4.7-1.5-7.4-1.7 1 1.9 2 3.6 2.9 5.3 1.2 2.3 2.6 4.6 3.6 7 .7 1.8 1.2 3.5 2.7 4.8 10 8.9 17.5 19.7 22.9 31.8 1.6 3.8 3.2 7.5 4.8 11.2zm-41-103.8c-.3-1.2-.2-2.1 0-3 .3-1.2.3-2.3-.8-3.2-2.2-1.9-1.5-3.9 1-5.2 1.4-.7 2.3-2.2 2.2-3.8 0-.2 0-.6-.3-.6-.2 0-.5.1-.5.2-.9 1.8-2.8 2.7-3.9 4.4-.4.6-.7.8-1.3.3-.8-.7-1.5-.5-2.2.3-3 3.4-5.4 7.2-7 11.4-.6 1.6-.8 3.2-.7 4.9.4 4.4.8 8.8 1.8 13.2.2 1.1.6 1.6 1.8 1.5 1.6-.1 3.3.1 4.9.7 5.3 2 9.9 5.2 14.2 8.9.9.8 1.6 2 2.8 2.3 2.2.6 4.3 1.1 6.8 1.9-.7-1.7-1.6-2.8-2.5-4-3.4-5.1-7.3-9.8-12-13.8-3.3-2.8-6.6-5.5-11.4-5-.1 0-.3-.1-.5-.1-1.3-.2-1.4-.9-.7-1.9.8-1.1 1.9-1.6 3.2-1.9.9-.2 1.8 0 2.6-.4 4.2-2 8.1-1.1 12 .7 1.1.5 2 1.2 3.4 1.3-1.5-3.2-3.3-6-5.1-8.9-.5-.8-1-1.4-2-1.5-.6-.1-1.2-.3-1.1-1 .2-.8-.3-1.4-.5-1.9-2.8-.4-2.8 2.4-4.2 4.2zm-235.8-49.9c-2.8-.7-5.5-.6-8.1-.6-9-.1-17.6 2.2-25.9 5.6-3.7 1.6-7.1 3.7-9.1 7.6-1.9 3.7-2.4 7.7-2.2 11.9.1 2.2.7 2.4 2.5 1.3 2.2-1.4 4.5-2.8 6.9-3.9 3.3-1.5 6.4-3.3 9.4-5.4 6-4.3 12.2-7.9 19.5-9.4 1.8-.3 3.3-1.9 4.3-3.3 1-1.1 1.7-2.4 2.7-3.8zm-10.6 119.2c-.1 4.3.5 8.5 1.1 12.8.4 3.7.9 7.4 2.6 10.9.5 1 1.2 1.3 2 1.4.8.1.9-.7 1.2-1.2 2.3-4 4.1-8.3 6.1-12.5.9-1.9.9-3.6.3-5.5-.9-2.6-.6-3.1 2.2-3.6.4-.1.8-.2 1.2-.1.8.1 1.3-.3 1.8-1 1.5-2.2 2.9-4.4 4.5-6.5.8-1 .6-1.5-.5-2-4.1-2.1-8.1-4.4-11.2-7.9-.6-.7-1.1-.5-1.7 0-1.6 1.4-3.4 2.8-4.9 4.3-5.7 5.6-4.5 3.1-4.7 10.9zm6.5-79.2c1.1.4 1.2-.2 1.4-.8.2-.8.4-1.6.5-2.4.1-.5.4-1.1-.2-1.4-.5-.2-.8.3-1.2.6-1.6 1.5-2.2 3.6-3 5.5-3.5 8.4-7.8 16.3-14.2 22.9-1.1 1.1-2.5 1.9-3.2 3.3-4.3 8.7-7.6 17.8-8.8 27.6-.1.6-.3 1.2.2 1.7.5-.1.7-.4.8-.7 3.7-5.6 8.5-10.1 13.7-14.1 2-1.6 2-1.6.5-3.7 0 0 0-.2.1-.3.5.3 1 .7 1.6 1 1 .6 1.9.5 2.7-.3 2.5-2.4 5.3-4.4 7.6-7 .8-1 2.6-1.7 2.5-2.7-.1-1.2-2-1.6-3.1-2.3-.7-.5-1.4-1.2-2.2-1.4-1.1-.3-1.4 1.1-2.1 1.6-.7.4-1.4.8-2.1.4-.9-.5-.6-1.3-.5-2.1.2-1.7 1.9-3.4-.4-5 1.7.4 1.6.4 2.3-1 .7-1.4 1-2.9 1.5-4.4.7-1.8 1.4-3.5 2.2-5.2.4 2.7-1.1 5-1.2 7.6.7-.1.7-.6.8-1 1.7-4.4 3-9 4.2-13.6.3-.9.6-1.8-.4-2.8zm211.3 70.1c.4-.5.3-.8.2-1.1-.7-2.3-.9-4.7.2-6.9.3-.7-.2-1-.6-1.4-3.6-3.6-7-7.4-10.9-10.7-4.3-3.7-8.6-7.4-13.3-10.5-4.1-2.7-8.6-3.7-13.4-3.6-2.8 0-3.6.8-3.7 3.5-.1 2.3-.1 4.6-.2 7 0 3.2 0 3.2 3 4.2 2 .7 2 .7 2.7-1.4.4-1.3 1.1-1.5 2.2-.7.5.3 1 .5 1.6.6l5.1 1.1c1.7.3 2.9 1.3 4.4 1.9 3.4 1.3 6.8 2.8 9.8 4.8 2.1 1.3 3.9 3 5.8 4.6.9.7 1.8 1.3 2.5 2.2 1.8 1.7 3.1 4 4.6 6.4zm-4.9 4.2c1 2.4 2.5 4 3.8 5.7 1.2 1.6 2.1 3.4 2.3 5.5.1.9-.2 1.7-.9 2.2-.7.4-1.2.1-1.8-.3-3.3-2.3-6.4-4.7-9.4-7.3-2.5-2.2-4.7-4.7-6.9-7.3-.4-.5-.7-1.4-1.7-.6-2.3 1.8-4.2 1.6-6.3-.5-2.3-2.3-3.1-5.3-4-8.3-.2-.5-.1-1.4-.6-1.5-.6-.1-.8.7-1.1 1.1-1.3 1.7-2.6 3.3-4.7 4.2-1.7.8-1.7.8-.4 2.3 4 4.4 8.7 8 14 10.7 1.7.8 3.3 1.7 4.9 2.8 1 .8 2.2 2 3.9 1.7.4-.1.7.2 1.1.5 1.5 1.2 3.1 2.4 5 3.2 3.5 1.4 6.8 3.1 9.7 5.5 2.3 1.9 4.7 3.8 6.2 6.5.5.9.6 2.5 1.4 2.5.8 0 1.6-1.3 2.4-2 .9-.7.7-1.3-.1-1.9-1.5-1.1-3.1-2.1-4.7-3l-.9-.5c-.5-.4-.5-1-.3-1.5.2-.6.7-.4 1.2-.4 1.6.2 3 1.2 4.9 1.6-.5-.4-.7-.6-.9-.8-3-2.1-5.5-4.8-7.6-7.8-2.1-3-3.9-6.2-5.6-9.4-.6-1.3-1.3-2.3-2.9-2.9zm-130 39c.9.5 1.3 1.2 1.6 2 .2.7.7.9 1.4.9h3.9c1.5-.1 2.9-.1 4-1.5 3.3-4.3 6.4-8.6 8.2-13.8 1.5-4.3 1.9-8.8 3.5-13 .3-.8.2-1.2-.8-.9-1.2.5-2.5.6-3.6 0-1.3-.6-1.3.1-1.3.9-.1 1.4-.1 2.8-.8 4.1-1.3 2.2-4.5 3.1-7.3 2.1-.4-.2-.9-.6-1.3-.3-.5.4-.1 1 0 1.5 0 .2.1.5.2.7 1.3 3.3 2.8 6.5 4.6 9.6.4.7.2 1-.3 1.4-1.3 1-3.4.8-5-.5-1.3-1.1-2.4-2.5-3.5-3.9-2.3-3-4.5-6-6.8-9.1-.6-.7-2.2-.8-3.2-.1-.9.7-.1 1.3.2 1.9 1.4 3.1 3.3 5.9 4.6 9 .7 1.7 1.4 3.4 2.6 4.9 1.2 1.8 1.3 2.9-.9 4.1zm-86.1-135.8c-1.5-.2-2.6.4-3.8.8-4.4 1.4-9 2.6-12.9 5-4.6 2.9-8.4 6.9-12.1 10.8-.6.6-.6 1.2-.3 2 .8 2.1 1.8 4 3 5.9.6.9 1.1 1.1 2.1.4 1.7-1.2 3.5-2.3 5.4-3.2 1.8-.9 3.7-1.6 5.1-3.4 2.7-3.5 5.5-6.9 8.3-10.4 1.7-2.5 3.6-5 5.2-7.9zm266.2 31.1c-2.5-3.6-6.8-5.6-8.3-10 .5-.1 1 .2 1.5.5 3.8 2.2 7.3 4.9 10.1 8.3 2.5 3 4.9 6.3 6.7 9.8.8 1.5 2.1 2.8 3.1 4.2 2.4 3.4 4.2 7 6.3 10.6.2.4.3 1 .9.9.4-.1.4-.7.5-1.1.3-2.8-.2-5.6-.7-8.4-.7-3.6-2.5-6.6-4.3-9.7-2.4-3.9-4.7-8-8-11.2-4.3-4.1-9.4-6.8-15-8.5-1-.3-1.7-.2-2.2.9-.5 1.3-.8 2.5-1.1 3.8-.1.5.1.9.5 1.3 1.6 1.7 3.1 3.6 4.4 5.6.2.3.5.6.8.7 1.5.7 3.2 1.5 4.8 2.3zm-26.2 68.7c3.9 2.1 7.3 4.7 10.2 7.8 5.9 6.2 10.3 13.2 13.7 21 1.8 4.2 3.4 8.5 7.1 11.5.3.2.5.6.8.7.3.2.8.5 1.1.1.2-.2.2-.7.1-1-1.1-4.4-1.8-8.8-3.2-13.1-1.2-3.5-1.9-7.1-3.2-10.6-.2-.6-.4-1.1-.9-1.6-3.3-3.7-6.7-7.2-10.3-10.5-.5-.5-1.1-.8-1.7-.9-2.2-.7-4.4-1.4-6.5-2.4-2.4-1.1-4.6-1.8-7.2-1zm-180.3 34.8h1.9c1.8-.1 2-.3 1.2-1.9-2.2-4.4-4.1-9-6.5-13.3-.2-.3-.3-.8-.7-.6-.4.2-.2.6 0 .9.7 1.4 1.1 2.9 1.5 4.4.3 1.2 0 2-.9 2.7-1.7 1.4-4.6 1-6.1-.9-.9-1.1-1.7-2.3-2.5-3.5-.4-.6-.8-.6-1.4-.2-.7.4-.8 1.1-.7 1.7 0 1-.1 1.8-.9 2.6-1.3 1.3-2.8 2.1-4.7 2-1-.1-1.8.3-2.5.9-1.9 1.7-3 3.9-4.7 5.7-.3.3-.7.7-.5 1.1.2.5.8.3 1.2.3 2.9-.2 5.8-.5 8.8-.6 3.7-.2 7.3-.5 10-3.4.4-.4 1-.8 1.7-.7.6.1 1.7-.2 1.1 1.1-.2.4.1.5.4.7 1.4.9 2.7 1.6 4.3 1zm100.4-118c-1 .3-1.2 1.2-1.6 1.9-.2.4-.1 1-.7 1.2-1 .2-1 1-1 1.8-.4 13-1.4 26-1.3 39 0 5.8-.3 11.6.4 17.3.2 1.4.8 1.7 2 1.6 1.4 0 1.1-1 1.1-1.8.5-6.9.4-13.7.1-20.6-.6-11.6.7-23 2.2-34.4.1-.9.2-1.8-.7-2.3-.9-.5-.9-1.3-.7-2.1.1-.5.5-.9.2-1.6zm88.1 129.1c.5-.1 1.4.5 1.9-.2.4-.7-.3-1.3-.6-2-2.8-6.1-6.7-11.4-10.9-16.6-.7-.8-1.2-1-1.9 0-1.2 1.6-2.5 3.2-3.9 4.8-.6.7-.8 1.5-.7 2.4.3 1.9.5 3.8.7 5.7.1.8.1 1.5-.4 2.2-1.1 1.5-.7 2.4 1.2 2.5 4.8.4 9.6.8 14.6 1.2zm-220.5-52.7c.6 0 .7 0 1.2-.8 2.4-3.5 5.3-6.4 9.2-8.2.8-.4.8-.8.3-1.4-1.4-1.9-2.8-3.8-4.1-5.8-.4-.6-.9-.9-1.4-.2-1.1 1.3-2.5 1.6-4.1 1.7-2.3 0-4.4.6-6.4 1.6-2.3 1.2-4.5 2.7-6.6 4.2-.9.6-1 1.1-.1 1.8 3.5 2.9 7.4 5.1 11.5 6.9.2.1.4.1.5.2zm4.2-18.6c-.7-.7-1.3-.7-1.9-.8-2.3-.3-4.8-.3-7-.9-3.5-.9-7.1-1.5-10.5-2.5-.9-.3-1.5-.2-2.1.7l-3.8 6.2c-.5.8-1 1.5-1.2 2.5l-1.1 6.6c-.1 1.4-.7 2.7-.2 4.4 2.2-2.2 4.3-4.2 6.6-6 .9-.7 1.7-1.4.8-2.8.9 1.4 1.7.8 2.6.2 4-3 8-6 13.1-7 1.5-.4 3-.5 4.7-.6zm20.2 11.4c-3.9 1.4-3.1.7-1.2 3.8.2.3.3.7.8.5.6-.2.7.4.6.6-.1.9.6 1.4.8 2 .5 1.1 1.8 1 2.2 1.9 1.1 2.4 2.9 2.8 5.2 1.9.6-.2 1.2-.3 1.8-.4.9-.2 1.2-.4.6-1.4l-5-8.5c-1.9-3.1-3.6-6.2-5.8-9.1-.5-.7-1.1-1-1.9-.8-1 .3-2 .1-2.9-.3-1.7-.8-3.5-.7-5.3-1-.4-.1-1.1-.2-1.3.2-.3.5.2 1 .5 1.3 1.8 2.3 3.6 4.6 5.3 7 .9 1.3 2.1 1.7 3.5 1.7.8.1 1.5 0 2.1.6zm-48 39l-.2-.8c-.9-6.6-4.5-12.2-6.9-18.3-.4-1.1-.9-.9-1.4 0-3.2 5.5-5.6 11.2-7.1 17.4-.2.7 0 1 .8 1.1 4.7.1 9.4.2 14 1.3.5.1 1 0 .8-.7zm-19.7-8.6c.4-1.2.7-2 .9-2.8 1.6-6.4 4-12.6 7.1-18.4.5-1 .6-2 .4-3.1-.5-2.8-.6-5.6-.4-8.5.1-1.4.6-2.8.1-4.2-9.2 10.7-11.4 23.1-8.1 37zm281.7 30.8c1 .1 1-.5.7-1.1-.4-.8-.9-1.5-1.4-2.2-2.9-3.6-5.9-7.3-8.9-10.9-2-2.4-4-5-7.2-6.1-.3-.1-.7-.5-1-.3-.4.3-.3.8-.2 1.1.3 1.3-.1 2.2-1.2 2.9-.5.4-.4.7-.1 1.1 3 4.2 5.5 8.7 7.8 13.3.3.6.8 1.1 1.5 1.2 3.4.6 6.7.9 10 1zm-159.4-7.5c.7-.6 2.2.4 2.5-1.1 1.1-5.5 2.2-11.1 3.3-16.7.6-2.9 1.5-5.8 2.5-8.5.6-1.6 1-3.4.9-5.1-.1-1-1.4-.8-1.9-1.6-.5-1-1-.6-1.3.2-.8 2.2-1.6 4.4-2 6.7-1.6 8.9-5 17-10.5 24.2-.3.4-.9.9-.7 1.3.3.5 1 .6 1.7.6 1.8-.2 3.6-.3 5.5 0zm-96.3-140.5c.4-1.1-.4-1.2-2-1-2 .2-3.3 1-4.4 2.8-3.4 5.1-7.3 9.7-11.1 14.5-.3.3-.9.7-.5 1.1.3.4.9.1 1.3 0 3.7-1.1 7.4-1.8 11.3-1.9 1.5 0 2.6-.3 2.7-2.1 0-.7.5-1.4.7-2 .9-3.5 1.6-7 2-11.4zm-19.3 128.2h-1.4c-1.7 0-1.8.1-1.1 1.6 1.5 3.3 3.4 6.2 5.4 9.2.5.8 1.2 1.2 2.2 1.1 1.6-.2 3.2-.3 4.8-.3 4-.2 4-.2 5.2-4l.3-.9c.4-1.4-.8-4.3-2-4.6-4.3-1.2-8.8-2.2-13.4-2.1zm152-55h.3c0-1.4.1-2.9 0-4.3-.8-10.4-2.3-20.6-4.9-30.7-2.1-8-5.1-15.7-8.1-23.4-.3-.7-.6-1-1.4-.8-1 .3-.4.9-.2 1.4 1.4 4.4 2.9 8.8 4.2 13.2 2.1 7.2 3.8 14.6 5.2 22 1.8 9.2 3.9 18.3 3.2 27.7 0 .6.2 1 .9 1 .8.1.8-.5.8-1v-5.1zm-83.6-40.6c.6 1.1 1 2 1.5 2.8.5.9 1 1.8 1.8 2.5 1.3 1.3 1.6 1.3 2.5-.3 2.8-5.3 3.8-10.8 1.3-16.5-1.1-2.5-1-2.4-3.8-1.9-1.1.2-1.4.6-1.4 1.7 0 4.3-1.1 8.3-2.8 12.2-1.2 2.7-2.4 5.3-4.4 7.4-.3.3-.4.7.2.8 2.2.1 4.4.7 6.6 0 1-.3 1.5-.8.6-1.7-1.8-1.9-2.2-4.2-2.1-7zm-38.8 105.8c1.7-.3 3.9.3 5.2-.9 3-2.7 5.8-5.7 8.6-8.6.7-.7.7-1.3-.1-2.1-3.1-3-5.7-6.4-8.1-10-.4-.6-.7-1.7-1.5-1.3-.7.4-.1 1.3.3 1.9 1.6 2.9 2.5 6 3.7 9 .9 2.2.3 3.9-1.7 5.2-1.5 1-3.2 1.5-4.9 1.6-2.6.2-5.1-.2-7.7-.8-.6-.2-1.4-.5-1.8.5l-2.1 4.3c-.7 1.6-.5 1.8 1.2 1.7 3-.2 6-.1 8.9-.5zm235.1-71.1c1.1-1.5 1.1-1.5-.3-2.7-2.2-1.9-4.5-3.8-6.9-5.4-2.6-1.8-5.4-2.9-8.5-3.4-1-.2-1.3.2-1 1.2.3.9.8 1.8 1.5 2.5 2.1 2.1 4.2 4.2 5.7 6.7 1.7 2.9 4.1 3.8 7.2 4.1 1.6.2 1.8.5 1 2.2 3.5-.8 6.6.7 9.9 1.2-1.7-2.1-3.4-4.2-5.4-5.9-1.1-.9-1.9-1.5-3.2-.5zm-139.4-60.3c-.4 1.9-.7 3.7-2 5.2-3.4 3.9-7.7 5.5-12.7 5.4-.4 0-.9-.3-1.1.2-.2.4.3.8.6 1 1.3.6 2.7 1.2 4.1 1.8.6.3 1.3.5 1.9.3 3.6-1.4 7.6-2.2 9.8-6 .2-.4.5-.9 1.1-1 .1.5-.3 1 0 1.7 1.6-.8 3-1.7 4.3-2.8.2-.2.3-.5.3-.8-.1-1-.1-1.9-.3-2.9-.1-.7-.3-1.6-1.1-2-1.8-1-3.5-1.9-5.3-2.8-.4-.2-.8-.3-1.1.3-1.7 3.4-4.6 5.4-7.6 7.5-1.8 1.2-3.8 2-6.1 1.7-.7-.1-1.1.2-1.1.9s.4.8.9.7c4.1-.9 8.2-1.6 11.4-4.7 1.3-1.3 2.6-2.5 4-3.7zm112.9 14.3c-.5-.1-.6-.2-.7-.2l-9.1 5c-.5.3-.4.7-.4 1.2 0 2.9.3 5.8.5 8.6.6 6.8 2.1 13.3 5.3 19.4.5 1 1 1.9 1.8 2.7.4.4 1 .5 1.4.2.4-.3.1-.8-.1-1.1-.1-.4-.3-.8-.5-1.1-3.3-8.4-5.1-16.9-2.4-25.8 1-3.1.7-6.8 4.2-8.9zm33.8-23.4c3.1-2.5 3.6-2.5 6.1.2.4.4.7.8 1 1.2 3.7 4.8 7 9.9 10.3 15.1 2.5 4 5.1 8 7.3 12.3 2.1 4.3 4.3 8.6 6.3 13 .7 1.5 1 3 1.6 4.5.1.3 0 .9.6.7.5-.1.6-.6.4-1-.4-.7-.3-1.5-.5-2.2-1.7-5.6-3.8-11-6.3-16.2-4.5-9.6-10.5-18.3-17.5-26.3-2.5-2.8-5-5.7-8.1-7.8-.9-.6-1.1-.4-1.3.5-.5 1.9-.4 3.9.1 6zm-232.2 39.5c-3.9-1.7-7.6-3.3-11.1-5.4-.7-.4-.7.3-1.1.7 0-.3.1-.5.1-.7 0-.9-.6-1.3-1.4-1.4-.9-.1-.7.8-.7 1.3-.4 2.7-.7 5.4-.9 8.1-.2 2.5-.6 5-.4 7.5 0 .3-.2.8.3.9.4.1.6-.3.9-.5 2.1-1.6 4.2-3.3 6.4-4.9 2.5-1.8 5.1-3.6 7.9-5.6zm198.4-25.4c0 .8.7 1.4 0 1.8-.8.4-1.1-.4-1.5-.8l-2.3-2.5c-.9-1-1.8-1.8-2.9-.3-.3.4-.8.4-1.3.5-1.5.4-3 .8-4.5 1-1.3.2-2.6.2-3.8-.2-.3-.1-.7-.5-1-.2-.3.3-.1.8-.1 1.2.3 1.3.5 2.5.5 3.8 0 .6 0 1.2.4 1.6 1.9 2 4.4 3.1 6.9 4 1.3.5 2.4-.8 3.5-1.3l.7-.3c2.3-1.1 4.7-2.2 7.1-3.2 1.4-.6.8-2 1.2-2.9.3-.8-.7-1-1.2-1.3-.4-.2-1-.5-1.7-.9zm-227.5 7.2h-.6c-4.9.6-9.4 2.2-13.9 4.2-.3.1-.6.4-.9.6l-6.6 7.8c-.5.6-.5 1.1.1 1.6 1 .9 2 1.8 2.9 2.8.9.9 1.6.8 2.4-.2 1.8-2.2 3.6-4.4 5.5-6.5 3.4-3.7 7.1-7.1 11.1-10.3zm235.9 59.2c.1-1.3-.1-2.4-.7-3.6-1.3-2.8-3.6-4.6-6.1-6.2-1.5-.9-1.7-.8-1.7.9-.2 4-1.9 7.1-5.6 8.9-.9.4-.8.7-.2 1.4 2.4 2.7 5.5 3.1 8.8 2.6 1-.2 1.9-.4 2.9-.5 2.3-.3 2.3-.3 2.5-2.6.1-.3.1-.6.1-.9zm-5.7-59.3l-.3-.2c-.5.9-2 .9-1.9 2.2.2 3.3-.8 6.4-1.5 9.6-1.6 7.1-.3 14 1.7 20.9.4 1.4.7 2.5 2.8 2.3 1.2-.2 1.2-.4 1-1.3-1.4-7.7-1.8-15.5-1.7-23.3-.1-3.4-.1-6.8-.1-10.2zm-27.2-44.5c.1-1.5-1.4-1.7-2.2-2.2-.6-.3-1.5-.4-2.1.3-1 1.2-2.1 2.4-2.9 3.8-3.5 6.4-6.6 12.9-10.4 19.1-.3.4-.8 1.1-.3 1.5.4.3 1.1 0 1.6-.5 2.5-2.3 5-4.6 7-7.4 3.1-4.4 5.9-8.9 8.9-13.4.1-.3.4-.7.4-1.2zm-25.5 104c.1.2-.3 1.2.5.8 2.2-1.2 1.7.9 1.9 1.7l.6 4.3c.4 2.1 1.7 2.6 3.4 1.2 1.4-1.1 2.6-2.5 3.5-4.1.4-.7.8-1.3 1.4-1.9.8-.8 1.3-.8 1.8.3.8 1.7 1.4 3.6 1.8 5.4.7 2.6 1.6 5 4.4 6.1.5.2 1 .7 1.6.1.5-.5-.1-1-.2-1.4-1.2-2.9-2.2-5.8-1.4-9 .3-1-.4-1.4-1.2-1.7-2.2-.8-4.4-1.5-6.7-2-.4-.1-.9-.3-1.3.1-.9.7-2 .7-3.1.5-2-.2-4-.7-5.8-1.6-.9-.3-1.4 0-1.2 1.2zm-181.7-10.8l-.7.3c-5 3.5-9.6 7.5-13 12.6-1.9 2.8-4 5.5-3.6 9.3.2 2 .2 4 .3 6 0 .9.1 1.8.4 2.8.2-.3.3-.4.4-.5l.3-1c1.7-8.9 5.9-16.4 12.4-22.8 1.8-1.9 2.2-4.5 3.5-6.7zm56.8 40c-.9-1.5-2.1-2.9-2.8-4.5-.8-1.8-2.2-2.1-4-2.2-5.7-.1-11.1-1.6-16.5-3.4-1.1-.4-1.5-.1-2 .8-1.3 2.6-2.7 5.1-4.1 7.7-.3.5-.5 1 .1 1.5s1-.1 1.5-.4c3.2-1.9 6.4-3.7 10.4-3.2 1.8.2 3.4.8 5 1.4 1.2.4 1.5-.1 1.1-1.1-.6-1.6.4-2.2 1.7-2.5 1.8-.4 3.4 0 4.7 1.3l4.9 4.6zm13.1-34.7c1.8-.5 3.4-.9 5-1.3.5-.1 1.2-.2 1.5-.7 2.9-4 3.9-8.2-.4-12.5-.8-.8-1.6-1.6-2.7-.5-.2.2-.6.3-.7.2-1.5-.8-2.7.2-4 .5-1.7.4-1.7.4-.5 1.7 3.1 3.5 4.5 7.3 2 11.7-.1.2-.1.4-.2.9zm132.8-65.6c-1.9.7-3.7.7-5.5.3-1.3-.3-2.7-.1-4-.2-1.3-.1-2.9-.5-4.2-1.1-1.7-.7-3.8.5-4.3 2.3l-.9 3.1c-.3.9 0 1.1.9 1 6.1-1.1 12.3-1.1 18.4-2.1.4-.1.8-.1.9-.6.7-2.2 1.5-4.5 2.3-6.9-3.1.1-6 .5-8.8 1.2 1.9.5 3.8 1.2 5.2 3zm34.4 91.5c0-.7-.3-1.4-1-2-.9-.7-1.7-1.5-2.4-2.4-1.9-2.7-3.8-5.3-6.6-7-.3-.2-.6-.7-1-.5-.5.2-.5.8-.5 1.2 0 1.3.2 2.7.7 3.9 1.2 3.1 2.6 6.2 4.4 9 .3.4.5.9 1.2.8 1.9-.2 3.2.8 4.4 2.1l2.8 2.9c.4.4.8 1.1 1.3.9.6-.3.8-1.1.7-1.7-.2-1.1-.4-2-1.6-2.6-1.7-1-2.9-2.3-2.4-4.6zm-240.9-6.7l.4.1c1.7-2.8 3.2-5.6 5-8.3 2.5-3.7 4.5-7.6 4.9-12.2 0-.4.3-.9-.1-1.1-.3-.2-.7.1-1 .3-1.1.7-2.2 1.5-3.4 2.2-2.8 1.9-5 4.1-5.6 7.7-.6 3.8-1 7.5-.2 11.3zm51.7 6.1l1.1.1c.5 0 1.3.4 1.6-.1.3-.5-.3-1.1-.6-1.6-1.3-1.9-2.6-3.7-3.7-5.6-1.4-2.4-2.2-2.8-5.4-1.6-2.5 1-4.4 2.9-6.3 4.8-.7.7-.5 1 .4 1.3 4.1 1.7 8.4 2.5 12.9 2.7zm26 16.7h.8c1.8-.1 1.8-.2 1-1.7-.8-1.6-1.7-3.1-2.6-4.7-1.5-2.8-3.1-5.5-4.9-8.2-.4-.6-.7-1.3-1.7-1l-4.2.9c-.8.2-1.1.8-.8 1.3.5.8.6 1.8 1.5 2.2 1.2.7 2 1.9 2.9 3 1.8 2.3 3.6 4.7 5.3 7.1.8 1 1.6 1.4 2.7 1.1zm20.3-165.5c-.7 2.3.8 3.6 3.4 4.3.4.1.9.3 1.2.6.5.5.9.5 1.2-.2.5-1.1 1.2-2.2 1.6-3.3.3-1-.1-2-.7-2.8-.4-.6-1.2-.5-1.8-.2-.4.2-.8.7-1.2.1-.3-.4.1-.9.4-1.2 1.1-1 .9-2 .1-3-.2-.2-.3-.5-.4-.8-.1-.3-.2-.6.1-.8.3-.3.6-.1.8.1l1.2 1.2c.5.5 1.1.8 1.8.4s.3-1 .3-1.5c-.1-2.1-1.4-3.6-2.5-5.3-.8-1.3-1.5-1.3-2.2 0-2.4 3.6-3.5 7.5-3.3 12.4zm59.1 18.3c.9-.4.3-1.4 1.1-1.7.5.2.5.7.5 1.1.1 3.9.5 7.9.3 11.8 0 .6.1 1.3.4 1.8.4.6.8 1.4 1.7 1.4.9 0 1.1-.8 1.3-1.6.5-3 .4-6 .6-9.1.2-3-.1-6 .7-8.9.2-.6.1-1.3.2-2 0-.6-.2-.7-.8-.7-1.7.2-3.5.3-4.3 2.3-.2.4-.5.8-.8 1.1-1.4 1.4-1.3 2.9-.9 4.5zm-16.8-40.7c-4.5 3.6-8 7.7-10.4 12.7-.4.8-.1 1.2.6 1.4 1.3.4 2.5 1 4.1.8.9-.1 2.2.4 3.4.5 1.2.1 1.4-.3 1.4-1.4-.1-3.7-.1-7.4.7-11.1.1-.9.5-1.7.2-2.9zm-93.1 134.2c.5 1.2 1.1 1.6 2 1.7 1.1.1 2.2.3 3.3.5.4.1 1.1.2 1 .7-.1.6-.7.4-1.2.5-2.6.3-2.6.4-2.5 2.8 0 .5 0 .9-.1 1.4-.1.7.1 1.2.6 1.6 1.3 1 2.5 2 3.8 2.9 2.3 1.3 4.2.4 4.4-2.1.3-3.5-.8-6.6-2.8-9.4-.3-.4-.6-.5-1.1-.5-2.2-.1-4.7-.1-7.4-.1zm234 7.5c.5-.6.2-1 .1-1.3-1.9-4.6-3.8-9.2-6.1-13.6-.8-1.4-1.3-3.5-2.5-4.1-2.2-1.2-3.6-3.2-5.6-4.4-2.1-1.3-4.3-2.4-6.8-2.9-.4-.1-.8-.3-1.1.2-.2.5.2.7.5 1 .2.2.4.3.6.4 6.5 4.5 11.4 10.5 15.8 16.9 1.8 2.4 3.3 5.1 5.1 7.8zm-56.5-8.4c-.2 2-.1 4.1-1.3 5.6-1.7 2.4-1 4.1.8 5.9.5.5.8 1.1 1.2 1.6 1.1 1 2.2 2.4 3.8 2 1.5-.3 1.7-2.1 1.8-3.3.6-5.5-.5-8.6-6.3-11.8zm-147.3-34.8c0 5.7-1.5 10.1-4.8 13.8-.7.8-.4 1 .3 1.2 2.1.7 5-.2 6.3-2.1 2.4-3.7 2.6-7.7 1.8-11.9-.4-2-1.2-3.9-2.3-5.7-.4-.7-1.1-.8-1.7-.6-.8.3-.2.9-.1 1.3.4 1.6.5 3.2.5 4zm109.5-11.7c.7 1.2.7 2 .4 2.8-.4 1.1.1 1.5.9 1.9 1.4.6 2.7 1.3 4 2 .9.5 1.6.4 2.5 0 3.6-1.7 7-3.7 10.9-4.6.8-.2 1.5-.3 1.3-1.4-.2-1.2-1-.7-1.7-.7-5.9.3-11.8 1.5-18.3 0zm-105 26l.6.1 2.7-.4c4.1-.8 4.3-.8 4.8-5 .6-4.8-.3-9.2-4.7-12.2-.3-.2-.6-.6-1.1-.4-.6.3-.3.8-.2 1.2 1.4 5.7 1.4 11.2-2.2 16.3l.1.4zm-41.7 67.8c-2 .2-3.6 1.2-5.3 2.1-1 .5-1.1 1-.4 1.9.8.9 1.5 1.9 2.1 2.8 1.9 2.9 4.3 5.5 6.7 8.1.6.7 1 .6 1.5-.2.4-.7.6-1.3.4-2l-3.9-11.9c-.2-.6-.5-.9-1.1-.8zm31-38.5c0-2-1.6-5.3-3.5-7.6-1-1.1-2-1.7-3.5-1.2-.8.2-1.6.3-2.4.3-1.2 0-1.2.5-.7 1.4.9 1.5 1.5 3.2 1.6 5 0 2 1.3 2.8 2.7 3.6.7.4 1.5.7 2.3.9 2.2 1 3.5 0 3.5-2.4zm132.5-14.3c1.3 2 2.7 3.7 4.4 5 1.3 1 1.8.8 2.2-.7 1.9-6.7-.7-11.5-6.9-14-.3-.1-.6-.4-1 0 1.5 3.2 1.3 6.4.5 9.7-.1.3-.8.8 0 1.1.8.3.5-.6.8-1.1zm-118.8 14c1.1-.5 2.5-.2 2.2-2 0-.3.2-.7.9-.5 2.1.6 3.7-.5 4-2.7.4-3-.7-5.5-2.6-7.8-2-2.4-2-2.4-4.8-1.3l-1.6.6c-1.1.3-1.1.7-.2 1.5 2.6 2.3 3.7 5.3 3 8.8-.3 1-.6 2-.9 3.4zm71.9-109.8c1.8-2.5 3.5-5 4.5-7.8.2-.7-.1-1-.7-1-3.2-.3-6.5-.2-9.6.7-.6.2-.8.4-.7 1.1 1 3.8 1.9 7.6 2.8 11.4 0 .1.2.1.4.1.2-.9 1.4-1.2 1.4-2.3 0-1.8-.2-3.5.9-5.1.1.8 0 2 1 2.9zm23.5 19c.9-.9 1.3-1.8 1.9-2.7 1.3-2.3 2.5-4.7 4.1-6.9 1.4-2 1.9-4.4 2.4-6.8.2-1-.4-.7-.9-.5-2.3 1.2-4.7 2.4-6.5 4.4-.3.3-.5.7-.7 1-1.2 3-2.2 6.1-2.9 9.3-.2.8-.2 1.3.9.8 1.1-.4 1.9-.2 1.7 1.4zm40 83.1c.2-3.6-1.3-6.6-4.3-8.8-.2-.2-.4-.5-.8-.4-.3.2-.2.5-.2.8.2 3.5-.6 6.6-2.9 9.3-.3.3-.5.6 0 1l5 4c1.2.9 1.8.8 2.4-.7.6-1.4.9-3.2.8-5.2zm-91.8-112.8c.2 2.8.8 5.4 1.5 7.9.9 3.1.9 3.1 3.4 1.2.1-.1.2-.2.4-.3 1.1-.4 1.2-1.1.6-1.9-.7-.9.4-1 .6-1.3.3-.5.7.1.9.4.3.4.5.9 1.1.6.5-.3.3-.8.2-1.3-.4-2.2-1.1-4.4-1.9-6.5-.9-2.4-.4-2.5-3.1-1.5-.8.3-1.6.6-2.5.9-1 .3-1.5.9-1.2 1.8zm82 83.9c-.2 4.3.9 8.2 3.1 11.8.7 1.2 1.9 1.9 3 2.6.6.4 1.1.2 1.5-.2.5-.5.2-1-.1-1.4-.8-.9-1.1-2.1-1.4-3.2-1.1-3.6-1.4-7.4-1.3-11.1.1-1.7-.7-2.2-2.1-1.9-.9.2-2-.8-2.6.1-.5.7-.2 1.9-.1 2.9v.4zm-66.1-44c-.1-.6-.1-1-.2-1.3-1.9-5.8-3.2-11.9-5.3-17.7-.9-2.5-2-4.9-2.6-7.4-.2-.9-.1-2.1-1-2.5-.8-.3-1.4.7-2 1.2-1.5 1.1-1.6 1.5-.6 3 .5.7.9 1.5 1.2 2.3 1.9 4.3 3.4 8.7 5.4 13 1.6 3.1 3.2 6.2 5.1 9.4zm37.2 97.6c.3-.6.2-1.1.1-1.5-.9-4.4-.9-8.9-1.3-13.3-.1-.8 0-1.7.5-2.2.9-.8.8-1.7.8-2.7v-13.5c0-1.3-.3-2.6-.4-3.9-.5.9-.6 1.8-.7 2.7-.6 6.2-1.3 12.4-1.8 18.6-.4 4-1 8.1-1 12.1 0 .8.2 1.2 1 1.6.9.5 2.1.9 2.8 2.1zm-154.1 44.8c2.5.1 3.4-.7 3.1-2.2-.7-3.5-2.4-6.6-4-9.8-.5-1.1-1-.9-1.5.1-1.3 3.1-2.7 6.2-4.1 9.3-.2.5-.4 1 .4 1.2 2.1.6 4.2 1.2 6.1 1.4zm258-110.6h.2l-2.3-3.7c-3.5-5.3-7-10.6-11.3-15.3-.5-.6-1.1-1.2-2-.9-.9.3-.2 1.2-.4 1.9-.5-.3-.1-1.3-1-1.2-.7.1-.5.8-.7 1.2-.8 1.3.1 2 1 2.6 3.2 2.4 6.1 5.3 9 8.1 2.4 2.3 4.9 4.8 7.5 7.3zm-96.6 22.1c.9.7 2 .9 2.7 1.8 2 2.6 2.8 5.5 1.9 8.7-.3.9-.2 1.3.8 1.5 1.4.4 2.9.5 4.3 1 .8.3 1.1-.3 1.2-.9.4-3 .1-5.9-1.7-8.6-2.3-3.3-5.7-4.2-9.2-3.5zm105.6 36.9c-.3-1.9-.7-3.7-.9-5.6-.3-2.7-1.5-4.9-3.3-6.8-.4-.4-.7-.9-1.3-.5l-2.9 1.8c-.4.3-.6.7-.4 1.2.9 2.5 1.7 5 3.3 7.2 1.1 1.4 2.5 2.4 3.7 3.6.4.4.8 1 1.4.7.7-.4.4-1.1.4-1.6zm-203.7-56.6c3.2 5 3.6 10.1 1.4 15.6 1.5 0 2.8-.4 4.1-.7 2.2-.5 3-1.5 3-3.7 0-.8-.2-1.6-.3-2.4-.5-2.7-2.4-4.6-4-6.7-1.1-1.4-2.3-2-4.2-2.1zm-6.3-5.2c2.9-.6 5.8-.7 8.1-2.5.3-.3.9-.5.7-1.1-.2-.4-.7-.3-1.1-.3-4.2-.2-8.1-1.2-11.3-4-.7-.6-1.1-.4-1.5.2l-2.2 3.1c-.7.8-.4 1.2.5 1.6l5.6 2.7c.4.1.9.2 1.2.3zm157.8 12c2.9-5.5 7.5-9.3 12.5-13.3-.7-.1-.9-.2-1-.1-3.4 1-6.7 2.1-10.2.4l-.3-.1c-.8-.2-1.1.1-1.1.9 0 1.4 0 2.9-.1 4.3-.1 2.6-.2 5.2.2 7.9zm61.8 77.5c.2-2 .4-3.8.4-5.6 0-2-.5-3.8-2.7-4.8-.7-.3-1.4-.8-2-1.4-1.9-1.6-3.6-3.4-5.2-5.2-.3-.3-.5-.9-1.1-.6-.6.3-.4.8-.4 1.2-.1 1.3.3 2.5 1.2 3.6.7.8 1.4 1.6 2.1 2.5 2.5 3.3 5 6.7 7.7 10.3zm-208.8-43.9c1.9-1 3.3-2 4.6-3.1.3-.2.7-.5.4-.9-.7-.9-.3-1.8-.3-2.7 0-1.9-.6-3.6-2.1-4.8-.8-.7-1.8-1.5-3.1-1.1l-3 1.3c-.9.3-.8.7-.3 1.3.7.7 1.3 1.5 1.9 2.3 1.8 2.2 2.1 4.8 1.9 7.7zm124.2 37.8c0-.9-.4-1.4-.6-1.9-1.3-2.6-2.5-5.3-3.8-8-.4-.9-.6-1.8-.3-2.8.2-.5.3-1-.3-1.4-1.6-1.1-3.2-2.2-4.9-3.3-.4-.3-1-.4-.9.4.2 2.1-.1 4.3 1.1 6.2 2.6 4.2 5.8 7.6 9.7 10.8zm-93.6-8.1c.8-1.4 1.2-2.4.9-3.7-.5-2-1-4.1-1.4-6.2-.6-2.8-.3-3.1 2.5-3.3.4 0 .9-.1 1-.5.1-.5-.3-.7-.7-.9-1.4-.5-2.9-.9-4.4-.6-2.9.5-5.1 3.9-4.8 7.7 3.6-.9 4.2-.5 5.3 3.2.5 1.3 1 2.6 1.6 4.3zm170.7-39.8c-2 3.6-2.7 6.7-.4 10 1.5 2.1 2.6 4.4 3.9 6.6.4.6 1 1.2 1.9.7.8-.5 1.1-1.2.7-2.1-.9-2.1-1.7-4.3-2.6-6.5-1.1-2.8-2.2-5.6-3.5-8.7zm-94.4-21.6c-.1 1.7.5 4.5 1.5 7.2.6 1.7 1.8 2.4 3.3 3 .8.3 1.1.2.9-.7-.4-1.5-.7-3-.7-4.6 0-2.5-.7-5 .5-7.4.3-.6 0-.7-.5-.8l-1.5-.3c-3.2-.8-3.2-.8-3.5 3.6zm-97.4-6.9c-.3 0-.5 0-.7.1-2 .1-2.8 1.3-2.2 3.1.9 2.5 1.3 5 .3 7.5-.4.9.2.8.8.7 1.1-.3 2.3-.7 3.4-.9 1.5-.2 1.9-1.1 2-2.5.1-2.4-.7-4.6-1.6-6.7-.4-1-1.1-1.5-2-1.3zm182.3 104.2c.1-.4.2-.6.1-.8-1.4-2-1.9-4.5-3.2-6.6-2-3.3-4.1-6.5-6.3-9.7-1-1.6-2.2-3.1-3.3-4.6-.2-.3-.5-.7-1-.4-.4.3 0 .6 0 .9l.8 2.1c.3 2 1.1 4 2.1 5.7 1.8 3 4.3 5.4 6.3 8.3.6.8 1.8 1.2 1.4 2.6 1.6.1 1.8 1.8 3.1 2.5zm-146.8-61.6l-.4 8.1c0 1.3-1.3 2.9-.2 3.7.8.6 2.6 0 3.9.1.9 0 1.1-.4 1.1-1.2 0-2.7 0-5.4-.3-8-.5-4-1-7.9-2.3-11.8l.8 17.1c-1.5-2.5-1.2-5.4-2.6-8zm-109-3.6c-.8.1-2.1.1-3.4.4-1.1.2-2.9.1-3.2 1-.4 1 1.1 1.9 1.9 2.8 1.2 1.3 2.5 2.7 4.3 3.2 1.5.4 2 0 2-1.5l.1-1.5c0-.4.2-.7.7-.4.9.7 1-.1 1.1-.7.5-2.5 0-3.2-2.5-3.2-.2-.1-.4-.1-1-.1zm254.4-10.8c-1.8-4.2-11.4-14.6-14.1-15.4 1.5 3.4 3 6.7 4.8 9.8.2.4.6.7 1 .9 2.9 1.2 5.5 2.8 8.3 4.7zm17.1 37.2c-.7-5.2-2.1-10.1-4.6-14.7-.6-1.1-1.2.1-1.8-.2-.6-.2-.4.5-.4.9l-.1 4.9c0 .5 0 1 .3 1.5 1.6 3.1 4.4 5 6.6 7.6zm-123.2-90.8c-1.2.6-1.8 1.7-2.9 1.6-1.1 0-1.3.5-1.6 1.3-.2.7-.4 1.4-.5 2.1-.3 4.5-.6 9-.9 13.6-.1 1.2-.3 2.5.1 3.8.9-.4 1.1-1 1.2-1.8.7-4 1.1-8 2.1-11.9.8-2.8 1.5-5.6 2.5-8.7zm-57.3 21.9c-.5 0-.7.3-.9.6-.8 1-1.8 1.7-2.9 2.2-.9.4-.8.8-.4 1.5.8 1.4 1.4 2.9 1.5 4.5 0 1 .4 1 1.1.7 1-.4 2.1-.8 3.2-1.2.8-.3 2-.3 2.4-.9.4-.7-.6-1.5-.9-2.3-.1-.2-.2-.4-.2-.6-.2-1.7-1.5-2.7-2.3-4.1-.2-.2-.5-.3-.6-.4zm15.9-16.7c3.1 9.3 6.4 18.5 8.8 28.3.7-1.7.8-3 .5-4.3-1.8-6.9-3.9-13.8-6.2-20.5-.5-1.6-1.1-2.9-3.1-3.5zm85.5 43.4c-.8-4.1-1.4-8.3-1.6-12.4l-.3-5.7c0-.4.1-1-.5-1.1-1.2-.3-2.6.8-2.5 2.1.2 2.4.3 4.8.7 7.2.5 3.6 1.7 7 4.2 9.9zm-205.1-110.2c0-.1-.1-.4-.2-.6-.8-2.7-1.5-5.4-2.5-8-1.2-3.3-1.9-6.9-3.8-9.9-.3-.5-.6-1.1-.3-1.6 1.2-1.8-.3-2.3-1.4-3-.3-.2-.7-.4-1-.2-.3.3-.1.7 0 1 .6 1.8 1.1 3.6 1.7 5.3l6.1 17.2c.1.4.2 1 .8.9.5-.1.6-.5.6-1.1zm96.9 28.8l.3-.4c-1.2-1.7-2.4-3.5-3.5-5.2-1-1.6-1-1.7-2.7-.5l-.5.3c-.8.3-1.6.4-2.1-.4-.6-.9.2-1.3.8-1.8.2-.2.4-.3.6-.4.7-.6 1.4-1.2.9-2.2-.5-1-1.1-2.2-2.1-2.6-.6-.2-.8 1.3-1.3 2l-.3.6c-1.4 3.2-1.4 3.2 1.3 5.5 2.6 2.2 5.7 3.4 8.6 5.1zm-123 171.8v1.8c0 .6.3 1 1 1 1.9 0 3.8-.2 5.6-.7.7-.2 1.1-.7.4-1.3-2.1-2.1-3.5-4.8-5.2-7.2-.2-.2-.3-.6-.6-.6-.4.1-.5.5-.5.9-.3 2-.9 4-.7 6.1zm118.8-106.6s0 .4-.1.7c-.3 1.2.1 1.5 1.2 1.2.9-.3 1.9-.6 2.8-.8 1.1-.3 1.4-1 1.3-2.1-.3-1.9-1.2-3.6-2.3-5.2-.9-1.1-1.9-1.5-3.4-1.3-1 .2-1.2.5-.8 1.4.8 1.9 1.3 3.7 1.3 6.1zm-65.4 38.2c-.3-1.4-.3-3.2-2-4-1.3-.7-2.8-.9-4.3-1.3-.6-.2-1-.1-1 .7-.1 1.2-.4 2.3-.7 3.5-.2.6-.2 1 .6 1 1.6.1 2.9.8 4 2 .6.7 1.6 1 2.6.6.9-.5.7-1.5.8-2.5zm57.1-12.1c1.4-1 3-1.8 3.5-3.1 1-2.4-.6-5.9-2.9-7.1-.3-.2-.6-.4-1-.2-1.4.6-2.9 1.2-4.4 2.1 4 1.3 4.9 4.4 4.8 8.3zm45.8-101l-.1-2c-.5-2.9-.7-3-3.3-1.8-.7.3-1.2.6-1 1.6l1.8 10.5c.1.7.4 1.9 1.1 1.8.9-.2.3-1.3.3-2 .1-.9-.8-1.9 0-2.8 1.3-1.6.8-3.7 1.2-5.3zm37 92.5v3.4c0 3.1 0 3.1 3 2.1.6-.2 1.4-.2 1.4-1.2.1-3.7-.7-7.1-3.2-9.9-.2-.3-.3-.9-.9-.6-.4.2-.3.7-.3 1.1v5.1zm-101.5 65.2c.7-.1 1.4-.1 1.9-.6.2-.3-.1-.7-.3-1-3.1-4.6-6.3-9.2-9.4-13.9-.2-.4-.4-1-1-.6-.6.3-.6.9-.2 1.5l1.6 2.6c2 3.9 4.2 7.7 6.5 11.5.2.6.5.4.9.5zm-76.6-26.9l-.4-.1c-2 3-3.7 6.2-5.6 9.2-1 1.7-.2 2.9.3 4.4.2.5.5.5.8.1 1.4-1.8 3.3-3.5 3.9-5.7.8-2.5.7-5.3 1-7.9zm13.3-50.3c-.7 1.4-1.5 2.6-1.9 3.9-.7 2.6-1.8 5.1-3.1 7.4-.2.3-.6.8-.2 1.1.9.7 2 1.7 3.1 1.4 1.1-.2 1.9-1.2 1.9-2.6.1-3.2-.1-6.4.3-9.6.2-.4.4-.9-.1-1.6zm244.6 63.6c.8.2 1-.1.7-.9-.4-1-.9-2.1-1.9-2.7l-6.2-3.7c-.4-.2-1-1.1-1.4-.4-.4.8-1.4 1.8-.5 2.8 2.5 2.7 5.4 4.8 9.3 4.9zm-59.6-79.9c.2 1.1.1 2.1-.1 3-.1.4-.1.8.5 1 .7.2 1.4.5 2.1.3.5-.2.1-.8-.1-1.2-.6-1.6-.9-3.2-1.1-4.8-.1-1-.5-1.2-1.3-.6-1.5 1-3.2 1.5-4.8 2.1-1.4.5-2.7 1.1-4.4 1.9 2.1.9 3.9 1.2 5.7 1.6 2.2.5 2.1.9 2.6-1.5.2-.7.3-1.2.9-1.8zm-153.5 19.1c3.3 1.4 4.3 1.4 5.5-.3 4-5.4 6-11.4 6.1-18.1 0-.6 0-1.3-.7-1.3-.9 0-.4.8-.4 1.3 0 5.8-1.4 11-5.8 15.1-1.4 1.2-3 2.2-4.7 3.3zm58.2 3.8c-1.5.6-3 1.1-4.4 1.8-.7.3-.2.6.1.9 1.2 1 2 2.2 2.6 3.6.3.7-.1 1.8.7 2 .7.2 1.4-.8 2.1-1.2 2.5-1.5 2.7-2.2 1.4-4.8-.3-.5-.6-1-.9-1.4-.4-.5-.9-.8-1.6-.9zm132.2-108l.3.3 2.2-2.7c.1-.2.3-.6.5-.4.9 1.2.9-.1 1.2-.4 1.1-1.2 1.8-2.7 2.6-4.1.7-1.2 1.6-2.1 2.8-2.7.5-.2.5-.5.4-.9-.4-1.7-.9-3.4-1.4-5.5-1.3 1.8-2.1 3.4-2.7 5.1l-1.6 5.1c-.1.4-.7 1.1-.7 1-.4-.8-.6-.3-.8.1-1 1.7-1.9 3.4-2.8 5.1zm-15.2 72.2c-1.5-.8-2.7-1.5-3.9-2.1-1.4-.7-2.9-1-4.4-1.3-1.2-.2-2.3.2-3.2.7-.5.3.5 1.5.6 2.3.2 1.4 1 1.9 2.4 1.7 2.6-.4 5.3-.8 8.5-1.3zm-28.1 30.4c-.2-1.2-.4-2.4-.5-3.6-.2-2.3-.8-4.8 0-6.9.8-2-.3-1.9-1.4-2.3-1.1-.4-1.5-.1-1.8 1.1-1 4.6.6 8.4 3.7 11.7zm-34.4-90.4c.1.6-.5 1.6.2 1.9l3.7 2.2c.6.2.9.2 1.2-.5.5-1.4 1-2.8 1.6-4.2.3-.7-.3-.9-.8-1-1.1-.2-2.1-.5-3.2-.6-2.5-.3-2.5-.3-2.7 2.2zm24.6 45.4c-1.2.8-2.2 1.5-3.2 2.2-.7.5-1.2 1-1.4 1.9-.5 2.6-1.2 5.2-1.8 7.8-.1.6-.7 1.3.1 2.3 2.1-4.7 5.8-8.6 6.3-14.2zm-18.5-25.6c1.5-1.8 2.1-3.6 3.3-5.2.9-1.2 1.2-2.5 1.3-3.9.2-1.9.2-1.9-1.7-1.6-1.3.2-2.5.4-2.5 2.2-.1 2.8-.6 5.4-.4 8.5zm-139.1 29.4c.2-1.1-.2-2.2-.2-3.4l-.7-6.9c-.1-.8-.6-1-1.2-1.1-.5-.1-.6.3-.6.7v7.9c0 1.4.1 2.7.9 3.9.5.6 1.1 1.5 1.7 1.4.8-.2.2-1.2.2-1.8 0-.3-.1-.5-.1-.7zm-.1 11.2c0-.7-.1-1.5 0-2.2.5-1.9-.4-3.5-2.2-4.1-.4-.1-.8 0-.8.4 0 .5-.3 1-.2 1.6.2 1.4.6 2.9-.5 4.3-.4.5.4 2.6.9 2.8 2.4.8 3 .4 2.9-2.2-.1-.2-.1-.3-.1-.6zm156.5-32.9c2.9-3.1 5-6.9 7.8-10.1.5-.6.2-.8-.5-.9-2.8-.3-4.3.8-5.1 3.5-.7 2.4-1.4 4.9-2.2 7.5zm63.9 114.1c-.2-.8.5-2-.9-2.6-1.5-.6-3.1-1-4.7-1.4-1.1-.3-1.2.7-1.6 1.3-.5.7 0 1 .5 1.3l4.3 3c.7.4 1.4 1.5 2 1.1.8-.4.5-1.7.4-2.7zm-61.1-66.1c-.6 0-.5.4-.6.7-1.5 4.5-.5 8.7 1.5 12.8.2.5.7 1 1.2.7.6-.3.1-.8-.1-1.2-1.6-3.5-1.3-7-.2-10.5.4-1.3-.5-2.5-1.8-2.5zm-14.6-73.1c-.1-2.1-.8-2.8-2.8-3-.4 0-.8-.1-.9.4-.5 1.9-.7 3.8-.8 5.8 0 .2.2.4.4.6.8 1.1 1.9.7 3 .6 1-.2.8-1.1.9-1.7.1-1 .2-1.9.2-2.7zm-57.3 90.4c2.5 1.4 3 2.2 3.6 5.4.2 1.3 1.2.8 1.9 1 .7.2 1.3-.1 1.3-.9.1-2.1.2-4.1-1.3-5.9-.5-.6-1-.9-1.7-.7-1.1.3-2.3.6-3.8 1.1zm195.1 65.2c-.2-2.9-1.3-5.1-2.2-7.4-.6-1.6-1.2-3.1-2.2-4.5-.2-.3-.2-.7-.7-.7-.7.1-2.1 2.7-1.7 3.2 2.2 3 4.4 6 6.8 9.4zm-320 10.8c.4-.8.7-1.3.9-1.8 1.5-3.7 3.3-7.2 5.3-10.7 1-1.7.9-2.9-.5-4.5-1.9 2.5-5.6 13.5-5.7 17zm126.1-70.3c-.3-1.1-.8-2.1-1.3-3.1-1-2-4-2.5-5.5-.8-.2.2-.3.4-.1.5 1.4 1.3 1.8 3 2.6 4.6.5 1 2.1-.3 3.2-.3.6 0 1.2-.1 1.1-.9zm37.2-.2c.6-7.3 1.1-14.2 1.6-21.2-1.4 2.1-3 4-2.5 6.9.6 3.9.6 7.8.4 11.7-.1.8 0 1.5.5 2.6zm-70.9 83c.3-.4.1-.7 0-1l-3.6-7.6c-1.4-3.2-1.5-3-4-2.8-1.2.1-.9.6-.5 1.2l3.6 4.8c1.5 1.9 2.7 3.9 4.5 5.4zm-80.3-28.5c-.3.1-.4.1-.5.1-2.8 2.7-3 3.6-1.5 7.1.9 2.1 1.9 4.2 2.9 6.4-.5-4.5-.6-9-.9-13.6zm122.9-77.2v-7.5c0-.5-.1-1.2-.9-.6-1.8 1.4-3.9 2.5-5.7 4.2 2 .2 2.4 2.1 3.8 2.8.3-.5.2-.9 0-1.3-.2-.5-.1-1 .3-1.2.4-.1.7.3.9.7.6 1 1.1 1.9 1.6 2.9zm151.7 34c.8 2.6 2.3 4.7 2.9 7.2.6 2.9 1.4 3.1 3.7 1.1.1-.1.2-.1.2-.2.5-.4.6-.8.1-1.4-1.7-1.8-3.2-3.8-5.1-5.5-.5-.5-.7-1.4-1.8-1.2zm-101.5-105.5c-.1 2.3-.1 2.3 2.1 2.3 1.4 0 2.8 0 4.2.3.4.1.8.1 1.2-.1.3-.2.8-.3.9-.8 0-.4-.4-.5-.7-.7-1.7-.9-3.4-1.8-5.1-2.6-2.9-1.2-2.5-1.1-2.6 1.6zm-2.2 44c1.9-1.6 4.4-2.6 4.8-5.5 0-.4.3-.9.6-1.1 2-1.2 2.2-3.4 2.9-5.3.1-.4.6-.9 0-1.2-.6-.3-.7.4-.9.8-1.4 2.4-2.8 4.9-4.8 6.7-1.8 1.6-2.1 3.6-2.6 5.6zm-11.6-42.4c.3.7.2 1.4.1 2 0 .4-.1.7.4.9.6.2 2.8-.7 3.1-1.3.6-1.5.3-2.3-1.2-2.9l-2.9-1c-.4-.1-.7 0-.8.4-.6 2.1-1.6 4-2.7 6.2 1.3-.3 2.6-.4 2.6-1.9.1-1 .6-1.7 1.4-2.4zm-49.4 24.9c.2-1.3-.3-2-1.2-2.8-3-2.5-6.1-4.9-9.3-7.1-2-1.4-3.9-2.9-6.3-3.8l16.8 13.7zm117.8 80.6c-.4.1-.9.4-1.2.8-.2.3.2.5.5.7 2.7 2 5.6 3.6 8.8 4.8.3.1.6.3.9.1.3-.3 0-.6-.1-.9l-.9-2.8c-.3-1-.7-1.3-1.7-.7-2.4 1.5-3.8 1.1-5.2-1.3-.3-.3-.4-.7-1.1-.7zm69.2 22.7c1.5 4.1 1 8.4 2.8 12.3 1.6-1.6 2.1-3.8 1.2-5.7-.5-.9-.8-1.9-1.4-2.8-.8-1.1-1.1-2.7-2.6-3.8zm-132.3-6.2h.2v-5.2c0-.6-.1-.9-.9-.9-.6 0-.9 0-.9.7l-.6 10.3c0 .8.4 1.1 1.1 1.1.8 0 .8-.6.8-1.2l.3-4.8zm28.6-113.3c-1.3-1.2-2.6-1.9-4-2.7-2.1-1.1-3.4-.5-3.9 1.8-.5 2.2-.5 2.1 1.6 1.6 1-.3 2.1-.4 3.2-.5 1-.1 1.9.3 3.1-.2zm-39.8 37.9c.1-.3.3-.7.3-1 .4-3.1.7-6.2 1.1-9.4l.2-2.6c.1-1.3-1.1-1.4-1.8-1.5-.8-.1-.3.7-.4 1.2-.3 1.9.2 3.7.1 5.6-.1 2.5.5 5.1.5 7.7zm72 145.1c2.4 0 2.5-.1 1.8-2.5-.2-.7-.4-1.5-.7-2.2-.2-.6-.5-.7-1-.3-1.4 1.1-2.6 2.3-3.7 3.7-.4.5-.5.9.4 1l3.2.3zm-151.3-136.9c2.7.5 5.3 1.1 7.9 1.5 1.5.2 2.9.6 4.4.4.4-.1 1 .2 1.1-.5 0-.9-.7-.6-1.1-.6-3-.3-6-.9-8.8-2.1-1.9-.8-2.1-.7-3.5 1.3zm76.2 58.9c-.3 2.4-.5 4.7-1 7.1-.3 1.7-.7 3.3-.6 5 .1 1 .6 1 1.3 1.1.9.1.9-.5.8-1.1v-8.5c0-1.2 0-2.4-.5-3.6zm100.1 47.6c-3.1-3.9-6.5-7.5-11.2-9.6 2.6 4.6 7.3 6.7 11.2 9.6zm13.8-45.6c0 .6.2.8.5 1 1.5 1.3 3.3 2.4 4.3 4s2.4 1.6 3.8 2.2c-1.1-4.7-4.9-5.8-8.6-7.2zm-184-64.5c2.4.7 4.7 1.4 7.2 1.3 1.1 0 2.4-1.5 2.2-2.5-.1-.5-.4-.4-.7-.4-2.9.1-5.8.7-8.7 1.6zm35-60.1c.1-2.2-.2-2.4-2.3-2.2l-1.7.3c-.7.1-.9.5-.5 1.1l2.5 3.7c.2.3.6.6 1.1.5.5-.2.8-.5.8-1 0-.8 0-1.6.1-2.4zm182.5 118.9c.9-2.9-3.2-13.7-5.5-15 1.5 5.1 3.8 9.7 5.5 15zm-118.6-29.7v3c0 .4-.1.9.3 1.1.4.2.8-.2 1.1-.3.6-.3.4-.7.3-1.2-.3-.8-.5-1.6-.7-2.4-1.1-3.8.3-7.3 1.3-10.9.1-.4.5-.9 0-1.3-.4-.3-.8-.5-1.3-.3-.6.2-.4.8-.4 1.2-.2 3.8-.4 7.5-.6 11.1zm-57.7 4.4h-.6c-.6.1-1.4 0-1.6.6-.2.6.6.8.9 1.3 1.3 2.2 2.7 4.5 2 7.3-.1.3 0 .4.3.6.9.5 1.1-.2 1.1-.8l-.7-8.1c-.2-.9-.6-1.2-1.4-.9zm50.1-73.5c.9-.5 1.3-1 1.7-1.7.9-1.9 2.2-3.6 3.5-5.2.3-.4 1.1-.7.8-1.2-.4-.6-1.2-.3-1.8-.2-.3.1-.6.4-.9.6-2.8 1.8-2.6 4.8-3.3 7.7zm-12.3-.6c-.1.7-.4 1.4.1 2.1.2.2.4.5.7.4.3-.1.3-.3.4-.6.5-2 .9-4 1.6-6 .5-1.6.2-1.8-1.4-1.4-1.1.3-1.7.8-1.5 2.1.2 1.2.1 2.3.1 3.4zm6.8 82.8l1.6-20.6c0-.3.3-.9-.4-.9-.5 0-.7.4-.7.9-.1 1.2-.2 2.5-.2 3.7-.2 5.6-.7 11.2-.3 16.9zm-92.1 82c-2.1-2.7-4-5.1-5.9-7.6l-1.5-1.8c-.2-.2-.4-.5-.8-.2-.3.2-.3.5-.1.8l.8 1.5c1.6 3.2 3.9 5.6 7.5 7.3zm58.5-175.7c.8-.3 1.1-.8 1.1-1.4.2-1.6-.1-3.2-.6-4.7-.4-1-1.7-1.2-2.7-1.5-.3-.1-.4.3-.3.5.8 2.4 1.7 4.8 2.5 7.1zm87.7 102c-.6-1.2-1.2-2.3-1.6-3.5-.3-1-.6-1.9-2.1-1.5-.8.2-1.5-.5-2.1-1.1l-1.9-1.8c-.3-.3-.6-.5-.9-.1-.3.3-.3.7.1.9l2.2 1.9c2.2 1.7 4 3.8 6.3 5.2zm-206.1-55.7c-.6.3-.4.8-.5 1.2-.5 4.2-1.5 8.2-2.5 12.3-.1.4-.6.9.1 1.1.5.1 1-.2 1.3-.7.2-.3.2-.7.3-1 1-3.9.8-7.9 1.6-11.8 0-.4.2-.8-.3-1.1zm5.1 61.3l5.5-.7c.3 0 .8.1.8-.4 0-.4-.3-.6-.6-.8l-3.9-1.3c-.8-.3-1.1.3-1.5.8-.5.6-1.2 1.2-1 2.1.1.4.4.4.7.3zm102-65.7c1.8 4.5 2.2 9.6 6 13.1-1.7-4.5-3.5-9-6-13.1zm-11-41.3c3.1 4.7 6.4 9.1 9.4 13.8-1.7-5.6-5.8-9.5-9.4-13.8zm100.1 71.7c1.5.2 2.6-.5 3.7-.9 1.9-.7 1.9-.7.6-2.2l-1.6-1.8c-.3-.4-.8-.6-.9.1-.1 1.7-1 3.2-1.8 4.8zm-112.9 86.3c-.3-.8.6-2-.3-2.4-.7-.4-1.4.5-2.1 1-1.7 1.1-1.7 1.1-.4 2.5.7.7 1.5 2.2 2.2 1.9 1-.5.3-2.1.6-3zm151.1-33.5c.5 1.9 1.3 3.8 1.6 5.8.4 2.2 1.1 2.9 3.7 3.3-1.6-3.2-3.2-6.3-5.3-9.1zm-58.6-121.3c.7 0 1.3 0 2 .1.2 0 .4 0 .5-.2 0-.1 0-.3-.1-.4-1.4-1.2-2.9-2.1-4.7-2.5-.4-.1-.7-.1-.9.4-.8 1.6-.2 2.6 1.5 2.6h1.7zm109.2 120.9c-.2-2.5-.9-4.9-2.2-7.1-.3-.6-.8-.2-1.2 0-.4.3-.8.5-.4 1.1.7 1.1.7 2.6 2.1 3.5.5.3.8 1.7 1.7 2.5zm-133.4-93.9c1.2-4.4 2.1-8.8 4-13-3 3.9-4.8 8.1-4 13zm22.3-7.9c-1.3 1.3-2.7 2.6-4 4-.9 1-1.2 2.5-1.8 3.7-.1.3-.2.7.2.8.4.2.5-.2.7-.4 2-2.5 3.5-5.2 4.9-8.1zm57 106.7c-.3-1.4-.9-2.7-1.6-4-.3-.5-.6-.3-.9 0-.8.9-1.3 1.9-1.5 3-.1.3 0 .6.4.7l2.8.8c.5.2.8.1.8-.5zm-236.8-21.3c-2 .5-3.3 1.3-4.6 2.2-.5.3-1.4.8-.8 1.5.5.6 1.3 1 2.2.6.4-.2.8-.4 1-.9.5-1 1.2-2 2.2-3.4zm200.5-94.3c-.1-.5-.4-.5-.7-.2-.5.3-.9.8-1.4.9-2.2.7-2.5 1.4-1.6 3.3.2.3.3.7.7.8.4.1.5-.4.7-.7.8-1.2 1.2-2.6 2.2-3.7.1-.1.1-.2.1-.4zm-77.3 20.2c1.5 3.9 2.8 7.9 4.6 11.7-1-4.1-1.9-8.3-4.6-11.7zm-14.1-45.2c-1.3-.2-1.9.1-1.3 1.5.3.6.5 1.4.7 2 .1.4.3.8.8.7.4-.1.8-.3.8-.8l.2-2c.4-1.1-.1-1.6-1.2-1.4zm-5.3 145.3c-.5 1.4-1.9 2.6-1 4 .8 1.2 1.1 2.7 2 3.8l.4-.2c-.5-2.5-.9-5-1.4-7.6zm-47.7 38.3c1.3 3.2 2.4 6.5 4.8 9.1-.9-3.5-3.2-6.1-4.8-9.1zm25.1-104.9c-.5-1-.9-1.7-1.3-2.5-.2-.4-.4-.7-.9-.4l-2.9 1.7c1.6.8 3 1.1 5.1 1.2zm26-44.6c-.7-3.2-3.4-6-6.3-6.6 2.4 2 4.1 4.3 6.3 6.6zm62.3-16c1.7-.8 3.2-1.4 4.6-2.1.3-.1.5-.3.5-.7 0-.4-.3-.5-.6-.5-1-.3-2-.4-2.8.7-.5.8-1.2 1.4-1.7 2.6zm-46.4 111.9l-1.2 5.6c-.1.5-.6 1.2.2 1.4.7.1 1.1-.4 1.2-1.1.3-2.1.3-4-.2-5.9zm60.8-113.8c-.3.1-.9-.3-1.1.3-.2.5.3.8.7 1.1l.7.6c.5.7 1.2.8 1.9.6.5-.1.6-.7.5-1.2-.2-.8-.7-1.2-1.5-1.3-.4 0-.7 0-1.2-.1zm-168.9 17c-.2 1.3-.3 2.5-.7 3.8-.2.6 0 1.2 0 1.8 0 .7.5.8 1 .8.7 0 .7-.6.6-1-.2-1.8-.5-3.6-.9-5.4zm235.9 33c-1 1.8-1.1 3.5-1.4 5-.1.4-.2.9.5.9.5.1 1-.1 1-.6.2-1.6.3-3.2-.1-5.3zm-221.9 28.8c.7.6 1.6.7 2.4.9.5.1 1 .2 1.4-.3.4-.5-.1-.9-.2-1.3-.3-.6-.8-.6-1.3-.4-.8.3-1.6.4-2.3 1.1zm220.2 37.4c-2.2-2.2-3.5-2.3-5.3-.4 1.7.3 3.4.5 5.3.4zm-258.6-175.9c.7 2 3.9 4.7 5.4 4.6-1.8-1.6-3.4-3.4-5.4-4.6zm11.6 5.6l.3-.5-6.2-4.7c-.1.1-.2.2-.3.4 1.9 1.9 4.2 3.2 6.2 4.8zm252.2 203.1l-1.2-3.4c-.3-.7-.7-.3-1.1-.1-.4.2-1 .4-.5 1 .7.9 1.2 2 2.8 2.5zm-265-110.1c4-.8 5.9-1.7 6.3-3-2.2.6-4.3 1.3-6.3 3zm12.8 59.3c1.4-.1 2.2-.7 3.1-1.1.3-.1 1.2-.1.8-.8-.3-.5-.8-.8-1.4-.3-.8.7-1.5 1.3-2.5 2.2zm2.2 12.3l2.7.7c.3.1.7.2.8-.2.1-.2-.1-.6-.3-.8-1.1-1.2-2.1-.2-3.2.3zm126.3-60.8c0-2.1-1.6-6.6-2.6-7.5 1 2.8 1.8 5.1 2.6 7.5zm-8.9 33.5c0 2-.3 3.6.8 4.9.3-1.6 0-3.1-.8-4.9zm4.8-81.5c.3-1.5-.2-2.7-.3-3.9 0-.3 0-.8-.6-.6-.4.1-.5.5-.3.9.3 1.1.8 2.2 1.2 3.6zm18.9 56.9c.6-1.2 1-2.5.5-4.1-1.3 1.4-.5 2.8-.5 4.1zm93 100.3c1.4 1 2.3 2.5 3.8 3.3-1-1.4-2.2-2.6-3.8-3.3zm-140.8-13c-.1-1.5.2-2.7-.2-3.8-1.3 1.1-1.3 1.8.2 3.8zm-48.1-30.4c-.6-.8-1-1.7-1.9-1.7-.5 0-1 1.1-.7 1.5.6.7 1.5.2 2.6.2zm-45.8-14.1c-.7.6-.9 1.4-1 2.2-.1.4-.5 1 .1 1.2.6.1 1-.5 1.1-1.1l-.2-2.3zm261.1 88.6c-.8-1.1-1.5-1.9-2.6-2.3.4 1.2.7 2.4 2.6 2.3zm-273.8-79c1.2-.2 1.6-1.2 2.4-1.5.2-.1.3-.4.1-.6-.2-.2-.5-.3-.8-.1-.9.4-1.4 1.1-1.7 2.2zm100.9-48.7c-.5-.7.3-1.9-.8-2-.7-.1-.8.9-.8 1.4 0 1 1 .4 1.6.6zm-85.7 1.9c-.3 1-.5 2-.8 3.1-.1.3-.1.7.3.7.3.1.4-.3.4-.5.2-1.1.6-2.2.1-3.3zm-3.8-28.8c0-.4-.1-.7-.6-.7-.7.1-1.1.6-1.2 1.2-.1.4.4.4.7.4.6 0 1.1-.2 1.1-.9zm86.6 19.9c-.3 2-.5 4-1 6 .8-1.9 1.4-3.9 1-6zm35-52.7c-.1-1.3-.2-2.5-1.2-3.9-.3 1.8.7 2.8 1.2 3.9zm-7.6-17.3c-.6-.6-1.2-.6-1.7-.7-.3 0-.6.1-.7.4-.1.3-.1.6 0 .9.2.3.6.1.8 0 .5-.1 1-.3 1.6-.6zm-112.3 87.8l.3.1.9-2.5c.1-.3.1-.6-.2-.8-.4-.2-.5.2-.5.5-.2.8-.3 1.8-.5 2.7zm84-73.9c.2-1.9.1-2.1-1.7-1.5.4.7 1 1 1.7 1.5zm1.5-22.3c.2-.7.7-1.4.2-2-.3-.3-.7.2-.8.4-.6.8-.1 1.2.6 1.6zm105.8 28.9c-.8.5-1.2 1.3-1.7 1.9-.2.3-.3.6.1.8.3.2.5 0 .6-.3.4-.7.9-1.3 1-2.4zm-75.8 115.8c1.1-1.1 1.2-1.4.6-2.9-.1 1-.8 1.8-.6 2.9zm164.1 60c.1-.6.1-1.1.1-1.7 0 0-.6-.1-.8.1-.6.7.3 1 .7 1.6zM922.9 500.1c-.7-1-.7-2.3-1.4-3.2-.1-.2-.2-.5 0-.7.1-.1.3-.2.4-.1.2.2.6.3.5.6-.2.9-.2 1.5.8 2 .6.3-.2.9-.3 1.4zM921.7 494c-1.6.5-1.4-.7-1.8-1.6 1.2 0 1 1.4 1.8 1.6zM830.6 427.3c-2.3-.2-4.5-.7-6.2-2.4-.2-.2-.7-.3-.6-.8.2-.6.7-.3 1.1-.2 2.4.3 4.8.6 7.2.6.5 0 .9 0 1.4-.1.4-.1.9-.4 1.2.2.2.5 0 .9-.2 1.3-.9 1.9-2.5 1.2-3.9 1.4z"/></svg>