<svg xmlns="http://www.w3.org/2000/svg" viewBox="0 0 139.9 105" enable-background="new 0 0 139.9 105"><path d="M0 0h139.9v105h-139.9v-105zm16.3 9.3c17 17.2 33 33.6 49.2 49.8 3.3 3.3 6.7 2.8 10.4-1 15.4-15.4 30.8-30.9 46.1-46.4.6-.6 1-1.5 1.7-2.5-35.7.1-70.9.1-107.4.1zm-.3 86.3h108c-12.9-12-24.8-23.2-36.9-34.5-16.9 13.7-16.9 13.7-33.6-.3-12.4 11.4-24.5 22.7-37.5 34.8zm-6.4-9.3c11.6-10.9 23.6-22.1 35.3-33.1-12.3-12-24-23.4-35.3-34.4v67.5zm120.6-65.6c-10.6 10.3-22.3 21.6-34.6 33.6 11.3 10.7 23 21.7 34.6 32.6v-66.2z"/></svg>