<svg xmlns="http://www.w3.org/2000/svg" viewBox="0 0 600 600" enable-background="new 0 0 600 600"><style type="text/css">.st0{fill:#34494C;} .st1{fill:#FFFFFF;}</style><path class="st0" d="M0 0h600v600h-600z"/><g id="_x33_NXZUg_1_"><path class="st1" d="M463.4 256.3v129.8c-.2 1.6-.4 3.1-.7 4.7-1.6 8.9-5.6 16.6-12.1 22.9-8.4 8.1-18.5 12.1-30.3 12.1h-241.8c-3.3 0-6.6-.4-9.8-1.3-18.9-4.8-32.1-21.7-32.1-41.2v-124.2c0-2 .1-4 .4-5.9 1.1-7.7 4-14.6 8.9-20.6 8.3-10.1 19.1-15.7 32.2-15.9 16.3-.2 32.6-.1 48.9-.1h1v-.8c.2-6.8 1.7-13.2 5-19.1 6.8-12.3 17.2-19.7 31.1-22.1l3.6-.5h64.6c1 .1 2 .2 3 .4 11.2 1.7 20.4 6.9 27.5 15.8 5 6.3 8 13.5 8.8 21.5.2 1.6.3 3.1.4 4.8h48.3c2.2 0 4.4.1 6.6.4 7 1 13.4 3.5 19.1 7.7 9.4 7 15.1 16.3 17 27.8.1 1.4.2 2.6.4 3.8zm-163.4-10.2c-41.8.1-75.1 34-75.2 75.1 0 41 33.1 75.2 75.1 75.2 41.8 0 75.1-34 75.2-75.1.1-41-33.1-75.1-75.1-75.2zM257.5 321.3c.1-23.8 19.3-42.4 42.3-42.5 23.5-.1 42.7 18.9 42.8 42.4.1 23.2-19 42.4-42.3 42.5-23.6.1-42.7-18.8-42.8-42.4z"/></g></svg>