<?xml version="1.0" encoding="utf-8"?>
<!-- Generator: Adobe Illustrator 18.1.0, SVG Export Plug-In . SVG Version: 6.00 Build 0)  -->
<svg version="1.1" id="Layer_1" xmlns="http://www.w3.org/2000/svg" xmlns:xlink="http://www.w3.org/1999/xlink" x="0px" y="0px"
	 viewBox="0 0 89.9 104.7" style="enable-background:new 0 0 89.9 104.7;" xml:space="preserve">
<style type="text/css">
	.st0{fill:#607D8B;}
	.st1{fill:#EB6B23;}
	.st2{fill:#F48029;}
	.st3{fill:#E9AA78;}
	.st4{fill:#E25E26;}
</style>
<g>
	<path class="st0" d="M2.4,103.6h4.4v1H1.2v-9.2h1.2V103.6z"/>
	<path class="st0" d="M13.4,102.1H9.5l-0.9,2.4H7.4l3.5-9.2H12l3.5,9.2h-1.2L13.4,102.1z M9.9,101.1H13l-1.6-4.3L9.9,101.1z"/>
	<path class="st0" d="M23.2,95.3v6.3c0,0.5-0.1,1-0.3,1.4c-0.2,0.4-0.4,0.7-0.7,1c-0.3,0.3-0.7,0.5-1.1,0.6s-0.8,0.2-1.3,0.2
		c-0.5,0-0.9-0.1-1.3-0.2c-0.4-0.1-0.8-0.3-1.1-0.6c-0.3-0.3-0.5-0.6-0.7-1c-0.2-0.4-0.3-0.8-0.3-1.4v-6.3h1.2v6.3
		c0,0.4,0.1,0.7,0.2,0.9c0.1,0.3,0.2,0.5,0.4,0.7s0.4,0.3,0.7,0.4c0.3,0.1,0.5,0.1,0.9,0.1c0.3,0,0.6,0,0.9-0.1
		c0.3-0.1,0.5-0.2,0.7-0.4c0.2-0.2,0.3-0.4,0.4-0.7c0.1-0.3,0.2-0.6,0.2-0.9v-6.3H23.2z"/>
	<path class="st0" d="M32.2,104.6H31l-4.7-7.1v7.1h-1.2v-9.2h1.2l4.7,7.2v-7.2h1.2V104.6z"/>
	<path class="st0" d="M34.4,104.6v-9.2H37c0.6,0,1.2,0.1,1.7,0.3s0.9,0.5,1.3,0.9s0.6,0.8,0.8,1.4c0.2,0.5,0.3,1.1,0.3,1.8v0.5
		c0,0.7-0.1,1.3-0.3,1.8c-0.2,0.5-0.5,1-0.8,1.4c-0.4,0.4-0.8,0.7-1.3,0.9c-0.5,0.2-1.1,0.3-1.7,0.3H34.4z M35.6,96.3v7.2h1.3
		c0.5,0,0.9-0.1,1.3-0.2c0.4-0.2,0.7-0.4,0.9-0.7s0.4-0.6,0.6-1.1c0.1-0.4,0.2-0.9,0.2-1.4v-0.6c0-0.5-0.1-1-0.2-1.4
		c-0.1-0.4-0.3-0.8-0.6-1c-0.2-0.3-0.5-0.5-0.9-0.7s-0.8-0.2-1.2-0.2H35.6z"/>
	<path class="st0" d="M46.3,100.8h-2.2v3.7h-1.2v-9.2h3.1c1,0,1.8,0.2,2.4,0.7c0.6,0.5,0.8,1.2,0.8,2.1c0,0.6-0.2,1.1-0.5,1.5
		c-0.3,0.4-0.7,0.7-1.3,1l2.2,3.9v0.1h-1.3L46.3,100.8z M44.1,99.8H46c0.3,0,0.6,0,0.9-0.1c0.2-0.1,0.5-0.2,0.6-0.4
		c0.2-0.2,0.3-0.3,0.4-0.5c0.1-0.2,0.1-0.4,0.1-0.7c0-0.3,0-0.5-0.1-0.7s-0.2-0.4-0.4-0.6s-0.4-0.3-0.6-0.4
		c-0.3-0.1-0.6-0.1-0.9-0.1h-1.8V99.8z"/>
	<path class="st0" d="M53.4,100l2.4-4.6h1.4l-3.2,5.8v3.4h-1.2v-3.4l-3.2-5.8H51L53.4,100z"/>
	<path class="st0" d="M67.7,96.3h-3v8.2h-1.2v-8.2h-3v-1h7.1V96.3z"/>
	<path class="st0" d="M70.4,104.6h-1.2v-9.2h1.2V104.6z"/>
	<path class="st0" d="M74.2,95.3l3,7.5l3-7.5h1.6v9.2h-1.2V101l0.1-3.9l-3,7.5h-0.9l-3-7.5l0.1,3.9v3.6h-1.2v-9.2H74.2z"/>
	<path class="st0" d="M89.2,100.3h-4v3.3h4.7v1H84v-9.2h5.8v1h-4.6v3h4V100.3z"/>
</g>
<g>
	<rect x="0" y="0" class="st1" width="72.6" height="72.6"/>
	<rect x="11.7" y="11.7" class="st2" width="70.3" height="70.3"/>
	<polygon class="st1" points="0,72.6 11.7,82 11.7,72.6 	"/>
	<polygon class="st1" points="72.6,0 82,11.7 72.6,11.7 	"/>
	<circle class="st1" cx="48.9" cy="54.1" r="21.5"/>
	<circle class="st3" cx="49.1" cy="54.2" r="18.3"/>
	<circle class="st4" cx="26.8" cy="21.9" r="4.8"/>
	<circle class="st4" cx="46.9" cy="21.9" r="4.8"/>
	<circle class="st4" cx="67.4" cy="21.9" r="4.8"/>
</g>
</svg>
