<svg xmlns="http://www.w3.org/2000/svg" viewBox="0 0 115.6 110.5" enable-background="new 0 0 115.6 110.5"><style type="text/css">.st0{fill:#FFFFFF;} .st1{fill:#010101;}</style><path class="st0" d="M64.8 46.3h-.1v-9.9c0-.6 0-.5-.5-.5h-24c-.2 0-.3.1-.3.3l.1 1.5.1 14.4v31.9l-.1 26c0 .6-.1.5.6.5h23.7c.6 0 .5.1.5-.6v-41.4c0-1.3.1-2.7.3-4 .3-1.7 1.1-3.2 2-4.6 1.7-2.5 3.8-4.4 6.7-5.4 2.1-.7 4.3-.9 6.5-.6 3.7.5 6.5 2.4 8.3 5.7.9 1.6 1.4 3.4 1.7 5.2.3 1.9.5 3.7.5 5.6v39.5c0 .6-.1.5.6.5h23.7c.7 0 .6.1.6-.6v-42.6c0-3.5-.3-7-1.1-10.4-.7-3.2-1.7-6.2-3.2-9.1-2.8-5.2-6.9-9.1-12.4-11.4-2.9-1.2-6-1.9-9.1-2.1-2.8-.2-5.5-.1-8.2.4-5.5 1-10.2 3.6-13.9 7.8-1.1 1.3-2.1 2.6-3 3.9zm-63.3 26.9v36.7c0 .7-.1.6.6.6h23.6c.6 0 .6.1.6-.6v-73.7c0-.2 0-.4-.3-.3h-23.900000000000002c-.6 0-.6 0-.6.6v36.7zm12.6-73.2c-1.7 0-3.2.2-4.7.6-3.1.9-5.6 2.5-7.3 5.2-1.9 2.9-2.4 6-1.8 9.3.7 4.2 3.1 7.3 6.9 9.2 1.8.9 3.7 1.3 5.7 1.4 2.2.1 4.4-.1 6.5-.8 3.2-1.1 5.7-3.2 7.3-6.3 1.3-2.7 1.6-5.6 1-8.5-.9-3.9-3-6.8-6.6-8.6-2.3-1.1-4.7-1.5-7-1.5z"/><path class="st1" d="M64.8 46.3c.9-1.3 1.8-2.6 2.9-3.9 3.7-4.2 8.3-6.8 13.9-7.8 2.7-.5 5.5-.6 8.2-.4 3.1.2 6.2.9 9.1 2.1 5.5 2.3 9.6 6.2 12.4 11.4 1.5 2.9 2.6 5.9 3.2 9.1.7 3.4 1.1 6.9 1.1 10.4v42.6c0 .7.1.6-.6.6h-23.7c-.6 0-.6.1-.6-.5v-39.5c0-1.9-.1-3.8-.5-5.6-.3-1.8-.9-3.6-1.7-5.2-1.8-3.3-4.6-5.2-8.3-5.7-2.2-.3-4.4-.1-6.5.6-2.9 1-5 2.9-6.7 5.4-.9 1.4-1.7 2.9-2 4.6-.3 1.3-.3 2.7-.3 4v41.4c0 .6.1.6-.5.6h-23.7c-.6 0-.6.1-.6-.5l.1-26v-31.9l-.1-14.4c0-.5 0-1-.1-1.5 0-.2 0-.3.3-.3h24c.5 0 .5-.1.5.5v9.9h.2z"/><path d="M1.5 73.2v-36.7c0-.6 0-.6.6-.6h23.900000000000002c.3 0 .3.1.3.3v73.7c0 .7.1.6-.6.6h-23.6c-.7 0-.6.1-.6-.6v-36.7z"/><path class="st1" d="M14.1 0c2.3 0 4.6.4 6.8 1.5 3.6 1.8 5.8 4.7 6.6 8.6.6 2.9.4 5.8-1 8.5-1.5 3.1-4 5.2-7.3 6.3-2.1.7-4.3 1-6.5.8-2-.1-3.9-.5-5.7-1.4-3.9-1.9-6.2-5-6.9-9.2-.6-3.3 0-6.5 1.8-9.3 1.8-2.7 4.3-4.3 7.3-5.2 1.7-.4 3.3-.6 4.9-.6z"/></svg>