<?xml version="1.0" encoding="utf-8"?>
<!-- Generator: Adobe Illustrator 18.1.0, SVG Export Plug-In . SVG Version: 6.00 Build 0)  -->
<svg version="1.1" id="Layer_1" xmlns="http://www.w3.org/2000/svg" xmlns:xlink="http://www.w3.org/1999/xlink" x="0px" y="0px"
	 viewBox="0 0 225.6 142.2" style="enable-background:new 0 0 225.6 142.2;" xml:space="preserve">
<style type="text/css">
	.st0{fill:none;stroke:#000000;stroke-miterlimit:10;}
</style>
<g id="UQEBQJ_1_">
	<g>
		<path d="M41.9,124.3c1.9-1.4,3.9-2.8,5.8-4.2c7.3-5.2,14.5-10.6,21.5-16.1c1.7-1.3,3.3-2.8,5.2-3.9c0.8-0.5,1.2-1,1-2
			c-0.2-1-0.7-0.7-1.4-0.7c-1,0-1.3-1.1-1.7-1.8c-0.4-0.6,0.1-1,0.6-1.2c1-0.5,0.5-1.2,0.1-1.8c-0.3-0.5-0.8-0.8-0.9-1.3
			c-0.3-1.1-0.6-0.5-0.9-0.1c-0.4,0.5-0.5,1.1-1,1.5c-0.4-0.9-1.5-0.7-2-1.4c-0.4-0.4-0.7-0.9-1.2-1.6c1.9-0.2,3.1-1.9,5.1-1.8
			c0.6,0,1.2-0.3,1.8-0.7c3-2.3,6.4-4.1,9.4-6.4c6.4-5.1,13.6-8.6,20.4-13c1.1-0.7,2.3-1.5,3.7-1.5c0.3,0,0.7-0.2,0.9-0.4
			c4.1-3.4,9.2-5.2,13.6-8.1c2.4-1.6,4.9-2.9,7.4-4.3c7-4,13.9-7.9,20.9-11.9c17.1-9.8,34.1-19.7,51.2-29.4c7-4,14.1-7.8,21.2-11.8
			c1-0.6,2-0.9,2.8,0.2c0.9,1.2,0.2,2-0.7,2.8c-8.4,8.2-18.6,13.7-28.3,20.1C160.8,46.9,125.3,70,89.8,93c-6.2,4-12.8,7.5-19.2,11.4
			c-1.8,1.1-3.4,2.5-5.1,3.7c-7.8,5.5-15.6,11.1-23.3,16.6C42.1,124.6,42,124.4,41.9,124.3z M86.5,83.7c0.8,0.8,1.4,0.3,1.9-0.3
			c0.7-0.7,0.5-1.4-0.2-2.3c0.6,1.5-0.1,1.9-1.2,2c-0.2,0-0.3,0.5-0.5,0.7c-1-1.2-1.7,0.1-2.2,0.5c-1,0.6-1.9,0.6-2.9,0.4
			c-0.3-0.1-0.8-0.5-0.8-0.3c0.3,1-1.2,1-0.8,1.9c0.1,0.1,0.4,0.2,0.4,0.2c0,0.4-0.3,0.2-0.5,0.2c-0.8-0.1-0.9,1.6-2.3,0.4
			c-2-1.7,0.5,1.7-1,1.1c0,0-0.1,0-0.2,0c-0.8,0.5-1.5,1.1-2.3,1.6c-1,0.6-1.3,1.6-0.7,2.4c0.8,1,1.7,0.5,2.5-0.2
			c1.5-1.2,2.9-2.6,4.7-3.4c0.9-0.4,1.8-0.9,2.6-1.3c1-0.5,1.6-1.7,2.8-2.2C86.6,84.9,86.8,84.4,86.5,83.7z M172.4,30.6
			c-0.1-0.1-0.2-0.3-0.3-0.4c-1.6,0.7-3.1,1.6-4.1,3.1C169.4,32.4,170.9,31.5,172.4,30.6z"/>
		<path d="M37.6,119.6c2-0.2,3.8-0.9,5.6-2c0.7-0.4,1.6-0.6,1.6-1.7c0-0.2,0.3-0.5,0.6-0.6c2.4-0.4,3.4-2.7,5.2-3.9
			c1.5-1,2.7-2.7,4.1-4.1c1.8-1.8,4.1-3,6.1-4.5c2.5-1.9,4.8-4,7.5-5.5c1-0.6,1.2-0.2,1.2,0.7c0.2,1.8-0.7,2.9-2.1,4.1
			c-4.7,4.2-9.7,8-14.7,12c-4.7,3.7-9.1,7.9-14.2,11.2c-0.6,0.4-2.3,0.8-0.7,2.1c0.3,0.3-0.2,0.5-0.3,0.6c-3.5,1.6-6.3,4.2-9.6,6.1
			c-0.1,0,4.4-3.6,6.8-5.4c-2.6,1.2-4.9,3.1-7.6,4.2c0.9-1.1,2.2-1.8,3.3-2.6c1.5-1,3.1-1.8,4.6-2.8c1.4-1,0.4-2.2-0.1-3.1
			c-0.8-1.6-1.8-3-2.7-4.7c1.3,2.1,2.8,2,4.3,0.5c-0.8,0.5-1.1,1.3-1.8,2c1.5-0.3,2.3-1.1,3.2-1.8C38.6,119.9,38.7,119.4,37.6,119.6
			z"/>
		<path d="M6.6,141.9c-2.3-2.6-4.3-5.5-6.3-8.3c-0.3-0.4-0.5-1,0.1-1.4c0.4-0.3,0.7,0,0.9,0.3c1.9,3,3.8,6.1,5.7,9.1
			C6.8,141.7,6.7,141.8,6.6,141.9z"/>
		<path d="M12.7,135.1c-1.2,1.1-2.5,1.6-3.2,3c-0.4,0.8-2,0.6-3.1,0.3c-0.7-0.2-0.1-0.6,0.3-0.8C8.4,136.4,10.3,135.6,12.7,135.1z"
			/>
		<path d="M13.6,138.6c-1.9,1.4-3.7,2-4.9,3.4c-0.4,0.5-0.8-0.1-0.8-0.5c-0.1-0.6-1.3-1.1-0.2-1.7c0.5-0.3,1.3-0.8,1.6-0.6
			C10.8,140.1,11.9,138.9,13.6,138.6z"/>
		<path d="M54.1,99.2c-2.3,2-5,3.1-7.8,4.3C47.8,101.6,49.8,100.5,54.1,99.2z"/>
		<path d="M70.5,96c1.4,0.1,1.3,1.3,1.6,2c0.2,0.4-0.5,1.2-0.9,1.1c-1-0.3-1.2-1.3-1.4-2.2C69.6,96.2,70.1,96,70.5,96z"/>
		<path d="M33.4,109.2c1.4-1.5,3.3-2.1,5.2-2.6C36.7,107.2,35.4,108.8,33.4,109.2z"/>
		<path d="M22.8,120.4c-1.9,1.3-3.7,2.6-5.6,3.9c-0.1-0.1-0.1-0.2-0.2-0.3c1.8-1.4,3.6-2.7,5.5-4.1C22.6,120,22.7,120.2,22.8,120.4z
			"/>
		<path d="M58.4,97c1-1.2,2.4-1.6,4.2-2.1C61.3,96.6,59.7,96.5,58.4,97z"/>
		<path d="M20.4,129.6c-1.5,1.5-3,2.2-4.6,2.8C17,131.4,18.3,130.3,20.4,129.6z"/>
		<path d="M13.9,126.1c-1,1-2.1,1.8-3.5,2.3C11.5,127.4,12.6,126.6,13.9,126.1z"/>
	</g>
	<polyline class="st0" points="13.6,138.6 27.9,134.1 36.3,127.2 	"/>
</g>
</svg>
