<?xml version="1.0" encoding="utf-8"?>
<!-- Generator: Adobe Illustrator 20.0.0, SVG Export Plug-In . SVG Version: 6.00 Build 0)  -->
<svg version="1.1" id="Layer_1" xmlns="http://www.w3.org/2000/svg" xmlns:xlink="http://www.w3.org/1999/xlink" x="0px" y="0px"
	 viewBox="0 0 190.8 200.5" style="enable-background:new 0 0 190.8 200.5;" xml:space="preserve">
<style type="text/css">
	.st0{fill:#AA9E75;}
	.st1{fill:#FAFAFA;}
	.st2{fill:#231F20;}
	.st3{fill:none;stroke:#231F20;stroke-width:8;stroke-linecap:round;stroke-miterlimit:10;}
	.st4{fill:#4F4C4D;}
	.st5{fill:#504C4D;}
</style>
<path class="st0" d="M35,128.1v-114l5.3-7.3l9.4-5.4l106.9,4.1L35,128.1z"/>
<path class="st1" d="M156.6,5.6L37.5,124.8v66.9l119.1-0.3l4.9-7.7V14.8L156.6,5.6z"/>
<path class="st2" d="M153.8,10c1.1,0,2,0.9,2,2v171c0,1.1-0.9,2-2,2H42.7c-1.1,0-2-0.9-2-2V12c0-1.1,0.9-2,2-2L153.8,10 M153.8,0
	H42.7c-6.6,0-12,5.4-12,12v171c0,6.6,5.4,12,12,12h111.1c6.6,0,12-5.4,12-12V12C165.8,5.4,160.4,0,153.8,0z"/>
<polygon class="st1" points="188.5,64.2 124.7,106.4 188.5,106.4 "/>
<polygon class="st0" points="124.7,106.2 188.5,64.1 124.7,64.1 "/>
<path class="st2" d="M125.9,65.7c0-0.4,0.3-0.7,0.7-0.7h60c0.4,0,0.7,0.3,0.7,0.7v39c0,0.4-0.3,0.7-0.7,0.7h-60
	c-0.4,0-0.7-0.3-0.7-0.7L125.9,65.7 M122.4,65.7v39c0,2.3,1.9,4.2,4.2,4.2h60c2.3,0,4.2-1.9,4.2-4.2v-39c0-2.3-1.9-4.2-4.2-4.2h-60
	C124.3,61.5,122.4,63.3,122.4,65.7z"/>
<path class="st3" d="M111.2,22.7h34"/>
<path class="st3" d="M111.2,36.4h34"/>
<rect x="19.4" y="171.8" class="st4" width="31" height="6.3"/>
<polygon class="st0" points="44.9,171.8 24.7,171.8 27.7,165.5 41.9,165.5 "/>
<path class="st2" d="M39.9,165.5c0,0,0.7-24.5,7.2-42.1c0,0,11.5-28.4-13.4-29.1c0,0-20.6,0.2-11.9,25.2c0,0,8.3,26.5,7.6,46H39.9z"
	/>
<rect x="3.3" y="196.6" class="st5" width="63" height="4"/>
<polygon class="st0" points="69,196.6 0,196.6 6,178.2 63,178.2 "/>
</svg>
