<?xml version="1.0" encoding="utf-8"?>
<!-- Generator: Adobe Illustrator 20.0.0, SVG Export Plug-In . SVG Version: 6.00 Build 0)  -->
<svg version="1.1" id="Layer_1" xmlns="http://www.w3.org/2000/svg" xmlns:xlink="http://www.w3.org/1999/xlink" x="0px" y="0px"
	 viewBox="0 0 200 136.5" style="enable-background:new 0 0 200 136.5;" xml:space="preserve">
<style type="text/css">
	.st0{fill:#EFF0EF;}
	.st1{fill:#AA9E75;}
	.st2{fill:#B7B3A7;}
	.st3{fill:#231F20;}
</style>
<path class="st0" d="M4.1,104.1L4,104.2V104L4.1,104.1z"/>
<path class="st1" d="M155.8,7.7l-3.4,2.2L8.7,101.2L8.6,101c-0.5-0.9-0.7-1.9-0.7-3V14.8c0-3.8,3.1-6.9,6.9-6.9h132.8
	c1.8,0,3.4,0.7,4.6,1.8l3.4-2.2C155.8,7.6,155.8,7.7,155.8,7.7L155.8,7.7z"/>
<path class="st2" d="M155.8,7.7l-3.4,2.2c1.3,1.3,2.1,3,2.1,5V98c0,3.8-3.1,6.9-6.9,6.9H14.8c-2.7,0-5-1.5-6.1-3.7L8.6,101
	L152.3,9.7l3.4-2.2l0.1-0.1L155.8,7.7L155.8,7.7z"/>
<path class="st3" d="M155.7,7.5l-3.4,2.2l0.1,0.1l3.4-2.2V7.4L155.7,7.5L155.7,7.5z M4,104v0.2l0.1-0.1L4,104z M147.7,0H14.8
	C6.6,0,0,6.6,0,14.8V98c0,8.2,6.6,14.8,14.8,14.8h62.5v15.7H62c-2.2,0-4,1.8-4,4s1.8,4,4,4h38.5c2.2,0,4-1.8,4-4s-1.8-4-4-4H85.2
	v-15.8h62.5c8.2,0,14.8-6.6,14.8-14.8V14.7C162.5,6.6,155.8,0,147.7,0L147.7,0z M4,104.2V104l0.1,0.1L4,104.2z M152.4,9.9
	c1.3,1.3,2.1,3,2.1,5V98c0,3.8-3.1,6.9-6.9,6.9H14.8c-2.7,0-5-1.5-6.1-3.7L8.6,101c-0.5-0.9-0.7-1.9-0.7-3V14.8
	c0-3.8,3.1-6.9,6.9-6.9h132.8c1.8,0,3.4,0.7,4.6,1.8L152.4,9.9L152.4,9.9z"/>
<path class="st2" d="M142.3,41.6h52.9v89.9h-52.9L142.3,41.6z"/>
<path class="st1" d="M141.6,46l0.8,81.4l49.9-83.6C192.2,43.9,146,36.2,141.6,46L141.6,46z"/>
<path class="st3" d="M187,136.4h-38.3c-7.2,0-13-5.8-13-13V49.1c0-7.2,5.8-13,13-13H187c7.2,0,13,5.8,13,13v74.4
	C200,130.6,194.2,136.4,187,136.4L187,136.4z M148.6,43.1c-3.3,0-5.9,2.7-5.9,5.9v74.4c0,3.3,2.7,5.9,5.9,5.9H187
	c3.3,0,5.9-2.7,5.9-5.9V49.1c0-3.3-2.7-5.9-5.9-5.9L148.6,43.1L148.6,43.1z"/>
<circle class="st3" cx="167.8" cy="122.3" r="3.2"/>
<circle class="st3" cx="167.8" cy="48.5" r="1.7"/>
<path class="st2" d="M112.2,73.4h34.3V132h-34.3V73.4z"/>
<path class="st1" d="M111.7,76.3l0.5,53.3l32.7-54.7C144.9,74.7,114.6,69.7,111.7,76.3L111.7,76.3z"/>
<path class="st3" d="M138.2,136.5h-18.6c-7.1,0-12.8-5.8-12.8-12.8V81.5c0-7.1,5.8-12.8,12.8-12.8h18.6c7.1,0,12.8,5.8,12.8,12.8
	v42.1C151,130.7,145.3,136.5,138.2,136.5z M119.6,75.4c-3.4,0-6.1,2.7-6.1,6.1v42.1c0,3.4,2.7,6.1,6.1,6.1h18.6
	c3.4,0,6.1-2.7,6.1-6.1V81.5c0-3.4-2.7-6.1-6.1-6.1H119.6z"/>
<circle class="st3" cx="128.9" cy="123.7" r="3.2"/>
<path class="st3" d="M132,81.7h-6.9c-0.9,0-1.6-0.7-1.6-1.6s0.7-1.6,1.6-1.6h6.9c0.9,0,1.6,0.7,1.6,1.6
	C133.6,81.1,132.9,81.7,132,81.7z"/>
</svg>
