<?xml version="1.0" encoding="utf-8"?>
<!-- Generator: Adobe Illustrator 20.0.0, SVG Export Plug-In . SVG Version: 6.00 Build 0)  -->
<svg version="1.1" id="Layer_1" xmlns="http://www.w3.org/2000/svg" xmlns:xlink="http://www.w3.org/1999/xlink" x="0px" y="0px"
	 viewBox="0 0 200 136.5" style="enable-background:new 0 0 200 136.5;" xml:space="preserve">
<style type="text/css">
	.st0{fill:#EFF0EF;}
	.st1{fill:#AA9E75;}
	.st2{fill:#B7B3A7;}
	.st3{fill:#231F20;}
</style>
<path class="st0" d="M4.1,316.6L4,316.7v-0.2L4.1,316.6z"/>
<path class="st1" d="M155.8,220.2l-3.4,2.2L8.7,313.7l-0.1-0.2c-0.5-0.9-0.7-1.9-0.7-3v-83.2c0-3.8,3.1-6.9,6.9-6.9h132.8
	c1.8,0,3.4,0.7,4.6,1.8l3.4-2.2C155.8,220.1,155.8,220.2,155.8,220.2L155.8,220.2z"/>
<path class="st2" d="M155.8,220.2l-3.4,2.2c1.3,1.3,2.1,3,2.1,5v83.1c0,3.8-3.1,6.9-6.9,6.9H14.8c-2.7,0-5-1.5-6.1-3.7l-0.1-0.2
	l143.7-91.3l3.4-2.2l0.1-0.1L155.8,220.2L155.8,220.2z"/>
<path class="st3" d="M155.7,220l-3.4,2.2l0.1,0.1l3.4-2.2v-0.2L155.7,220L155.7,220z M4,316.5v0.2l0.1-0.1L4,316.5z M147.7,212.5
	H14.8c-8.2,0-14.8,6.6-14.8,14.8v83.2c0,8.2,6.6,14.8,14.8,14.8h62.5V341H62c-2.2,0-4,1.8-4,4s1.8,4,4,4h38.5c2.2,0,4-1.8,4-4
	s-1.8-4-4-4H85.2v-15.8h62.5c8.2,0,14.8-6.6,14.8-14.8v-83.2C162.5,219.1,155.8,212.5,147.7,212.5L147.7,212.5z M4,316.7v-0.2
	l0.1,0.1L4,316.7z M152.4,222.4c1.3,1.3,2.1,3,2.1,5v83.1c0,3.8-3.1,6.9-6.9,6.9H14.8c-2.7,0-5-1.5-6.1-3.7l-0.1-0.2
	c-0.5-0.9-0.7-1.9-0.7-3v-83.2c0-3.8,3.1-6.9,6.9-6.9h132.8c1.8,0,3.4,0.7,4.6,1.8L152.4,222.4L152.4,222.4z"/>
<path class="st2" d="M142.3,254.1h52.9V344h-52.9L142.3,254.1z"/>
<path class="st1" d="M141.6,258.5l0.8,81.4l49.9-83.6C192.2,256.4,146,248.7,141.6,258.5L141.6,258.5z"/>
<path class="st3" d="M187,348.9h-38.3c-7.2,0-13-5.8-13-13v-74.3c0-7.2,5.8-13,13-13H187c7.2,0,13,5.8,13,13V336
	C200,343.1,194.2,348.9,187,348.9L187,348.9z M148.6,255.6c-3.3,0-5.9,2.7-5.9,5.9v74.4c0,3.3,2.7,5.9,5.9,5.9H187
	c3.3,0,5.9-2.7,5.9-5.9v-74.3c0-3.3-2.7-5.9-5.9-5.9L148.6,255.6L148.6,255.6z"/>
<circle class="st3" cx="167.8" cy="334.8" r="3.2"/>
<circle class="st3" cx="167.8" cy="261" r="1.7"/>
<path class="st2" d="M112.2,285.9h34.3v58.6h-34.3V285.9z"/>
<path class="st1" d="M111.7,288.8l0.5,53.3l32.7-54.7C144.9,287.2,114.6,282.2,111.7,288.8L111.7,288.8z"/>
<path class="st3" d="M138.2,349h-18.6c-7.1,0-12.8-5.8-12.8-12.8V294c0-7.1,5.8-12.8,12.8-12.8h18.6c7.1,0,12.8,5.8,12.8,12.8v42.1
	C151,343.2,145.3,349,138.2,349z M119.6,287.9c-3.4,0-6.1,2.7-6.1,6.1v42.1c0,3.4,2.7,6.1,6.1,6.1h18.6c3.4,0,6.1-2.7,6.1-6.1V294
	c0-3.4-2.7-6.1-6.1-6.1H119.6z"/>
<circle class="st3" cx="128.9" cy="336.2" r="3.2"/>
<path class="st3" d="M132,294.2h-6.9c-0.9,0-1.6-0.7-1.6-1.6s0.7-1.6,1.6-1.6h6.9c0.9,0,1.6,0.7,1.6,1.6
	C133.6,293.6,132.9,294.2,132,294.2z"/>
</svg>
