<?xml version="1.0" encoding="utf-8"?>
<!-- Generator: Adobe Illustrator 20.0.0, SVG Export Plug-In . SVG Version: 6.00 Build 0)  -->
<svg version="1.1" xmlns="http://www.w3.org/2000/svg" xmlns:xlink="http://www.w3.org/1999/xlink" x="0px" y="0px"
	 viewBox="0 0 200 158.8" style="enable-background:new 0 0 200 158.8;" xml:space="preserve">
<style type="text/css">
	.st0{fill:#070500;stroke:#0B0A07;stroke-linecap:round;stroke-linejoin:round;stroke-miterlimit:10;}
	.st1{fill:#AA9E75;}
	.st2{fill:#B7B3A7;}
	.st3{fill:#070500;}
</style>
<g id="Layer_1">
</g>
<g id="Layer_2">
	<path class="st0" d="M128.1,156.9H26.7c-4.8,0-8.7-3.9-8.7-8.7V12c0-4.8,3.9-8.7,8.7-8.7h101.4c4.8,0,8.7,3.9,8.7,8.7v136.2
		C136.8,153,132.9,156.9,128.1,156.9z"/>
	<g>
		<polygon class="st1" points="22.1,8.6 22.1,151.7 132.7,8.6 		"/>
		<polygon class="st2" points="22.1,151.7 132.7,151.7 132.7,8.6 		"/>
	</g>
	<path class="st3" d="M108.4,108.1l-7.4,6.4l8.3,10.6l11.4,5.4l-6.9-8c-0.5,0.1-1.6-0.1-2-0.6c-0.6-0.7-0.5-1.7,0.2-2.3
		c0.7-0.6,1.7-0.5,2.3,0.2c0.4,0.5,0.5,1.6,0.2,2.1l6.9,8l-3.5-12.1L108.4,108.1z"/>
	<path class="st0" d="M97.9,109.9c-7.2-5.6-18.4-17.9-30.8-32.3C48.5,56,35.5,36.7,38.1,34.4c2.6-2.2,19.7,13.5,38.3,35.1
		c12.5,14.5,22.4,28,26.8,35.9"/>
	
		<rect x="96.6" y="105.9" transform="matrix(0.7579 -0.6523 0.6523 0.7579 -46.7217 93.8041)" class="st1" width="12.8" height="7.9"/>
</g>
</svg>
