<svg xmlns="http://www.w3.org/2000/svg" viewBox="0 0 216.6 135" enable-background="new 0 0 216.6 135"><path d="M0 0l2.2.1h61.6c7.6.1 15.1.9 22.2 3.8 8.6 3.5 15 9.4 18 18.2 3.2 9.7 3.3 19.4-1.4 28.7-2.2 4.5-6 7.7-10.3 10.2-.7.4-1.5.9-2.5 1.5 2 1 3.7 1.8 5.4 2.7 9.2 5.2 13.7 13.5 14.9 23.8 1.1 9.6-.6 18.6-5.7 26.9-4.3 6.9-10.1 12.1-17.7 15.1-8.8 3.4-18 3.9-27.2 3.9-19.1.1-38.2 0-57.2 0l-2.2.1c-.1-45-.1-90-.1-135zm31.1 111.5h16.3c6.2-.1 12.4-.1 18.6-.4 4.5-.3 8.7-1.9 11.8-5.4 4.1-4.8 4.6-10.5 4-16.4-.6-6.6-5.4-11.1-11.4-12.3-3.6-.8-7.3-1.2-10.9-1.3-8.8-.2-17.6 0-26.4-.1-1.6 0-2.1.4-2 2 .1 10.7 0 21.4 0 32.2v1.7zm15.8-58.2c4 0 8.1.1 12.1 0 3-.1 6-.4 8.9-1 4.1-.9 7.9-2.5 9.8-6.6 1.7-3.4 2-7.1 1.3-10.8-.8-5-3.5-8.5-8.6-9.6-3.7-.8-7.5-1.5-11.2-1.6-8.9-.2-17.7-.1-26.6-.2-1.4 0-1.6.6-1.6 1.7 0 8.8.1 17.5 0 26.3 0 1.5.5 1.8 1.9 1.8 4.7-.1 9.4 0 14 0zM216.6 89.6l-1.4-.1h-69c.2 1.9.3 3.6.6 5.2 1.8 10.8 9.4 17.7 20.3 18.5 4.5.3 9 .1 13.2-1.8 3.3-1.5 6-3.7 7.7-6.9.9-1.6 2-2.2 3.8-2.2 7 .1 14.1 0 21.1 0h2.2c-.3 1.6-.5 2.9-.9 4.2-2.7 7.4-7.6 13.3-13.7 18-9.1 7-19.7 9.2-30.8 9.3-12.7.1-24.1-3.8-33.9-11.7-6.9-5.5-10.9-12.9-12.9-21.3-2.9-12.6-2.8-25.3.8-37.8 2.7-9.3 8-16.9 15.8-22.7 9.4-6.8 20-9.2 31.3-8.8 8.5.3 16.7 2 24.2 6.4 5.9 3.4 10.4 8.2 14.1 14 4.6 7.3 6.7 15.4 7.2 23.9 0 .6.2 1.1.3 1.7v12.1zm-26.4-16.8c-.1-11.7-8.3-20.3-21.6-20.4-14.3-.1-20.4 10.2-21.4 20.4h43zM141.5 19.1v-13.3h54.1v12.4c0 .3-.6.7-.9.9-.3.2-.8 0-1.2 0h-52z"/></svg>