<svg xmlns="http://www.w3.org/2000/svg" viewBox="0 0 441.4 698.5" enable-background="new 0 0 441.4 698.5"><style type="text/css">.st0{fill:none;stroke:#523D33;stroke-width:3;stroke-miterlimit:10;} .st1{fill:none;stroke:#CB9772;stroke-width:3;stroke-miterlimit:10;} .st2{fill:#523D33;stroke:#523D33;stroke-miterlimit:10;} .st3{fill:#523D33;} .st4{fill:none;stroke:#523D33;stroke-miterlimit:10;} .st5{fill:#CB9772;} .st6{fill:none;stroke:#CB9772;stroke-miterlimit:10;}</style><path class="st0" d="M81.6 411.4c2.3 8.1 6.5 16.1 8.7 15.5 2.2-.6 1.4-9.7-.9-17.7-2.3-8.1-6.5-16.1-8.7-15.5-2.2.5-1.5 9.6.9 17.7zM105.4 427.7c3.5 7.7 8.8 15 10.9 14 2-.9 0-9.8-3.5-17.4-3.5-7.7-8.8-15-10.9-14-2 1 0 9.8 3.5 17.4zM129 438.6c3.5 7.7 8.8 15 10.9 14 2-.9 0-9.8-3.5-17.4s-8.8-15-10.9-14c-2 .9 0 9.7 3.5 17.4zM158.8 446.5c4.3 4.4 9.9 8.1 11 6.9s-2.5-6.7-6.8-11.1c-4.3-4.4-9.9-8.1-11-6.9-1.1 1.2 2.5 6.7 6.8 11.1zM105.8 383.3c8.4-.1 17.3 1.6 17.3 3.9 0 2.2-8.8 4.2-17.2 4.3-8.4.1-17.3-1.6-17.3-3.9s8.8-4.2 17.2-4.3zM126.3 400.4c8.4-.1 17.3 1.6 17.3 3.9s-8.8 4.2-17.2 4.3-17.3-1.6-17.3-3.9 8.8-4.2 17.2-4.3zM147.2 417.9c8.4.1 17.3 2 17.3 4.2s-8.9 4-17.3 3.9c-8.4-.1-17.3-2-17.3-4.2s8.9-3.9 17.3-3.9zM172 428.8c6.7-1.6 14.1-1.8 14.6 0 .4 1.8-6.3 4.9-13 6.5s-14.1 1.8-14.6 0 6.3-4.9 13-6.5zM168.4 142.8c7.7 3.5 15 8.8 14 10.9s-9.8 0-17.4-3.5c-7.7-3.5-15-8.8-14-10.9.9-2 9.8 0 17.4 3.5zM153.8 119.5c7.7 3.5 15 8.8 14 10.9-.9 2-9.8 0-17.4-3.5-7.7-3.5-15-8.8-14-10.9.9-2 9.8 0 17.4 3.5zM144.8 96.7c7.2 4.3 13.9 10.4 12.7 12.4-1.2 1.9-9.7-1.1-16.9-5.4-7.2-4.3-13.9-10.4-12.7-12.4 1.2-1.9 9.7 1.1 16.9 5.4zM181.9 138.2c0 8.4 1.9 17.3 4.1 17.3s4-8.9 4-17.3-1.9-17.3-4.1-17.3c-2.2 0-4 8.9-4 17.3zM169.4 115.3c0 8.4 1.9 17.3 4.1 17.3s4-8.9 4-17.3-1.9-17.3-4.1-17.3c-2.2 0-4 8.8-4 17.3zM154.1 93.9c1 8.4 3.8 17 6 16.7 2.2-.3 3-9.3 2.1-17.6s-3.8-17-6-16.7c-2.3.2-3.1 9.3-2.1 17.6z"/><path class="st1" d="M359.5 410.6c-2.3 8.1-6.5 16.1-8.7 15.5-2.2-.6-1.4-9.7.9-17.7 2.3-8.1 6.5-16.1 8.7-15.5 2.1.6 1.4 9.6-.9 17.7zM335.6 426.9c-3.5 7.7-8.8 15-10.9 14-2-.9 0-9.8 3.5-17.4s8.8-15 10.9-14c2.1 1 0 9.8-3.5 17.4zM312 437.8c-3.5 7.7-8.8 15-10.9 14-2-.9 0-9.8 3.5-17.4 3.5-7.7 8.8-15 10.9-14s0 9.7-3.5 17.4zM282.2 445.7c-4.3 4.4-9.9 8.1-11 6.9s2.5-6.7 6.8-11.1c4.3-4.4 9.9-8.1 11-6.9s-2.5 6.8-6.8 11.1zM335.3 382.5c-8.4-.1-17.3 1.6-17.3 3.9s8.8 4.2 17.2 4.3c8.4.1 17.3-1.6 17.3-3.9 0-2.2-8.8-4.2-17.2-4.3zM314.7 399.6c-8.4-.1-17.3 1.6-17.3 3.9 0 2.2 8.8 4.2 17.2 4.3 8.4.1 17.3-1.6 17.3-3.9.1-2.3-8.8-4.2-17.2-4.3zM293.9 417.1c-8.4.1-17.3 2-17.3 4.2s8.9 4 17.3 3.9c8.4-.1 17.3-2 17.3-4.2s-8.9-3.9-17.3-3.9zM269.1 428c-6.7-1.6-14.1-1.8-14.6 0-.4 1.8 6.3 4.9 13 6.5s14.1 1.8 14.6 0c.4-1.8-6.3-4.9-13-6.5zM234.2 74.8c-3.3 7.7-8.5 15.2-10.5 14.3-2.1-.9-.2-9.8 3.1-17.5s8.5-15.2 10.5-14.3.2 9.8-3.1 17.5zM234.2 102.9c-3.3 7.7-8.5 15.2-10.5 14.3s-.2-9.8 3.1-17.5 8.5-15.2 10.5-14.3.2 9.8-3.1 17.5zM209.3 74.8c3.3 7.7 8.5 15.2 10.5 14.3 2.1-.9.2-9.8-3.1-17.5s-8.5-15.2-10.5-14.3-.2 9.8 3.1 17.5zM209.3 102.9c3.3 7.7 8.5 15.2 10.5 14.3s.2-9.8-3.1-17.5-8.5-15.2-10.5-14.3-.2 9.8 3.1 17.5zM262.6 128.6c.4 8.4-1 17.4-3.3 17.5-2.2.1-4.5-8.7-4.9-17.1s1-17.4 3.3-17.5c2.3-.1 4.5 8.7 4.9 17.1zM276.7 104.9c.4 8.4-1 17.4-3.3 17.5-2.2.1-4.5-8.7-4.9-17.1s1-17.4 3.3-17.5c2.3-.1 4.5 8.7 4.9 17.1zM291 82.9c-.5 8.4-2.9 17.1-5.2 17-2.2-.1-3.5-9.1-2.9-17.5.5-8.4 2.9-17.1 5.2-17 2.2.1 3.4 9.1 2.9 17.5zM274.1 140.9c-7.5 3.9-14.5 9.6-13.5 11.6s9.8-.5 17.2-4.3c7.5-3.9 14.5-9.6 13.5-11.6s-9.7.4-17.2 4.3zM287.6 116.9c-7.5 3.9-14.5 9.6-13.5 11.6s9.8-.5 17.2-4.3c7.5-3.9 14.5-9.6 13.5-11.6s-9.7.4-17.2 4.3zM299.5 93.5c-7 4.7-13.4 11.1-12.1 13 1.2 1.9 9.6-1.6 16.6-6.2 7-4.7 13.4-11.1 12.1-13-1.2-1.9-9.6 1.5-16.6 6.2z"/><path class="st2" d="M213.8 225.7l6.9-165.5 6.9 165.5"/><path class="st3" d="M262 439.5c92.4-16.3 154-120.7 154-217.7 0-105.3-83-191.6-187-196.9l-.1-23.4c116.6 6.1 211 103 211 221.1 0 107.7-77.1 197.5-179.1 217.1 0 0-28.3 6.7-45.8-25.9 0 0-50.1-74.9 0-176.7 0 0 71.7-145.9 80.2-149.7 0 0-86.8 164.4-91.8 215.7 0 0-14.2 118.3 58.6 136.4z"/><path class="st0" d="M262 439.5c92.4-16.3 154-120.7 154-217.7 0-105.3-83-191.6-187-196.9l-.1-23.4c116.6 6.1 211 103 211 221.1 0 107.7-77.1 197.5-179.1 217.1 0 0-28.3 6.7-45.8-25.9 0 0-50.1-74.9 0-176.7 0 0 71.7-145.9 80.2-149.7 0 0-86.8 164.4-91.8 215.7 0 0-14.2 118.3 58.6 136.4z"/><path class="st4" d="M262 439.5c92.4-16.3 154-120.7 154-217.7 0-105.3-83-191.6-187-196.9l-.1-23.4c116.6 6.1 211 103 211 221.1 0 107.7-77.1 197.5-179.1 217.1 0 0-28.3 6.7-45.8-25.9 0 0-50.1-74.9 0-176.7 0 0 71.7-145.9 80.2-149.7 0 0-86.8 164.4-91.8 215.7 0 0-14.2 118.3 58.6 136.4z"/><path class="st5" d="M179.4 439.5c-92.4-16.3-154-120.7-154-217.7 0-105.3 83-191.6 187-196.9l.1-23.4c-116.6 6.1-211 103-211 221.1 0 107.7 77.1 197.5 179.1 217.1 0 0 28.3 6.7 45.8-25.9 0 0 50.1-74.9 0-176.7 0 0-71.7-145.9-80.2-149.7 0 0 86.8 164.4 91.8 215.7 0 0 14.3 118.3-58.6 136.4z"/><path class="st1" d="M179.4 439.5c-92.4-16.3-154-120.7-154-217.7 0-105.3 83-191.6 187-196.9l.1-23.4c-116.6 6.1-211 103-211 221.1 0 107.7 77.1 197.5 179.1 217.1 0 0 28.3 6.7 45.8-25.9 0 0 50.1-74.9 0-176.7 0 0-71.7-145.9-80.2-149.7 0 0 86.8 164.4 91.8 215.7 0 0 14.3 118.3-58.6 136.4z"/><path class="st6" d="M179.4 439.5c-92.4-16.3-154-120.7-154-217.7 0-105.3 83-191.6 187-196.9l.1-23.4c-116.6 6.1-211 103-211 221.1 0 107.7 77.1 197.5 179.1 217.1 0 0 28.3 6.7 45.8-25.9 0 0 50.1-74.9 0-176.7 0 0-71.7-145.9-80.2-149.7 0 0 86.8 164.4 91.8 215.7 0 0 14.3 118.3-58.6 136.4z"/><path class="st3" d="M73.6 487.6h76.2v3.3h-4c-2.3 0-3 1-5.5 7.3l-5.2 13 11.5 28.3 15.6-42.5c1.3-3.5 0-6.2-3.5-6.2h-4.3v-3.3h21.3v3.3h-4.2c-2.4 0-3.8.7-6.2 7.3l-23.4 64.7h-2.9l-13.5-31.4-13.8 31.4h-3.2l-28.8-72h-6.2v-3.2zm44.3 53l6-13.6-14.6-36.2h-11.6l20.2 49.8zm15.3-33.5l6.6-16.2h-13.3l6.7 16.2zM180.3 561.3v-3.3h8.2v-67.1h-8.2v-3.3h36v3.3h-9.3v67.1h9.3v3.3h-36zM222.4 561.3v-3.3h7.5v-67.1h-7.5v-3.3h36v3.3h-9.9v67.1h12.4c12.5 0 17.1-10.4 20.5-20.8h3.1l-1.1 24.2h-61zM300.2 490.9h-8.3v-3.3h41c19.2 0 34.3 16.9 34.3 36.3 0 24.9-17.3 35.5-31.8 36.8-3.6.3-7.4.6-11.1.6h-32.4v-3.3h8.3v-67.1zm18.5 67.1h10.5c9.6 0 13.8-4.1 15.7-10.3 1-3.2 1.2-6.8 1.2-10.9v-25.9c0-8.7-1.2-11.6-2.1-13.5-2.1-4.6-6-6.5-14.8-6.5h-10.5v67.1zM92.4 616.1c0-22.6 19.9-45.5 42.8-45.5s42.6 22.9 42.6 45.5c0 25.1-15.5 50.2-42.6 50.2s-42.8-25.1-42.8-50.2zm65.2-14.5c0-4.9-.7-9.6-2.1-13.7-2.7-8.4-8.4-13.8-20.4-13.8-12.2 0-18.1 5.5-20.6 13.8-1.2 4.1-2.1 8.8-2.1 13.7v29.9c0 5.3.3 10.6 1.5 15.3 2.5 9.5 8.2 16 21.1 16 13 0 18.6-6.6 21.1-16 1.2-4.8 1.4-10 1.4-15.3v-29.9zM184.9 664.2v-3.4h11.1l32.8-90.2h4.7l31.4 90.2h11v3.4h-43.4v-3.4h14.3l-8.4-24.3h-29.6l-8.5 24.3h14v3.4h-29.4zm25.2-31.1h26.7l-12.9-38.2-13.8 38.2zM291.1 664.2v-3.4h14.4v-84.7c-19.3-1-25.2 8.4-27.7 25.9h-4.4l1.5-29.3h78.5l1.5 29.3h-4.2c-2.5-17.5-8.4-26.9-27.7-25.9v84.7h14.4v3.4h-46.3z"/></svg>