<?xml version="1.0" encoding="utf-8"?>
<!-- Generator: Adobe Illustrator 18.1.0, SVG Export Plug-In . SVG Version: 6.00 Build 0)  -->
<svg version="1.1" id="Layer_1" xmlns="http://www.w3.org/2000/svg" xmlns:xlink="http://www.w3.org/1999/xlink" x="0px" y="0px"
	 viewBox="0 0 441.4 698.5" style="enable-background:new 0 0 441.4 698.5;" xml:space="preserve">
<style type="text/css">
	.st0{fill:none;stroke:#523D33;stroke-width:3;stroke-miterlimit:10;}
	.st1{fill:none;stroke:#CB9772;stroke-width:3;stroke-miterlimit:10;}
	.st2{fill:#523D33;stroke:#523D33;stroke-miterlimit:10;}
	.st3{fill:#523D33;}
	.st4{fill:none;stroke:#523D33;stroke-miterlimit:10;}
	.st5{fill:#CB9772;}
	.st6{fill:none;stroke:#CB9772;stroke-miterlimit:10;}
</style>
<g>
	<path class="st0" d="M81.6,411.4c2.3,8.1,6.5,16.1,8.7,15.5c2.2-0.6,1.4-9.7-0.9-17.7c-2.3-8.1-6.5-16.1-8.7-15.5
		C78.5,394.2,79.2,403.3,81.6,411.4z"/>
	<path class="st0" d="M105.4,427.7c3.5,7.7,8.8,15,10.9,14c2-0.9,0-9.8-3.5-17.4c-3.5-7.7-8.8-15-10.9-14
		C99.9,411.3,101.9,420.1,105.4,427.7z"/>
	<path class="st0" d="M129,438.6c3.5,7.7,8.8,15,10.9,14c2-0.9,0-9.8-3.5-17.4s-8.8-15-10.9-14C123.5,422.1,125.5,430.9,129,438.6z"
		/>
	<path class="st0" d="M158.8,446.5c4.3,4.4,9.9,8.1,11,6.9s-2.5-6.7-6.8-11.1c-4.3-4.4-9.9-8.1-11-6.9
		C150.9,436.6,154.5,442.1,158.8,446.5z"/>
	<path class="st0" d="M105.8,383.3c8.4-0.1,17.3,1.6,17.3,3.9c0,2.2-8.8,4.2-17.2,4.3c-8.4,0.1-17.3-1.6-17.3-3.9
		S97.4,383.4,105.8,383.3z"/>
	<path class="st0" d="M126.3,400.4c8.4-0.1,17.3,1.6,17.3,3.9s-8.8,4.2-17.2,4.3s-17.3-1.6-17.3-3.9
		C109.1,402.4,117.9,400.5,126.3,400.4z"/>
	<path class="st0" d="M147.2,417.9c8.4,0.1,17.3,2,17.3,4.2s-8.9,4-17.3,3.9c-8.4-0.1-17.3-2-17.3-4.2
		C129.9,419.6,138.8,417.9,147.2,417.9z"/>
	<path class="st0" d="M172,428.8c6.7-1.6,14.1-1.8,14.6,0c0.4,1.8-6.3,4.9-13,6.5s-14.1,1.8-14.6,0
		C158.5,433.5,165.3,430.4,172,428.8z"/>
	<path class="st0" d="M168.4,142.8c7.7,3.5,15,8.8,14,10.9s-9.8,0-17.4-3.5c-7.7-3.5-15-8.8-14-10.9
		C151.9,137.3,160.8,139.3,168.4,142.8z"/>
	<path class="st0" d="M153.8,119.5c7.7,3.5,15,8.8,14,10.9c-0.9,2-9.8,0-17.4-3.5c-7.7-3.5-15-8.8-14-10.9
		C137.3,114,146.2,116,153.8,119.5z"/>
	<path class="st0" d="M144.8,96.7c7.2,4.3,13.9,10.4,12.7,12.4c-1.2,1.9-9.7-1.1-16.9-5.4c-7.2-4.3-13.9-10.4-12.7-12.4
		C129.1,89.4,137.6,92.4,144.8,96.7z"/>
	<path class="st0" d="M181.9,138.2c0,8.4,1.9,17.3,4.1,17.3s4-8.9,4-17.3c0-8.4-1.9-17.3-4.1-17.3
		C183.7,120.9,181.9,129.8,181.9,138.2z"/>
	<path class="st0" d="M169.4,115.3c0,8.4,1.9,17.3,4.1,17.3s4-8.9,4-17.3s-1.9-17.3-4.1-17.3C171.2,98,169.4,106.8,169.4,115.3z"/>
	<path class="st0" d="M154.1,93.9c1,8.4,3.8,17,6,16.7c2.2-0.3,3-9.3,2.1-17.6s-3.8-17-6-16.7C153.9,76.5,153.1,85.6,154.1,93.9z"/>
	<path class="st1" d="M359.5,410.6c-2.3,8.1-6.5,16.1-8.7,15.5c-2.2-0.6-1.4-9.7,0.9-17.7c2.3-8.1,6.5-16.1,8.7-15.5
		C362.5,393.5,361.8,402.5,359.5,410.6z"/>
	<path class="st1" d="M335.6,426.9c-3.5,7.7-8.8,15-10.9,14c-2-0.9,0-9.8,3.5-17.4s8.8-15,10.9-14
		C341.2,410.5,339.1,419.3,335.6,426.9z"/>
	<path class="st1" d="M312,437.8c-3.5,7.7-8.8,15-10.9,14c-2-0.9,0-9.8,3.5-17.4c3.5-7.7,8.8-15,10.9-14S315.5,430.1,312,437.8z"/>
	<path class="st1" d="M282.2,445.7c-4.3,4.4-9.9,8.1-11,6.9s2.5-6.7,6.8-11.1c4.3-4.4,9.9-8.1,11-6.9S286.5,441.4,282.2,445.7z"/>
	<path class="st1" d="M335.3,382.5c-8.4-0.1-17.3,1.6-17.3,3.9s8.8,4.2,17.2,4.3c8.4,0.1,17.3-1.6,17.3-3.9
		C352.5,384.6,343.7,382.6,335.3,382.5z"/>
	<path class="st1" d="M314.7,399.6c-8.4-0.1-17.3,1.6-17.3,3.9c0,2.2,8.8,4.2,17.2,4.3c8.4,0.1,17.3-1.6,17.3-3.9
		C332,401.6,323.1,399.7,314.7,399.6z"/>
	<path class="st1" d="M293.9,417.1c-8.4,0.1-17.3,2-17.3,4.2c0,2.2,8.9,4,17.3,3.9c8.4-0.1,17.3-2,17.3-4.2
		C311.2,418.8,302.3,417.1,293.9,417.1z"/>
	<path class="st1" d="M269.1,428c-6.7-1.6-14.1-1.8-14.6,0c-0.4,1.8,6.3,4.9,13,6.5s14.1,1.8,14.6,0
		C282.5,432.7,275.8,429.6,269.1,428z"/>
	<path class="st1" d="M234.2,74.8c-3.3,7.7-8.5,15.2-10.5,14.3c-2.1-0.9-0.2-9.8,3.1-17.5s8.5-15.2,10.5-14.3S237.5,67.1,234.2,74.8
		z"/>
	<path class="st1" d="M234.2,102.9c-3.3,7.7-8.5,15.2-10.5,14.3s-0.2-9.8,3.1-17.5s8.5-15.2,10.5-14.3S237.5,95.2,234.2,102.9z"/>
	<path class="st1" d="M209.3,74.8c3.3,7.7,8.5,15.2,10.5,14.3c2.1-0.9,0.2-9.8-3.1-17.5s-8.5-15.2-10.5-14.3S206,67.1,209.3,74.8z"
		/>
	<path class="st1" d="M209.3,102.9c3.3,7.7,8.5,15.2,10.5,14.3s0.2-9.8-3.1-17.5s-8.5-15.2-10.5-14.3S206,95.2,209.3,102.9z"/>
	<path class="st1" d="M262.6,128.6c0.4,8.4-1,17.4-3.3,17.5c-2.2,0.1-4.5-8.7-4.9-17.1s1-17.4,3.3-17.5
		C260,111.4,262.2,120.2,262.6,128.6z"/>
	<path class="st1" d="M276.7,104.9c0.4,8.4-1,17.4-3.3,17.5c-2.2,0.1-4.5-8.7-4.9-17.1s1-17.4,3.3-17.5
		C274.1,87.7,276.3,96.5,276.7,104.9z"/>
	<path class="st1" d="M291,82.9c-0.5,8.4-2.9,17.1-5.2,17c-2.2-0.1-3.5-9.1-2.9-17.5c0.5-8.4,2.9-17.1,5.2-17
		C290.3,65.5,291.5,74.5,291,82.9z"/>
	<path class="st1" d="M274.1,140.9c-7.5,3.9-14.5,9.6-13.5,11.6c1,2,9.8-0.5,17.2-4.3c7.5-3.9,14.5-9.6,13.5-11.6
		C290.3,134.6,281.6,137,274.1,140.9z"/>
	<path class="st1" d="M287.6,116.9c-7.5,3.9-14.5,9.6-13.5,11.6c1,2,9.8-0.5,17.2-4.3c7.5-3.9,14.5-9.6,13.5-11.6
		S295.1,113,287.6,116.9z"/>
	<path class="st1" d="M299.5,93.5c-7,4.7-13.4,11.1-12.1,13c1.2,1.9,9.6-1.6,16.6-6.2c7-4.7,13.4-11.1,12.1-13
		C314.9,85.4,306.5,88.8,299.5,93.5z"/>
	<polyline class="st2" points="213.8,225.7 220.7,60.2 227.6,225.7 	"/>
	<g>
		<path class="st3" d="M262,439.5c92.4-16.3,154-120.7,154-217.7c0-105.3-83-191.6-187-196.9l-0.1-23.4c116.6,6.1,211,103,211,221.1
			c0,107.7-77.1,197.5-179.1,217.1c0,0-28.3,6.7-45.8-25.9c0,0-50.1-74.9,0-176.7c0,0,71.7-145.9,80.2-149.7
			c0,0-86.8,164.4-91.8,215.7C203.4,303.1,189.2,421.4,262,439.5z"/>
		<path class="st0" d="M262,439.5c92.4-16.3,154-120.7,154-217.7c0-105.3-83-191.6-187-196.9l-0.1-23.4c116.6,6.1,211,103,211,221.1
			c0,107.7-77.1,197.5-179.1,217.1c0,0-28.3,6.7-45.8-25.9c0,0-50.1-74.9,0-176.7c0,0,71.7-145.9,80.2-149.7
			c0,0-86.8,164.4-91.8,215.7C203.4,303.1,189.2,421.4,262,439.5z"/>
		<path class="st4" d="M262,439.5c92.4-16.3,154-120.7,154-217.7c0-105.3-83-191.6-187-196.9l-0.1-23.4c116.6,6.1,211,103,211,221.1
			c0,107.7-77.1,197.5-179.1,217.1c0,0-28.3,6.7-45.8-25.9c0,0-50.1-74.9,0-176.7c0,0,71.7-145.9,80.2-149.7
			c0,0-86.8,164.4-91.8,215.7C203.4,303.1,189.2,421.4,262,439.5z"/>
	</g>
	<g>
		<path class="st5" d="M179.4,439.5c-92.4-16.3-154-120.7-154-217.7c0-105.3,83-191.6,187-196.9l0.1-23.4
			c-116.6,6.1-211,103-211,221.1c0,107.7,77.1,197.5,179.1,217.1c0,0,28.3,6.7,45.8-25.9c0,0,50.1-74.9,0-176.7
			c0,0-71.7-145.9-80.2-149.7c0,0,86.8,164.4,91.8,215.7C238,303.1,252.3,421.4,179.4,439.5z"/>
		<path class="st1" d="M179.4,439.5c-92.4-16.3-154-120.7-154-217.7c0-105.3,83-191.6,187-196.9l0.1-23.4
			c-116.6,6.1-211,103-211,221.1c0,107.7,77.1,197.5,179.1,217.1c0,0,28.3,6.7,45.8-25.9c0,0,50.1-74.9,0-176.7
			c0,0-71.7-145.9-80.2-149.7c0,0,86.8,164.4,91.8,215.7C238,303.1,252.3,421.4,179.4,439.5z"/>
		<path class="st6" d="M179.4,439.5c-92.4-16.3-154-120.7-154-217.7c0-105.3,83-191.6,187-196.9l0.1-23.4
			c-116.6,6.1-211,103-211,221.1c0,107.7,77.1,197.5,179.1,217.1c0,0,28.3,6.7,45.8-25.9c0,0,50.1-74.9,0-176.7
			c0,0-71.7-145.9-80.2-149.7c0,0,86.8,164.4,91.8,215.7C238,303.1,252.3,421.4,179.4,439.5z"/>
	</g>
	<g>
		<path class="st3" d="M73.6,487.6h76.2v3.3h-4c-2.3,0-3,1-5.5,7.3l-5.2,13l11.5,28.3l15.6-42.5c1.3-3.5,0-6.2-3.5-6.2h-4.3v-3.3
			h21.3v3.3h-4.2c-2.4,0-3.8,0.7-6.2,7.3l-23.4,64.7H139l-13.5-31.4l-13.8,31.4h-3.2l-28.8-72h-6.2V487.6z M117.9,540.6l6-13.6
			l-14.6-36.2H97.7L117.9,540.6z M133.2,507.1l6.6-16.2h-13.3L133.2,507.1z"/>
		<path class="st3" d="M180.3,561.3V558h8.2v-67.1h-8.2v-3.3h36v3.3H207V558h9.3v3.3H180.3z"/>
		<path class="st3" d="M222.4,561.3V558h7.5v-67.1h-7.5v-3.3h36v3.3h-9.9V558h12.4c12.5,0,17.1-10.4,20.5-20.8h3.1l-1.1,24.2H222.4z
			"/>
		<path class="st3" d="M300.2,490.9h-8.3v-3.3h41c19.2,0,34.3,16.9,34.3,36.3c0,24.9-17.3,35.5-31.8,36.8c-3.6,0.3-7.4,0.6-11.1,0.6
			h-32.4V558h8.3V490.9z M318.7,558h10.5c9.6,0,13.8-4.1,15.7-10.3c1-3.2,1.2-6.8,1.2-10.9v-25.9c0-8.7-1.2-11.6-2.1-13.5
			c-2.1-4.6-6-6.5-14.8-6.5h-10.5V558z"/>
	</g>
	<g>
		<path class="st3" d="M92.4,616.1c0-22.6,19.9-45.5,42.8-45.5s42.6,22.9,42.6,45.5c0,25.1-15.5,50.2-42.6,50.2
			S92.4,641.2,92.4,616.1z M157.6,601.6c0-4.9-0.7-9.6-2.1-13.7c-2.7-8.4-8.4-13.8-20.4-13.8c-12.2,0-18.1,5.5-20.6,13.8
			c-1.2,4.1-2.1,8.8-2.1,13.7v29.9c0,5.3,0.3,10.6,1.5,15.3c2.5,9.5,8.2,16,21.1,16c13,0,18.6-6.6,21.1-16c1.2-4.8,1.4-10,1.4-15.3
			V601.6z"/>
		<path class="st3" d="M184.9,664.2v-3.4H196l32.8-90.2h4.7l31.4,90.2h11v3.4h-43.4v-3.4h14.3l-8.4-24.3h-29.6l-8.5,24.3h14v3.4
			H184.9z M210.1,633.1h26.7l-12.9-38.2L210.1,633.1z"/>
		<path class="st3" d="M291.1,664.2v-3.4h14.4v-84.7c-19.3-1-25.2,8.4-27.7,25.9h-4.4l1.5-29.3h78.5l1.5,29.3h-4.2
			c-2.5-17.5-8.4-26.9-27.7-25.9v84.7h14.4v3.4H291.1z"/>
	</g>
</g>
</svg>
