<?xml version="1.0" encoding="utf-8"?>
<!-- Generator: Adobe Illustrator 18.1.0, SVG Export Plug-In . SVG Version: 6.00 Build 0)  -->
<svg version="1.1" id="Layer_1" xmlns="http://www.w3.org/2000/svg" xmlns:xlink="http://www.w3.org/1999/xlink" x="0px" y="0px"
	 viewBox="0 0 286.4 152.6" style="enable-background:new 0 0 286.4 152.6;" xml:space="preserve">
<style type="text/css">
	.st0{fill:#545456;}
	.st1{fill:#B48324;}
</style>
<g>
	<g>
		<path class="st0" d="M37,152.2v-27h1.6l11.5,25.3l11.5-25.3h1.6v27h-1v-25.9l-11.8,25.9h-0.6L38,126.2v25.9H37z"/>
		<path class="st0" d="M93.6,146.3c-1.7,3.1-5.6,6.4-10.9,6.4c-7.1,0-12.9-5.9-12.9-14c0-8.1,5.8-14,12.9-14c5.3,0,9.1,3.4,10.9,6.5
			h-1.2c-0.9-1.4-4.2-5.5-9.7-5.5c-6.6,0-11.9,5.5-11.9,13s5.3,13,11.9,13c5.8,0,9-4.3,9.7-5.4H93.6z"/>
		<path class="st0" d="M105.6,125.1c3,0,4.6,0.3,6.2,1.6c1.5,1.2,2.5,3.6,2.5,6.1s-1,4.9-2.5,6.1c-1.6,1.3-3.3,1.6-6.2,1.6h-4.8
			v11.7h-1v-27H105.6z M100.8,139.5h4.8c2.8,0,4.2-0.4,5.7-1.5c1.2-0.9,2.1-3.1,2.1-5.1c0-2.1-0.8-4.3-2.1-5.2
			c-1.4-1.1-2.8-1.5-5.7-1.5h-4.8V139.5z"/>
		<path class="st0" d="M116.1,152.2H115l10.7-27h1.3l10.7,27h-1.1l-3.7-9.4h-13L116.1,152.2z M126.3,126.1l-6.1,15.6h12.1
			L126.3,126.1z"/>
		<path class="st0" d="M142.8,125.1h5.7c3.9,0,5.4,0.4,6.6,1.1c2,1.1,3.6,4.1,3.6,7.2c0.1,1.7-0.4,3.8-1.6,5.5
			c-1.8,2.6-3.9,2.9-6.7,3l6.7,10.2h-1.3l-7.3-11.2h0.7c1.8,0,4.8,0,6.4-1.7c1.6-1.8,2.1-3.7,2.1-5.8c0-2.3-1-4.9-3-6.3
			c-1.5-1.1-3.3-1.1-6.3-1.1h-4.7v26h-1V125.1z"/>
		<path class="st0" d="M168.7,126.1h-6.8v-1h14.5v1h-6.8v26h-1V126.1z"/>
		<path class="st0" d="M181.9,125.1h1v26h10.5v1h-11.5V125.1z"/>
		<path class="st0" d="M197.6,152.2h-1.1l10.7-27h1.3l10.7,27H218l-3.7-9.4h-13L197.6,152.2z M207.8,126.1l-6.1,15.6h12.1
			L207.8,126.1z"/>
		<path class="st0" d="M243.3,150.7v-25.6h1v27H243l-17.4-25.9v25.9h-1v-27h1.5L243.3,150.7z"/>
		<path class="st0" d="M252.1,125.1h7c3.9,0,7.1,1.2,9.2,3.6c2.2,2.3,3.3,5.7,3.3,9.9c0,8.5-4.7,13.5-12.5,13.5h-7V125.1z
			 M253.2,151.2h6c7.2,0,11.5-4.6,11.5-12.5c0-3.9-1-7.1-3-9.3c-2-2.2-4.8-3.3-8.5-3.3h-6V151.2z"/>
	</g>
	<g>
		<g>
			<path class="st1" d="M162.2,73.2c-4.3,0-7.7-3-7.8-6.7c-0.1-1.9,0.8-3.7,2.3-5.1c1.4-1.3,3.4-2,5.4-2.1l0.3,0
				c4.3,0,7.7,3,7.8,6.7c0.1,1.9-0.8,3.7-2.3,5.1c-1.4,1.3-3.4,2-5.4,2.1L162.2,73.2z M162.3,62.9c-1.4,0-2.5,0.5-3.3,1.2
				c-0.7,0.7-1.1,1.5-1.1,2.4c0,1.8,2,3.3,4.3,3.3v1.8l0.2-1.8c1.2,0,2.3-0.5,3.1-1.2c0.7-0.7,1.1-1.5,1.1-2.4
				C166.5,64.4,164.6,62.9,162.3,62.9z"/>
		</g>
		<g>
			<path class="st1" d="M100.5,75.1c-4.6,0-8.3-3.1-8.4-7.2c-0.1-2.8,1.6-5.4,4.5-6.8c1.1-0.5,2.4-0.8,3.8-0.9l0.3,0
				c4.6,0,8.3,3.1,8.4,7.2c0.1,2-0.8,4-2.4,5.4c-1.5,1.4-3.6,2.2-5.8,2.2L100.5,75.1z M100.6,63.8c-1,0-1.8,0.2-2.5,0.5
				c-1.6,0.7-2.5,2.1-2.5,3.5c0.1,2.1,2.2,3.7,4.8,3.7v1.8l0.2-1.8c1.4,0,2.6-0.5,3.5-1.3c0.8-0.7,1.3-1.7,1.3-2.7
				C105.4,65.5,103.2,63.8,100.6,63.8z"/>
		</g>
		<g>
			<path class="st1" d="M156.2,70.8C134,47,108.8,59.4,99.3,64.1c-1.2,0.6-2.1,1-2.8,1.3l-1.3-3.3c0.6-0.2,1.4-0.6,2.5-1.2
				c9.2-4.5,37-18.2,61.1,7.5L156.2,70.8z"/>
		</g>
		<g>
			<path class="st1" d="M15.5,116.5c-1,0-2-0.2-2.9-0.5C0.7,111.7,0,80.8,0,77.3C1.8,29.1,36.8,4.1,37.2,3.8
				c7.4-4.2,12.4-4.9,15.4-2.2c6.2,5.5-1,23.1-2.5,26.6l-3.2-1.4c3.3-7.7,6.6-19.8,3.4-22.6c-1.6-1.5-5.6-0.5-11.2,2.6
				C38.9,6.9,5.3,31.1,3.5,77.4c0.1,8.8,2.1,32.4,10.2,35.3c4.3,1.5,9.8-3.6,13.7-8.2c0.1-0.1,8.9-12.3,15.8-25.2l7.9-21
				c0.3-0.8,1.2-1.3,2.1-1.1c0.9,0.2,1.4,1,1.3,1.9c-0.6,5.3-3.2,11.9-6.4,18.4c1.9-0.8,4-1.1,5.7,0c2.4,1.6,4.3,5.9-2.6,24.4
				c0,0.8,0.3,1.7,0.5,1.9c0.1,0,3.7,0.1,16.4-21.6c0.3-0.5,0.9-0.9,1.5-0.9l8.1-0.2c0.5,0,1,0.2,1.4,0.6c0.3,0.4,0.5,0.9,0.4,1.4
				c-1.1,8.3-0.8,18,1.5,19.1c0.7,0.3,2.4-0.3,5.1-3.2c3.1-6,6.3-13,7.1-16l0.2-1.4c0.1-0.9,1-1.5,1.9-1.5c0.9,0.1,1.6,0.8,1.7,1.7
				c0,0.4-0.1,0.9-0.2,1.5l-2.5,16.5c0.3,0.5,1.1,1.2,2.2,1.2c1.7,0,6.5-1.6,14.7-16.9c0.3-0.5,0.8-0.9,1.4-0.9
				c0.6-0.1,1.2,0.2,1.5,0.6c1.7,2.1,10.1,12.7,6.4,18.5c-2.5,3.8-8.8,4.2-20,1.1c-1.4,0.8-2.8,1.2-4.1,1.1c-3-0.1-4.9-2.3-5.5-3.7
				c-0.1-0.3-0.2-0.7-0.1-1l0.5-3.3c-0.8,1.7-1.6,3.2-2.1,4.1c-0.1,0.1-0.2,0.3-0.3,0.4c-1.4,1.5-5.6,5.9-9.4,4.1
				c-5-2.4-4.4-14.7-3.7-20.7L70.7,85c-12.4,21.1-17.1,23.1-20,22.3c-3-0.9-3-5.1-3-5.6c0-0.2,0-0.4,0.1-0.6
				c6.7-18.1,4.3-20.4,4-20.6c-0.9-0.6-4.3,1.2-6.6,3.2c-0.1,0.1-0.3,0.2-0.4,0.3c-6.5,11.8-14,22-14.5,22.7
				C24.7,113.3,19.8,116.5,15.5,116.5z M104,101.1c10.3,2.5,12.9,0.7,13.5-0.3c1.5-2.3-1.4-8-4.5-12.3
				C109.8,94.2,106.8,98.4,104,101.1z"/>
		</g>
		<g>
			<path class="st1" d="M120,103.3l-2-2.9l1,1.4l-1-1.4c0.2-0.1,20-15.1,38.2-81.9l3.4,0.9C140.9,87.7,120.8,102.7,120,103.3z"/>
		</g>
		<g>
			<path class="st1" d="M140,102.7c-7.3,0-12.3-10.6-12.8-11.9l3.2-1.4c1.3,2.8,5.5,10.1,9.9,9.8c2.4-0.2,7.1-3,12-20l3.4,1
				c-4.2,14.8-9.1,22.1-15.1,22.6C140.4,102.7,140.2,102.7,140,102.7z"/>
		</g>
		<g>
			<path class="st1" d="M156.6,103.1c-0.8,0-1.6-0.2-2.3-0.6c-5.5-3.2-3-18.6-2.1-23.2l3.5,0.7c-1.6,8.4-1.9,18.2,0.4,19.5
				c0.5,0.3,1.9,0,4.1-1.7c1.1-2.7,7.2-15.6,18.6-13.1c1.7,0.4,2.9,1.9,3,3.7l0.8,12.6l-3.5,0.2l-0.8-12.6c0-0.2-0.2-0.4-0.3-0.5
				c-9.4-2.1-14.7,11.2-14.7,11.3c-0.1,0.3-0.3,0.5-0.5,0.7C160.4,102.1,158.4,103.1,156.6,103.1z"/>
		</g>
		<g>
			<path class="st1" d="M202.2,104.9l-3.5-0.1l0.3-12.6c-6.5,7.1-12.7,8.9-13.8,9.2c-9.5,3.7-16.6,4.3-20.9,1.7
				c-3.3-1.9-3.7-4.8-3.7-5.2l3.5-0.5c0,0.1,0.3,1.6,2.1,2.7c2.3,1.3,7.3,2.1,17.9-2.1c0.1,0,0.2-0.1,0.3-0.1c0.1,0,8-1.8,15.1-12
				c0.4-0.6,1.3-0.9,2-0.7c0.7,0.2,1.2,0.9,1.2,1.7L202.2,104.9z"/>
		</g>
		<g>
			<path class="st1" d="M214.3,108.2l-3.5-0.6l2.7-14.9c0-0.1,0.1-0.2,0.1-0.3c1.2-3.1,1.1-4.7,0.6-5.2c-1.5-1.3-7.7,0.5-12.6,3.1
				L200,87c2-1.1,12.5-6.3,16.6-2.6c2.8,2.5,1.1,7.2,0.4,9L214.3,108.2z"/>
		</g>
		<g>
			<g>
				<path class="st1" d="M225.6,109.6l-3.5-0.6l2.8-16.2c-3.9,3.4-9.8,15-10.6,15.4l-0.3-5.5c2.9-1.5,10.3-12.8,12.2-16.5
					c0.4-0.8,1.3-1.1,2.1-0.9c0.8,0.3,1.3,1.1,1.2,2L225.6,109.6z"/>
			</g>
		</g>
		<g>
			<g>
				<path class="st1" d="M78.2,117.7c0.3-0.2,0.9-0.9,0.6-1.7l-3.4,1l0.3-1.7c1.7-2.3,17.9-0.7,190.7-2c-4.6-2.2-8-5.1-10.5-8
					c-8.8,4.4-17.9,1.7-18,1.6c-0.4-0.1-0.8-0.5-1-0.9c-0.2-0.4-0.3-0.9-0.1-1.3c4.6-14.6,2.5-18.1,1.3-18.9
					c-2.1-1.5-7.2,1.1-9.3,2.6l-2.1-2.9c0.9-0.6,8.7-6,13.5-2.6c3.7,2.7,3.9,9.6,0.5,21c2.6,0.5,7.9,1,13.1-1.5
					c-2.8-4.2-3.8-7.7-3.8-7.8c0-0.1-0.1-0.3-0.1-0.5c0.1-12,4.8-14.3,7.6-14.6c4.4-0.4,8.9,3.4,9.7,6.9c0.7,3.3,0.1,6.8-1.7,9.7
					c-2,3.2-4.2,5.6-6.6,7.3c4.2,4.8,11.4,9.6,23.3,9.6c0.9,0,1.6,0,2.2,0.1c0.1,0,0.1,0,0.1,0v0c1.4,0.1,1.9,0.5,1.9,1.7
					c0,1.2-0.1,1.6-1.9,1.7l0,0c-0.1,0-0.2,0-0.3,0c-0.9,0.1-2.2,0.1-4.1,0.1l-12.5,0.1C146.6,117.7,82.9,115.4,78.2,117.7z
					 M253.4,94c0.2,0.8,1.2,3.6,3.3,6.7c2.1-1.5,4-3.5,5.7-6.3c1.3-2.1,1.7-4.7,1.2-7.1c-0.4-1.7-3.4-4.4-5.9-4.1
					C255.1,83.4,253.5,87.3,253.4,94z"/>
			</g>
		</g>
	</g>
</g>
</svg>
