<?xml version="1.0" encoding="utf-8"?>
<!-- Generator: Adobe Illustrator 20.0.0, SVG Export Plug-In . SVG Version: 6.00 Build 0)  -->
<svg version="1.1" id="Layer_1" xmlns="http://www.w3.org/2000/svg" xmlns:xlink="http://www.w3.org/1999/xlink" x="0px" y="0px"
	 viewBox="0 0 94.6 51.1" style="enable-background:new 0 0 94.6 51.1;" xml:space="preserve">
<style type="text/css">
	.st0{fill:#FFFFFF;}
	.st1{fill:none;stroke:#FFFFFF;stroke-miterlimit:10;}
</style>
<g>
	<g>
		<path class="st0" d="M23.1,50.9v-8.2h0.5l3.5,7.7l3.5-7.7H31v8.2h-0.3V43l-3.6,7.9H27L23.4,43v7.9H23.1z"/>
		<path class="st0" d="M40.3,49.1c-0.5,0.9-1.7,1.9-3.3,1.9c-2.2,0-3.9-1.8-3.9-4.3c0-2.5,1.8-4.3,3.9-4.3c1.6,0,2.8,1,3.3,2H40
			c-0.3-0.4-1.3-1.7-3-1.7c-2,0-3.6,1.7-3.6,4c0,2.3,1.6,4,3.6,4c1.8,0,2.7-1.3,3-1.6H40.3z"/>
		<path class="st0" d="M44,42.7c0.9,0,1.4,0.1,1.9,0.5c0.5,0.4,0.8,1.1,0.8,1.8c0,0.7-0.3,1.5-0.8,1.8c-0.5,0.4-1,0.5-1.9,0.5h-1.5
			v3.6h-0.3v-8.2H44z M42.5,47.1H44c0.9,0,1.3-0.1,1.7-0.5c0.4-0.3,0.6-0.9,0.6-1.6c0-0.6-0.3-1.3-0.6-1.6C45.3,43.1,44.8,43,44,43
			h-1.5V47.1z"/>
		<path class="st0" d="M47.2,50.9h-0.3l3.2-8.2h0.4l3.2,8.2h-0.3L52.3,48h-4L47.2,50.9z M50.3,43l-1.8,4.8h3.7L50.3,43z"/>
		<path class="st0" d="M55.3,42.7H57c1.2,0,1.7,0.1,2,0.3c0.6,0.3,1.1,1.2,1.1,2.2c0,0.5-0.1,1.2-0.5,1.7c-0.6,0.8-1.2,0.9-2,0.9
			l2,3.1h-0.4l-2.2-3.4h0.2c0.6,0,1.5,0,1.9-0.5c0.5-0.5,0.6-1.1,0.6-1.8c0-0.7-0.3-1.5-0.9-1.9C58.5,43,57.9,43,57,43h-1.4v7.9
			h-0.3V42.7z"/>
		<path class="st0" d="M63.2,43h-2.1v-0.3h4.4V43h-2.1v7.9h-0.3V43z"/>
		<path class="st0" d="M67.2,42.7h0.3v7.9h3.2v0.3h-3.5V42.7z"/>
		<path class="st0" d="M72,50.9h-0.3l3.2-8.2h0.4l3.2,8.2h-0.3L77.1,48h-4L72,50.9z M75.1,43l-1.8,4.8H77L75.1,43z"/>
		<path class="st0" d="M85.9,50.5v-7.8h0.3v8.2h-0.4L80.6,43v7.9h-0.3v-8.2h0.5L85.9,50.5z"/>
		<path class="st0" d="M88.6,42.7h2.1c1.2,0,2.2,0.4,2.8,1.1c0.7,0.7,1,1.7,1,3c0,2.6-1.4,4.1-3.8,4.1h-2.1V42.7z M88.9,50.6h1.8
			c2.2,0,3.5-1.4,3.5-3.8c0-1.2-0.3-2.2-0.9-2.8c-0.6-0.7-1.5-1-2.6-1h-1.8V50.6z"/>
	</g>
	<g>
		<g>
			<path class="st0" d="M53.2,24c-1.4,0-2.5-1-2.6-2.2c0-0.6,0.2-1.2,0.7-1.7c0.5-0.4,1.1-0.7,1.8-0.7l0.1,0c1.4,0,2.5,1,2.6,2.2
				c0,0.6-0.2,1.2-0.7,1.7C54.6,23.8,54,24,53.2,24L53.2,24z M53.2,20.6c-0.4,0-0.8,0.2-1.1,0.4c-0.2,0.2-0.4,0.5-0.4,0.8
				c0,0.6,0.6,1.1,1.4,1.1v0.6l0.1-0.6c0.4,0,0.8-0.1,1-0.4c0.2-0.2,0.4-0.5,0.4-0.8C54.6,21.1,54,20.6,53.2,20.6z"/>
		</g>
		<g>
			<path class="st0" d="M33,24.6c-1.5,0-2.7-1-2.7-2.4c0-0.9,0.5-1.8,1.5-2.2c0.4-0.2,0.8-0.3,1.2-0.3l0.1,0c1.5,0,2.7,1,2.7,2.4
				c0,0.7-0.3,1.3-0.8,1.8C34.5,24.4,33.8,24.6,33,24.6L33,24.6z M33,20.9c-0.3,0-0.6,0.1-0.8,0.2c-0.5,0.2-0.8,0.7-0.8,1.1
				c0,0.7,0.7,1.2,1.6,1.2v0.6l0.1-0.6c0.4,0,0.9-0.2,1.2-0.4c0.3-0.2,0.4-0.6,0.4-0.9C34.6,21.5,33.9,20.9,33,20.9z"/>
		</g>
		<g>
			<path class="st0" d="M5.1,38.2c-0.3,0-0.6-0.1-1-0.2C0.2,36.6,0,26.5,0,25.4C0.6,9.6,12.1,1.3,12.2,1.2c2.4-1.4,4.1-1.6,5.1-0.7
				c2,1.8-0.3,7.6-0.8,8.7l-1.1-0.5c1.1-2.5,2.1-6.5,1.1-7.4c-0.5-0.5-1.8-0.2-3.7,0.8c-0.1,0-11.1,8-11.7,23.1
				C1.2,28.3,1.8,36,4.5,37c1.4,0.5,3.2-1.2,4.5-2.7c0,0,2.9-4,5.2-8.3l2.6-6.9c0.1-0.3,0.4-0.4,0.7-0.4c0.3,0.1,0.5,0.3,0.4,0.6
				c-0.2,1.7-1,3.9-2.1,6c0.6-0.3,1.3-0.4,1.9,0c0.8,0.5,1.4,1.9-0.8,8c0,0.3,0.1,0.6,0.2,0.6c0,0,1.2,0,5.4-7.1
				c0.1-0.2,0.3-0.3,0.5-0.3l2.7-0.1c0.2,0,0.3,0.1,0.4,0.2s0.2,0.3,0.1,0.5c-0.4,2.7-0.3,5.9,0.5,6.3c0.2,0.1,0.8-0.1,1.7-1
				c1-2,2.1-4.3,2.3-5.2l0.1-0.4c0-0.3,0.3-0.5,0.6-0.5c0.3,0,0.5,0.3,0.5,0.6c0,0.1,0,0.3-0.1,0.5l-0.8,5.4
				c0.1,0.2,0.3,0.4,0.7,0.4c0.6,0,2.1-0.5,4.8-5.5c0.1-0.2,0.3-0.3,0.5-0.3c0.2,0,0.4,0.1,0.5,0.2c0.6,0.7,3.3,4.2,2.1,6.1
				c-0.8,1.3-2.9,1.4-6.6,0.4c-0.5,0.3-0.9,0.4-1.4,0.4c-1,0-1.6-0.8-1.8-1.2c0-0.1-0.1-0.2-0.1-0.1l-0.1-0.6
				c-0.2,0.4-0.3,0.4-0.4,0.7c0,0-0.1,0.1-0.1,0.1c-0.5,0.5-1.8,1.9-3.1,1.4c-1.7-0.8-1.4-4.8-1.2-6.8l-1.7,0
				c-4.1,6.9-5.6,7.6-6.6,7.3c-1-0.3-1-1.7-1-1.8c0-0.1,0-0.1,0-0.2c2.2-5.9,1.4-6.7,1.3-6.8c-0.3-0.2-1.4,0.4-2.2,1
				c0,0-0.1,0.1-0.1,0.1c-2.1,3.9-4.6,7.2-4.8,7.5C8.1,37.2,6.5,38.2,5.1,38.2z M34.1,33.2c3.4,0.8,4.2,0.2,4.4-0.1
				c0.5-0.8-0.5-2.6-1.5-4C36,30.9,35,32.3,34.1,33.2z"/>
		</g>
		<g>
			<path class="st0" d="M39.3,33.9l-0.7-0.9l0.3,0.5l-0.3-0.5c0.1,0,6.6-5,12.5-26.9l1.1,0.3C46.2,28.8,39.6,33.7,39.3,33.9z"/>
		</g>
		<g>
			<path class="st0" d="M45.9,33.7c-2.4,0-4-3.5-4.2-3.9l1.1-0.5c0.4,0.9,1.8,3.3,3.3,3.2c0.8-0.1,2.3-1,3.9-6.6l1.1,0.3
				c-1.4,4.8-3,7.3-5,7.4C46.1,33.7,46,33.7,45.9,33.7z"/>
		</g>
		<g>
			<path class="st0" d="M51.4,33.8c-0.3,0-0.5-0.1-0.7-0.2c-1.8-1.1-1-6.1-0.7-7.6l1.1,0.2c-0.5,2.7-0.6,6,0.1,6.4
				c0.2,0.1,0.6,0,1.3-0.6c0.4-0.9,2.4-5.1,6.1-4.3c0.5,0.1,1,0.6,1,1.2l0.3,4.1l-1.2,0.1L58.5,29c0-0.1-0.1-0.1-0.1-0.2
				c-3.1-0.7-4.8,3.7-4.8,3.7c0,0.1-0.1,0.2-0.2,0.2C52.6,33.5,51.9,33.8,51.4,33.8z"/>
		</g>
		<g>
			<path class="st0" d="M66.3,34.4l-1.2,0l0.1-4.1c-2.1,2.3-4.2,2.9-4.5,3c-3.1,1.2-5.4,1.4-6.9,0.6c-1.1-0.6-1.2-1.6-1.2-1.7
				l1.1-0.2c0,0,0.1,0.5,0.7,0.9c0.8,0.4,2.4,0.7,5.9-0.7c0,0,0.1,0,0.1,0c0,0,2.6-0.6,5-3.9c0.1-0.2,0.4-0.3,0.7-0.2
				c0.2,0.1,0.4,0.3,0.4,0.6L66.3,34.4z"/>
		</g>
		<g>
			<path class="st0" d="M70.3,35.5l-1.1-0.2l0.9-4.9c0,0,0-0.1,0-0.1c0.4-1,0.4-1.6,0.2-1.7c-0.5-0.4-2.5,0.2-4.1,1l-0.5-1
				c0.7-0.4,4.1-2.1,5.4-0.9c0.9,0.8,0.4,2.4,0.1,2.9L70.3,35.5z"/>
		</g>
		<g>
			<g>
				<path class="st0" d="M74,35.9l-1.1-0.2l0.9-5.3c-1.3,1.1-2.9,3-3.2,3.1l-0.5-1c0.9-0.5,3.5-3.1,4.1-4.3c0.1-0.3,0.4-0.4,0.7-0.3
					c0.3,0.1,0.4,0.4,0.4,0.6L74,35.9z"/>
			</g>
		</g>
		<g>
			<g>
				<path class="st0" d="M25.6,39.9c0.1-0.1,0.3-0.3,0.2-0.6l-1.1,0.3l0.1-0.6c0.6-0.8,5.9-1.5,62.6-1.9c-1.5-0.7-2.6-1.7-3.5-2.6
					c-2.9,1.4-5.9,0.6-5.9,0.5c-0.1,0-0.3-0.1-0.3-0.3c-0.1-0.1-0.1-0.3,0-0.4c1.5-4.8,0.8-5.9,0.4-6.2c-0.7-0.5-2.4,0.4-3.1,0.9
					l-0.7-0.9c0.3-0.2,2.9-2,4.4-0.9c1.2,0.9,1.3,3.1,0.2,6.9c0.9,0.2,2.6,0.3,4.3-0.5c-1-0.9-1.2-2.5-1.3-2.6c0,0,0-0.1,0-0.2
					c0-4,1.6-4.7,2.5-4.8c1.4-0.1,2.9,1.1,3.2,2.3c0.2,1.1,0,2.2-0.5,3.2c-0.6,1.1-1.4,1.8-2.2,2.4c1.4,1.6,3.8,3.1,7.7,3.2
					c0.3,0,0.5,0,0.7,0c0,0,0,0,0,0v0c0.5,0,0.6,0.2,0.6,0.6c0,0.4,0,0.5-0.6,0.6l0,0c0,0,0,0-0.1,0c-0.3,0-0.7,0-1.3,0l-4.1,0
					C48.1,38.6,27.2,39.1,25.6,39.9z M83.2,30.8c0.1,0.3,0.3,1.5,1,2.2c0.7-0.5,1.3-1.2,1.9-2.1c0.4-0.7,0.6-1.5,0.4-2.3
					c-0.1-0.6-1.1-1.4-1.9-1.3C83.7,27.4,83,29.8,83.2,30.8z"/>
			</g>
		</g>
	</g>
	<path class="st1" d="M59.5,14.1c0,0-14.6,3-20.9,1.5"/>
</g>
</svg>
